<mxfile host="app.diagrams.net" agent="Mozilla/5.0 (Macintosh; Intel Mac OS X 10_15_7) AppleWebKit/537.36 (KHTML, like Gecko) Chrome/138.0.0.0 Safari/537.36" version="28.0.9" pages="2">
  <diagram name="第 1 页" id="gBKZC6uS-XTbdFW-cTC8">
    <mxGraphModel dx="901" dy="510" grid="1" gridSize="10" guides="1" tooltips="1" connect="1" arrows="1" fold="1" page="1" pageScale="1" pageWidth="827" pageHeight="1169" math="0" shadow="0">
      <root>
        <mxCell id="0" />
        <mxCell id="1" parent="0" />
        <mxCell id="kayIU9PRfoHvsNL48Lr8-16" value="" style="rounded=0;whiteSpace=wrap;html=1;fillColor=#d5e8d4;strokeColor=#82b366;" parent="1" vertex="1">
          <mxGeometry x="370" y="140" width="140" height="60" as="geometry" />
        </mxCell>
        <mxCell id="8_xrjQYa1ktHmmja2vSY-1" value="&lt;div&gt;语&lt;span style=&quot;background-color: transparent; color: light-dark(rgb(0, 0, 0), rgb(255, 255, 255));&quot;&gt;义&lt;/span&gt;&lt;span style=&quot;background-color: transparent; color: light-dark(rgb(0, 0, 0), rgb(255, 255, 255));&quot;&gt;公&lt;/span&gt;&lt;span style=&quot;background-color: transparent; color: light-dark(rgb(0, 0, 0), rgb(255, 255, 255));&quot;&gt;共&lt;/span&gt;&lt;span style=&quot;background-color: transparent; color: light-dark(rgb(0, 0, 0), rgb(255, 255, 255));&quot;&gt;层&lt;/span&gt;&lt;/div&gt;" style="rounded=0;whiteSpace=wrap;html=1;fillColor=#dae8fc;strokeColor=#6c8ebf;" parent="1" vertex="1">
          <mxGeometry x="20" y="40" width="80" height="60" as="geometry" />
        </mxCell>
        <mxCell id="8_xrjQYa1ktHmmja2vSY-4" value="" style="rounded=0;whiteSpace=wrap;html=1;fillColor=#dae8fc;strokeColor=#6c8ebf;" parent="1" vertex="1">
          <mxGeometry x="100" y="40" width="410" height="60" as="geometry" />
        </mxCell>
        <mxCell id="8_xrjQYa1ktHmmja2vSY-10" value="" style="rounded=0;whiteSpace=wrap;html=1;fillColor=none;strokeColor=#6c8ebf;dashed=1;dashPattern=1 1;" parent="1" vertex="1">
          <mxGeometry x="105" y="45" width="240" height="50" as="geometry" />
        </mxCell>
        <mxCell id="8_xrjQYa1ktHmmja2vSY-5" value="基础属性" style="rounded=0;whiteSpace=wrap;html=1;fillColor=#dae8fc;strokeColor=#6c8ebf;" parent="1" vertex="1">
          <mxGeometry x="110" y="50" width="70" height="40" as="geometry" />
        </mxCell>
        <mxCell id="8_xrjQYa1ktHmmja2vSY-6" value="电商行为" style="rounded=0;whiteSpace=wrap;html=1;fillColor=#dae8fc;strokeColor=#6c8ebf;" parent="1" vertex="1">
          <mxGeometry x="190" y="50" width="70" height="40" as="geometry" />
        </mxCell>
        <mxCell id="8_xrjQYa1ktHmmja2vSY-7" value="电商兴趣" style="rounded=0;whiteSpace=wrap;html=1;fillColor=#dae8fc;strokeColor=#6c8ebf;" parent="1" vertex="1">
          <mxGeometry x="270" y="50" width="70" height="40" as="geometry" />
        </mxCell>
        <mxCell id="8_xrjQYa1ktHmmja2vSY-8" value="APP 使用" style="rounded=0;whiteSpace=wrap;html=1;fillColor=#dae8fc;strokeColor=#6c8ebf;dashed=1;" parent="1" vertex="1">
          <mxGeometry x="350" y="50" width="70" height="40" as="geometry" />
        </mxCell>
        <mxCell id="8_xrjQYa1ktHmmja2vSY-9" value="地理位置" style="rounded=0;whiteSpace=wrap;html=1;fillColor=#dae8fc;strokeColor=#6c8ebf;dashed=1;" parent="1" vertex="1">
          <mxGeometry x="430" y="50" width="70" height="40" as="geometry" />
        </mxCell>
        <mxCell id="8_xrjQYa1ktHmmja2vSY-11" value="&lt;span style=&quot;background-color: transparent; color: light-dark(rgb(0, 0, 0), rgb(255, 255, 255));&quot;&gt;当前长文本组成&lt;/span&gt;" style="text;html=1;align=center;verticalAlign=middle;whiteSpace=wrap;rounded=0;fontSize=6;" parent="1" vertex="1">
          <mxGeometry x="172.5" y="40" width="105" height="10" as="geometry" />
        </mxCell>
        <mxCell id="8_xrjQYa1ktHmmja2vSY-13" value="数据分段层" style="rounded=0;whiteSpace=wrap;html=1;fillColor=#d5e8d4;strokeColor=#82b366;" parent="1" vertex="1">
          <mxGeometry x="20" y="140" width="80" height="60" as="geometry" />
        </mxCell>
        <mxCell id="8_xrjQYa1ktHmmja2vSY-14" value="" style="rounded=0;whiteSpace=wrap;html=1;fillColor=#d5e8d4;strokeColor=#82b366;" parent="1" vertex="1">
          <mxGeometry x="100" y="140" width="270" height="60" as="geometry" />
        </mxCell>
        <mxCell id="8_xrjQYa1ktHmmja2vSY-15" value="数据聚合层" style="rounded=0;whiteSpace=wrap;html=1;fillColor=#f8cecc;strokeColor=#b85450;" parent="1" vertex="1">
          <mxGeometry x="20" y="240" width="80" height="60" as="geometry" />
        </mxCell>
        <mxCell id="8_xrjQYa1ktHmmja2vSY-16" value="" style="rounded=0;whiteSpace=wrap;html=1;fillColor=#f8cecc;strokeColor=#b85450;" parent="1" vertex="1">
          <mxGeometry x="100" y="240" width="245" height="60" as="geometry" />
        </mxCell>
        <mxCell id="8_xrjQYa1ktHmmja2vSY-17" value="标签推断层" style="rounded=0;whiteSpace=wrap;html=1;fillColor=#fff2cc;strokeColor=#d6b656;" parent="1" vertex="1">
          <mxGeometry x="20" y="340" width="80" height="60" as="geometry" />
        </mxCell>
        <mxCell id="8_xrjQYa1ktHmmja2vSY-18" value="" style="rounded=0;whiteSpace=wrap;html=1;fillColor=#fff2cc;strokeColor=#d6b656;" parent="1" vertex="1">
          <mxGeometry x="100" y="340" width="410" height="60" as="geometry" />
        </mxCell>
        <mxCell id="kayIU9PRfoHvsNL48Lr8-4" value="场景归类预处理" style="rounded=0;whiteSpace=wrap;html=1;fillColor=#d5e8d4;strokeColor=#82b366;" parent="1" vertex="1">
          <mxGeometry x="110" y="150" width="100" height="40" as="geometry" />
        </mxCell>
        <mxCell id="kayIU9PRfoHvsNL48Lr8-5" value="" style="rounded=0;whiteSpace=wrap;html=1;fillColor=#d5e8d4;strokeColor=#82b366;" parent="1" vertex="1">
          <mxGeometry x="210" y="150" width="150" height="40" as="geometry" />
        </mxCell>
        <mxCell id="1n7Qkl_lryp3FuAk-c7w-4" style="edgeStyle=orthogonalEdgeStyle;shape=connector;rounded=0;orthogonalLoop=1;jettySize=auto;html=1;entryX=0.5;entryY=0;entryDx=0;entryDy=0;strokeColor=default;align=center;verticalAlign=middle;fontFamily=Helvetica;fontSize=11;fontColor=default;labelBackgroundColor=default;endArrow=classic;endSize=3;exitX=0.5;exitY=1;exitDx=0;exitDy=0;dashed=1;dashPattern=1 4;" edge="1" parent="1" source="kayIU9PRfoHvsNL48Lr8-6" target="1n7Qkl_lryp3FuAk-c7w-1">
          <mxGeometry relative="1" as="geometry" />
        </mxCell>
        <mxCell id="kayIU9PRfoHvsNL48Lr8-6" value="电商行为" style="rounded=0;whiteSpace=wrap;html=1;fillColor=#d5e8d4;strokeColor=#82b366;" parent="1" vertex="1">
          <mxGeometry x="220" y="160" width="60" height="20" as="geometry" />
        </mxCell>
        <mxCell id="kayIU9PRfoHvsNL48Lr8-8" value="电商兴趣" style="rounded=0;whiteSpace=wrap;html=1;fillColor=#d5e8d4;strokeColor=#82b366;" parent="1" vertex="1">
          <mxGeometry x="290" y="160" width="60" height="20" as="geometry" />
        </mxCell>
        <mxCell id="kayIU9PRfoHvsNL48Lr8-10" style="edgeStyle=orthogonalEdgeStyle;rounded=0;orthogonalLoop=1;jettySize=auto;html=1;entryX=0.5;entryY=0;entryDx=0;entryDy=0;endSize=3;" parent="1" source="8_xrjQYa1ktHmmja2vSY-6" target="kayIU9PRfoHvsNL48Lr8-6" edge="1">
          <mxGeometry relative="1" as="geometry" />
        </mxCell>
        <mxCell id="kayIU9PRfoHvsNL48Lr8-11" style="edgeStyle=orthogonalEdgeStyle;rounded=0;orthogonalLoop=1;jettySize=auto;html=1;entryX=0.5;entryY=0;entryDx=0;entryDy=0;endSize=3;" parent="1" source="8_xrjQYa1ktHmmja2vSY-7" target="kayIU9PRfoHvsNL48Lr8-8" edge="1">
          <mxGeometry relative="1" as="geometry" />
        </mxCell>
        <mxCell id="kayIU9PRfoHvsNL48Lr8-12" value="（一、二级）类目 -&amp;gt; 场景" style="rounded=0;whiteSpace=wrap;html=1;dashed=1;" parent="1" vertex="1">
          <mxGeometry x="190" y="110" width="150" height="20" as="geometry" />
        </mxCell>
        <mxCell id="1n7Qkl_lryp3FuAk-c7w-3" style="edgeStyle=orthogonalEdgeStyle;shape=connector;rounded=0;orthogonalLoop=1;jettySize=auto;html=1;strokeColor=default;align=center;verticalAlign=middle;fontFamily=Helvetica;fontSize=11;fontColor=default;labelBackgroundColor=default;endArrow=classic;endSize=3;exitX=0.5;exitY=1;exitDx=0;exitDy=0;" edge="1" parent="1" source="kayIU9PRfoHvsNL48Lr8-17" target="1n7Qkl_lryp3FuAk-c7w-1">
          <mxGeometry relative="1" as="geometry" />
        </mxCell>
        <mxCell id="kayIU9PRfoHvsNL48Lr8-17" value="分段层推理结果" style="rounded=0;whiteSpace=wrap;html=1;fillColor=#d5e8d4;strokeColor=#82b366;" parent="1" vertex="1">
          <mxGeometry x="380" y="150" width="120" height="40" as="geometry" />
        </mxCell>
        <mxCell id="kayIU9PRfoHvsNL48Lr8-2" value="" style="shape=image;imageAspect=0;aspect=fixed;verticalLabelPosition=bottom;verticalAlign=top;image=data:image/png,iVBORw0KGgoAAAANSUhEUgAABAAAAAQACAYAAAB/HSuDAAAACXBIWXMAAAsTAAALEwEAmpwYAAAgAElEQVR4nOzdaZQjd3nof4/HGxgbsAGTgFnMjp0AXrp71nbv6mV2a8bGNt2qKlVJ6i6Nx4SQYEL7GgzEhOBw40BYAxgIQ7hmMYvxBsQYj5fxMj164Tc+l4tHu1o9rdI4/zf6H6mNYTzT01qq6lGpvp9zfufcc3JzL11T6tLzRa3npJMAAAAAAAAAAAAAAAAAAAAAAAAAAAAAAAAAAAAAAAAAAAAAAAAAAAAAAAAAAAAAAAAAAAAAAAAAAAAAAAAAAAAAAAAAAAAAAAAAAAAAAAAAAAAAAAAAAAAAAAAAAAAAAAAAAAAAAAAAAAAAAAAAAAAAAAAAAAAAAAAAAAAAAAAAAAAAAAAAAAAAAAAAAAAAAAAAAAAAAAAAAAAAAAAAAAAAAAAAAAAAAAAAAAAAAAAAAAAAAAAAAAAAAAAAAAAAAAAAAAAAAAAAAAAAAAAAAAAAAAAAAAAAAAAAAAAAAAAAAAAAAAAAAAAAAAAAAAAAAAAAAAAAAAAAAAAAAAAAUbFg+mVmIHd29RjjuddFt+TPrx5jc+7dsU35C6tH37qwpnqiW/JrI1uKIy8+0YnccPV/Htm00FP9vx/dUj5fDRbPCQYrp0n/fAAAAAAAQZO9z5xx1NA5nD+/HY62af7N2qb8hXWdsfn36hP5NfUcY3z+8sh4ceSEZ1NhwtiU31k9sfHC1ZGJvLZ0CtPRzfPXV09kU+Ej0U3zN9bOROHT0Yn856onsqnwheimwlerJzJR+E5kU+H71RPdVPhpZFPhruqJbp5/ILKp8FD1RDfNH4hsLiTqO/ONnS1Hn+jW4v7olvmfRLbOfzGytfjR6Ob5UHRrbji6vXjB7GzlZOl7EQAAAABgE304+04jkFP1QPbWSCD/S2M0v98I5BN1nVEHzvhyp9DamVj+RFo5mxw6LgWAE53o1vlHolvnvxnZVpzWNxcv1fXKqdL3KwAAAACgAbX/Zn8kbxiBwp11D/sEAN8FgGNPYV90a/HT0c3zfcFgZbX0fQwAAAAAWIY+8exLI6OF6Uggv6+lwZ8A4NMAcNSfDtwf2VyYnt66cK70fQ0AAAAA+DPhQPYyYzR/ly2DPwHA9wHgzz4V8Fhky/wHd2+Zf4X0PQ4AAAAAPldZZYwWZozR3Jytwz8BgABw9PcF/C66dX579X6TvuMBAAAAwHdmeyunGMP5m20f/AkABIAXn23Pn62Fr+kTh18lfe8DAAAAgI9UVkVGCp8xRhwa/gkABIDjBYDaKf4qsnn+fdKvAAAAAADwBSOQ21Mb/gkABADXA0DtTwKeiG6f75N+HQAAAABAR9MD2YEXhn8CAAFAIAAQAQAAAADAYcrm7FmRQP5+AgABQDoA1CLAtuL+yLbFi6RfFwAAAADQcYzh7M1HDf8EAAKAYAB4/osB75veunCu9GsDAAAAADqGEci92wjk5ggABIC2CgC1TwLM/5v06wMAAAAAOkRllTGS+9Yxwz8BgADQBgGgdrYXR6RfJQAAAADgeUYgP3bc4Z8AQABokwAQ3Tb/m2uGkmdKv1YAAAAAwLMme585wxjJ30MAIAC0cwConS3z10m/XgAAAADAs4xANrbs8E8AIAC0UwDYVnzcCOZeJ/2aAQAAAADPUftT5xnDuccIAAQAbwSA6laA4mekXzcAAAAA4DlGIHfLCYd/AgABoM0CQHTb/MHpbfMXS792AAAAAMAzooHCX0dG8gcJAAQALwWA6oltnf/P6uYK6dcQAAAAAHhAZVVkJH/7isM/AYAA0I4BoPZJgMK49KsIAAAAANqeHihsqmv4JwAQANo3ANw/OVk5Q/q1BAAAAADtvvbvXgIAAcDLAWDpFA3p1xMAAAAAtC1juDBT9/BPACAAtHcAeNQMHn619GsKAAAAANpOfNPiymv/CAAEAM8EgNpWgI9Lv64AAAAAoO0YI7l/amj4JwAQANo9AGydn4vtyF8o/doCAAAAgLahDaXfW9faPwIAAcBDAeD5PwX4D+nXFwAAAAC0icqqyHDuew0P/wQAAoAnAsB8YmbbfL/0qwwAAAAAxOnD2a1NDf8EAAKARwJAbFvhrmCwcpr0aw0AAAAAxOgTz77UGMn/igBAAOjsADCfiGwtTEq/3gAAAABAjDGS29308E8AIAB4KABEtxX2RceLr5R+zQEAAACA66YHs39pjOT3iwSA0dz+yGj+g/poflckkL+VAEAAcDoALG0FKNwg/boDAAAAANdFRvL/3NLw32QAiIzmDxrDua4//8+iB/IfJgAQABwPANvmn4puL14g96oDAAAAAJdFApn3NbX2z45PAIwWPvXi/zyTvc+cYQTy9xIACABOBoDnzxdkXnUAAAAA4LLZkyonG4H83paH/2YCwGhuf2ys9Nrj/ecyRrJbCAAEABcCQCK2tbDe/VceAAAAALhMH8ltt2X4byIARAKF6PL/ySqrIoHc9wgABACnA0B02/xPgsHKajdfdwAAAADgqmuGkmcaI7lfSwQAPZC7f7K3csaJ/vNpY+n31r4jgABAAHDyEwDVs6O4071XHgAAAAC4TB/JX2/b8N/4JwDG6vnPaARy/0QAIAA4HgC2zT+gbM6e5fyrDgAAAABcpgVyrzdG8o9LBIBIoPCd6kf86/nPGd+0eJ4xlttPACAAOBoAts8notvnr3f+lQcAAAAALjMC2X+xdfivMwBUP9Kvjxb+qpH/rJGxXJwAQABwOgDEts0/GQ8W3uDcqw4AAAAAXGYM57qMkWxCJAAE8p9s9D+vPvHsS42x/K8IAAQARwNA7VMAhc8586oDAAAAAIG1f/pI9vsiAeAEa/9WYgRy2wgABACnA0AtAgSLl9j/ygMAAAAAl2kjmZ16bfh3PwCceO3fyuHCGM3vJQAQAJwOALHthR/MzlZOtveVBwAAAAAur/3Th7K/kQgA9az9W0kkkHlfZMymtYAEAALAsgGg+r9b2GzfKw8AAAAAXKYPZT+kD2cTQp8AqGvt30qM0fznCAAEAKcDQGx78f49wcpL7LhnAQAAAMBV0eH8+fpQ7gmJANDI2r+VVL9DwJa1gAQAAsAJA8B8IrqtELPjngUAAAAAV4WHc/9aG/5dDgDNrP1bSWR8/joCAAHA6QAQ217cHws296WVAAAAACBCH8p1vzD8ux0Amlj7V9dawNHcrwkABABnA0Dtf2b7/QsAAAAAjggG967Wh3J3iASAFtb+rSQymttBACAAOB0Aotvm5yLbFi9y4h4GAAAAAFuFh/JXHjX8uxgA9NF8xKmfq+W1gAQAAkA9nwBY+hTAt+36DgsAAAAAcISyOXuWPpT9rUQAsGPt30r0kczFTa8FJAAQAOoNANVPAmzNDTt5LwMAAABAS/Th7IePGf7d+wSALWv/VhIZy99KACAAOB0AYtvn7woGK6e5cU8DAAAAQEP0wcIbXlj753IAsHPt30q0QO71xmj+cQIAAcDhAFD9PoCQG/c0AAAAADTEGM594bjDv8MBwIm1fyvRR/PXEwAIAC4EgEemty6c6+a9DQAAAAAnFAnkepYd/p0OAA6s/VvJNUPJMxteC0gAIAA0GABqEWB74WNu398AAAAAsPzav+HcD0UCgINr/1aij+eDBAACgNMBILa9eGB6a+btEvc4AAAAABxFG85efcLh38EA4OTav3rWAkbG8t8nABAAnA0A1VP4mtR9DgAAAAA1ZiB39nHX/rkQAPRh59f+rcQYz3URAAgAzgeA+URkx+ENkvc6AAAAAJ/TR3IfWXH4d+oTAC6t/VuJMZr/PAGAAOB0AIhtn79ztrdyivT9DgAAAMCHQgOpC/Th7FMSAcDNtX8riQ7nz4+M5p8gABAAHA4AidiO4lXS9zsAAAAAHwoPZ/+9ruHf5gAQGXF/7d9K9LHshwgABADHA8D2+d/pwcLLpe93AAAAAD6iD2U21j382x0ABNb+1bkW8DcEAAKAwwEgEdu+8CHp+x0AAACATwSDldXh4dyPZQKA3Nq/leij+V0EAAKA4wFgW/HJ2PbCG6XvdwAAAAA+EB7JXtvQ8G9jANBH5Nb+rSQY3LvaGMvfQQAgADj7CYBiIrq9+C/S9zsAAACADqcPFl5uDGcflAgA7bD2byWxsYVuAgABwOkAUD2RbQs90vc7AAAAgA6mD+X+oeHh365PALTJ2r+V6KO52wgABACnA0B0e/H/zM5WTpa+3wEAAAB0oOhAsbr274BEAGintX8riW5ZZi0gAYAAYGMAqJ7pbfPbpO93AAAAAB1IH8l9qanhv8UA0I5r/1ZijOb/lgBAAHA6AES3F//7g9ckz5S+3wEAAAB0EH0429f08N9qAGjDtX8rUTZnzzJGc78lABAAnAwAtQiwrWhK3+8AAAAAOoR+SeVUfTj7M5kA0L5r/1ZijOWvIgAQAJwOALHtC/unN1t/KX2/AwAAAOgA+nA61NLw30IAaOe1f/WsBYyM5n9IACAAOBsAionYtuI/St/vAAAAADxOHf79OfpQdp9EAPDC2r+G1gISAAgATgWA7cWDkR3z75O+3wEAAAB4WHgoe2PLw3+TASAylB89qQMYY4V/IwAQABwOAIno9gXPbMoAAAAA0GZiw+m3Nr32r8UA4KW1fyvRJwpvMMZyTxIACABOBoDaCRYD0vc7AAAAAA/Sh7NfsWX4bzAAeHHt30oiY4W/IwAQABwPADsW7jYDT58ufb8DAAAA8BA9kB2wbfhvNAB4cO3fSsxA7mxjPPdbAgABwNkAUD3zYen7HQAAAICH1v4ZQ9mfywQA7679W4kxnr2aAEAAcDoARLcvPKJfdfhV0vc7AAAAAA8whnKqrcN/AwHAy2v/6lkLaIzlf0QAIAA4+wmAYiK6Y+FG6fsdAAAAQJtTh4vn6CM2rP1rIgB0wtq/lUQ25XoIAAQApwNAbMfCgUgw+w7p+x0AAABAG9OHszfZPvzXGQA6Ze3fSozx3L8TAAgAzgaA6qcAil+XvtcBAAAAtCl9OPtOfTh3QCIAdNLav5VEx1MXGOO5pwgABAAnA0D1TO+Yv1z6fgcAAADQhvSh7DccGf5XCACduPZvJcZY7gYCAAHA6QAQ3VH86Wxv5RTp+x0AAABAG9GHcsP6kEPD/0oBoAPX/tWzFjAylnuQAEAAcDIAPP+FgNdI3+8AAAAA2mjtnz6U/YVMAOjctX8riYwVriUAEAAcDwDbiw/t3jL/Cun7HQAAAEAb0Iezem34FwgAnbz2byXBYGW1MZb7MQGAAOBkAKid7cW/k77fAQAAAAibHlg4Vx/KPSwTAHL3dfrav5VEJwq9BAACgNMBILqj+JSxZf5N0vc7AAAAAEHhoezNLwz/LgcAv6z9W4k+VvgSAYAA4OgnAGpn/jbpex0AAACAkOhg7l36UHZOIgD4ae3fSqLjxQuM8cJTBAACgLMBoPaFgGul73cAAAAAAvSh3DePGv5dCgB+XPu3En2i8FECAAHA6QAQ21G8Ixjcu1r6fgcAAADgovBQfvSY4d+tAODDtX8r0QcLL4+MFR4kABAAHA4A1f+/r5C+3wEAAAC4xAw8fbo+lL1bKAA8GhlKvkb6GrSjyHhhkgBAAHA6AER3FB+IBdMvk77fAQAAALhAH8xGjjv8uxAA/Lz2byWzvZVTImOFnxIACACOfgJgRzERuWL+Oun7HQAAAIDD1P7Uefpg7lGZAJDx/dq/lehj2T4CAAHA6QAQ3bHwuBHMvU76fgcAAADgIGMo9+llh3+HAwBr/+oTaXQtIAGAANBgAHj+TwH+SfpeBwAAAOAQoz/37mPW/rkVAAI51v7VSQ8U32KMFQ4QAAgATgaA2I7iweltpYul73cAAAAAtqus0gczt59w+HcuAMyx9q8xxljhYwQAAoDDASAR2zH/n4Q5AAAAoMNoA5mJFYd/hwKAMZy9Wfrn9xp1+PfnRMby+wgABABnA0AxEdlRmJC+3wEAAADYZLL3mTOModw9MgEgx9q/JumjuRABgADgdACIbi/ePznJl3MCAAAAHUEfyk7XNfw7EQBGsqz9a5J+SeVUY7zwMwIAAcDJAFA7VxQN6fsdAAAAgC1r/7KPiQSAIdb+tUqfmB8gABAAHA8AO4qPmsHDr5a+3wEAAAC0wBjO3VL38G9zAAiz9s8W+njhKwQAAoDDAaD6hYCfkL7XAQAAADTJGE6/Rx/KHpQJAKz9s0tsU/GtJ1wLSAAgANgQAKLbi3OxHfkLpe93AAAAAA2rrAoPZv+zoeHfvgAwFxnKXyR9BTqJMT5/IwGAAODsJwBq/2/8B+EOAAAA8JjwYHZzw8O/TQGAtX/22zNcPCcyVjj+WkACAAHArgBQ+yTAvCp9vwMAAACo055g5SX6UO5+mQDA2j+nRMbnFQIAAcDpABDbUTwQ3b6wSfp+BwAAAFAHfThnNjX82xEAWPvnmGBw7jRjrHAXAYAA4HAAWPokwBULN01faf2l9H0PAAAAYBn6SOYv9KHcfokAYAzn7pnsfYa1fw4yRnNDBAACgBsBYOksHIjtWPhy9IrDfxu7onh1bEdxp60n6LFzpdfOov3nao+dD3TOMZs48anFofiUdVlcrZwn/fwCAAAO0Idy/9T08N9qABjMjEn//H5gjM3/BwGAAOBOAHj+XOHQCdpzpoMLR5+dDp0rHTpXOXTev2j/uXrpzNh9rnHofOB4p9T6mXToTC1/zFZOqJSYCS3eZSrWTdNT8xdLP8cAAIAN9P7MxQ2v/bMrAAzlbufbw92hTxx+pzFemCMAEAAIAAQAAgABoN4A8OcnrpS+X/10gPTzDAAANGn2pMrJ+lB2b0vDf/MBgLV/LjPG5m8iABAACAAEAAIAAaCZAPBn54vTCt/1AQCA5+jD2a0tD//NBoCh3Kekf36/0ScOvyoyXniEAEAAIAAQAAgABIAWAkD1PGKGyr3SzzUAAFAnfeLZl+pDuV/JBADW/kkxxvNhAgABgABAACAAEABaDAAJM1Q+YE6VNOnnGgAAqIM+mLnOluG/mQDA2j8xZuDp0yPjhV8SAAgABAACAAGAANBaALBqZ0axYtLPNgAAcAJaIPd6fTD3uEgAGMrcN9lbYe2foOhEcZgAQAAgABAACAAEADsCwFIEKE1JP9sAAMAywkPZz9k2/DcYAFj71x6M8fw3CQAEAAIAAYAAQACwIwCYIWtu99SREelnGwAAcGLtX9MBIPcd1v612VpAAgABgABAACAAEABaDwCJeMh6NBoqXiD9fAMAAEet/cu3vvavuQDA2r82Y0zkbyYAEAAIAAQAAgABwI4AUIsASvmHk5PP8Gd+AAC0g/Bwboftw3/9AeCT0j8/jmYGDr/amCg8SgAgABAACAAEAAKAHQHg+e8D+Ij08w0AAN+7Zih5pjGY+7VMAGDtX7syJvIGAYAAQAAgABAACAB2BYDa9wFMlt4r/XwDAMDX9MHsBx0Z/usIAOGhvCH982P5tYDGROFuAgABgABAACAAEABsCgAJM1S+Y3a2cor0Mw4AAF+aGv7D+fpA7gmJAGAM5+6Z7OXvAduZvikfIAAQAAgABAACAAHAvgBgJeJTpUnp5xsAAL5kDGY/rw84NPyvEADCQ/lR6Z8fKzMm8t8iABAACAAEAAIAAcCuAGCGyg9PX1s5V/r5BgCAr+hDye7a8C8SAFj75xXRsdy7/rgWkABAACAAEAAIAASA1gNAdTVg6R+kn28AAPhGMLh3tT6Qu0MoALD2z2MiE/lPEgAIAAQAAgABgABgVwAwQ+UD8ann3ib9fAMAwBeMwfzOF4Z/lwOAMZy9WfrnR2Omty6cG5koPEIAIAAQAAgABAACgD0BwEqYU9bXpJ9vAAD4Yu2fPpj9jUwAYO2fV0XGC1ECAAGAAEAAIAAQAGwLALU/BSivl36+AQDQ0fSB/IeOGv5dDACs/fOu6saGyHjhHgIAAYAAQAAgABAA7AoAZsi6MxisrJZ+xgEA0JGiw/mltX8SAWAoc99kb4W1fx4WHSuMEwAIAAQAAgABgABgYwBIxJXyldLPNwAAOpI+mLvtmOHftU8A5APSPz9aVVkVmcjfTgAgABAACAAEAAKAXQHADFkPfEipnCX9hAMAoKPoQ7k/rf1zPQCw9q9TGJtz746MF+YIAAQAAgABgABAALApACRmlNKHpJ9vAAB01tq/wdwPhQIAa/86THSi8GkCAAGAAEAAIAAQAOwKAGbIejKmlN8o/XwDAKAjGIOZq5Yd/h0OAKz96zzqptR5kfH8YwQAAgABgABAACAA2BQAEqZavlX6+QYAgOeZgdzZ+mD2tzIBgLV/nSoyUZgmABAACAAEAAIAAcC2AKBYiWnFulT6+QYAgKfpg9m/O+Hw72AAYO1fZ68FjI7n7yUAEAAIAAQAAgABwK4AYCqlH8zOVk6WfsYBAOBJ2lDyzfpg9imJAGAM5e6pDonS1wDOiWwqTBAACAAEAAIAAYAAYF8AqH4hoLVV+vkGAIAn6QO5L644/Dv1CQDW/vlkLeD8nQQAAgABgABAACAA2BUA4qr1qz17Ki+RfsIBAOAp+mB6fV3DvyMBIHc7a//8ITKe/yABgABAACAAEAAIAHYFgNrRrGnp5xsAAJ4RDFZW64PZnwgFgLnIUJK1fz4RnZgPEQAIAAQAAgABgABgZwCYUa39cbVynvQzDgAAT9AGslfXPfzbHQAGs5+U/vnhnsim+f9FACAAEAAIAAQAAoCtnwBYigCfln7GAQDQ9vTBwsv1gezvRALAIGv//CQWTL8sOlHYRwAgABAACAAEAAKA3QEgrloH48r/8IlCAABOxBjM3dDQ8G9jAGDtn7/EJub3sAWAAEAAIAAQAAgATgSA5893+E4hAACWER0oXlDX2j8nAsBg5r7J3gpr/3xCC+ReH5koPE4AIAAQAAgABAACgIMBILFbOzIi/cwDAKAt6QPZLzU8/NsVAFj75yuRiflb6x7+CQAEAAIAAYAAQABoMgCYivVL03z6dOnnHgAAbSU8mOltavi3JQDk+Iiej+gTmYujE4WDBAACAAGAAEAAIAC4EAAS8VBJlX72AQDQNmZ7K6foA7mfCgWAuchQni/p8YnZ2crJkYnC9xsa/gkABAACAAGAAEAAaCEAmGrpkev1w6+SfgYCANAW9IHcZNPDf4sBwBjK3iz988M9sfHcFQ0P/wQAAgABgABAACAAtBIAqidk3Sj9DAQAoC3W/hmD2QdFAgBr/3zlmqHkmZGJ/K8JAAQAAgABgABAAHA9AKjlA9Pawtuln4UAAIgyBjMfa2n4byEAsPbPXyLj+Q82NfwTAAgABAACAAGAANBqAKhFAOvr0s9CAADE6H3Ft+gD2QMiAYC1f74S3ZI/Pzox/wQBgABAACAAEAAIAGIBoPanAOVe6WciAAAi9IHcl1se/psNAKz98xVjIv/5pod/AgABgABAACAAEABsCgBxtXzn7GzlFOnnIgAArtL75/tsGf6bCgCs/fMTfSzXbbQy/BMACAAEAAIAAYAAYNcnAGpn8WrpZyMAAK7RL6mcqg9mfyYUAFj758O1fwQAAgABgABAACAAtE8AKD20e3L+FdLPSAAAXKEP5kK2Df8NBoAwa/98xdiU31kd/gkABAACAAGAAEAAaJ8AUD3lD0s/IwEAcJw6/Ptz9MHsPpEAwNo/3639MybyvyEAEAAIAAQAAgABoP0CgPXU7skjb5J+VgIA4ChjIH+jrcN/AwGAtX/+ok/kP/TH4Z8AQAAgABAACAAEgDYLANU/Bfjf0s9KAAAcExnJvkMfyB0QCQCs/fPd2r/IxPwTBAACAAGAAEAAIAC0bwCwEruV8hrpZyYAAI7QB7NfsX34rzcAsPbPV4zx/L/++fBPACAAEAAIAAQAAkA7BgBTLd0RDO5dLf3cBADAVkZ/bsiR4b+uAMDaPz+u/SMAEAAIAAQAAgABoO0DgGIlZlRru/SzEwAAW9f+Gf3ZnwsFANb++Uj1v0Uxxgt3EAAIAAQAAgABgADglQBgqqX/jsXSL5N+hgIAYAu9P6Pp/Q4N/ysEANb++Ys+Udx1vOGfAEAAIAAQAAgABIC2DQCKlYgr1m7pZygAAC1Th4vn6APZfSIBgLV/vhLrTb/sz9f+EQAIAAQAAgABgADglQBgKuXHpxXrL6WfpQAAtMToz368NvxLBIDhvC7988M9xvj83y43/BMACAAEAAIAAYAA0N4BwErEVesW6WcpAABN04ez79T7swdEAgBr//y39m/s6LV/BAACAAGAAEAAIAB4LAAcnJ4qXSz9TAUAoCl6f+Yben8mIRIAWPvnK5Hx+duM8eWHfwIAAYAAQAAgABAA2j0ALH0hoPVdNhcBADwnMpgfWRr+JQJA7ts8PP0jNrbQXRv+CQAEAAIAAYAAQADwegCofRKgNCb9bAUAoG7B4Nxpen/mLqEAwNo/n639i4zP/5AAQAAgABAACAAEgE4JAKZSun92kj9jBAB4hD6Q1f80/LsbAFj75y/GWP6qF4Z/AgABgABAACAAEAA6IgBYibh2hC8yBgC0v+mBhXP1/szDIgGAtX++omyunGWMF35LACAAEAAIAAQAAkDHBQDFetQMHX619LMWAIAT0vuznzx6+HcxALD2z1f08fyHjxr+CQAEAAIAAYAAQADokABQO5p1k/SzFgCAZUUHc+/SBzJzIgGAtX++ok8U3lBb+0cAIAAQAAgABAACQKcGANWai2mLF0o/cwEAOK7wQOZbxw7/LgUA1v75ijFW+MIxwz8BgABAACAAEAAIAJ0UADQrEQ9bX5d+5gIAcAyjLzN2/OHfjQDA2j8/iWxa6Dnu8E8AIAAQAAgABAACQIcFgNrRj/RJP3sBAHjBZO8zZxj9mXtEAsAga/98vfaPAEAAIAAQAAgABIAODwAzqnWXrldOlX4GAwBQEx5Ix5Yf/p0NAOEB1v75iTFeuHrZ4Z8AQAAgABAACAAEgA4MALUTLl8r/QwGAOAktT91nj6QfffqPcIAACAASURBVEwmALD2z0/MQO7sY9b+EQAIAAQAAgABgADghwCglh7aPTn/CulnMQDA5/SBzD+eePh3MgCw9s9PjPHC359w+CcAEAAIAAQAAgABoFMDQPVPAbTSR6SfxQAAH9P6khcef+2fCwGAtX++Eh1PXWCMF54iABAACAAEAAIAAcCvAcDUrAN71CNvlX4mAwB8qbJK78/cvvLw79QnAFj75yeR8cIXVxz+CQAEAAIAAYAAQADo7ACQiGvlf5N+JgMAfCgykJmob/h3IAAMsvbPT/SJ/Jq6hn8CAAGAAEAAIAAQADo8ACxtBSivk342AwB8tvZP78/cKxIAWPvnK8FgZbUxlv8RAYAAQAAgABAACAAEgD9+IaD1k+rzUfoZDQDwCaM/N1P/8G9vAGDtn7+suPaPAEAAIAAQAAgABAC/BYClTwEEpZ/RAAAfUPsX61j751QAYO2f39b+RcYKDxIACAAEAAIAAYAAQAB48Sk9oCjZs6Sf1QCADqf3Zz7T2PBvZwBg7Z+fGGOFGxoa/gkABAACAAGAAEAA8E0AsBJx1doj/awGAHQwbSj9Xn0gc1AkALD2z1ei48X61v4RAAgABAACAAGAAODTAGBq1pPXR8vnSz+zAQAdu/Yv/b3Gh397AkBkMD8ifQXgHn2s8KWGh38CAAGAAEAAIAAQAPwVAKqfAvis9DMbANCB9P7U1uaGfxsCAGv/fEUfK2xsavgnABAACAAEAAIAAcBnAaB6rtNLF0s/uwEAHaT60Xt9IHOfSABg7Z8f1/79mABAACAAEAAIAAQAAkC9p/xfs7OVk6Wf4QCADmH0Z3Y3P/y3FgBY++cvkbHCtU0P/wQAAgABgABAACAA+DIAWIm49tyE9DMcANABYr3p1+r96f0yASD3aChw6NXS1wBtvPaPAEAAIAAQAAgABAACQPXcv2dP5SXSz3IAgMfp/dl/bm34byUAsPbPT/SJ3EdbGv4JAAQAAgABgABAAPBvAEiYqhWVfpYDADwsMpB5X3Nr/2wIAKz98+Hav1zja/8IAAQAAgABgABAACAAPP9nANajkcjia6Sf6QAAD5o9qXKy3p/Z2/rw31wAYO2fv+hjuS8Z4/nWhn8CAAGAAEAAIAAQAHwcAJ7/FADfnQQAaJw+mNtuz/DfRABg7Z+vGOPZy5eGfwIAAYAAQAAgABAACAAtBoC5uLLI9iQAQP30iWdfagxkfy0SAFj75yuzvZVTImOFnxIACAAEAAIAAYAAQACwIQAsRYBvSD/fAQAeYgxk9tg3/DcWAFj75y+R8dzkn4Z/AgABgABAACAAEAAIAC0HAM1KzIQXB6Wf8QAAD9B6/9/r9f7s4zIBgLV/fqIPFl5ujOd/RwAgABAACAAEAAIAAcDeABDXynfNBiunST/rAQBtTu/L/ou9w38jAYC1f35ijOU+dvTwTwAgABAACAAEAAIAAcCOAFD7FIBWmpJ+1gMA2pjen7lY77Nj7V8TAYC1f76iB4pvMcZyBwgABAACAAGAAEAAIAA4EwBMrbQvGi2+UvqZDwBo17V/fdnv6312D//1BQDW/vlLZKzw/No/AgABgABAACAAEAAIAM4EgOqnAMoflX7mAwDakN6fCdaGf4kAwNo/X4mOzfcdf/gnABAACAAEAAIAAYAAYGcAMLXygfjUc2+TfvYDANrINUPJM/W+9G9EAgBr/3xFv6RyqjGW+xkBgABAACAAEAAIAAQANwJA9QsBrX+Xfv4DANqI0Zf9mxeGf5cDAGv//EUfzYWM0eWGfwIAAYAAQAAgABAACAB2B4BaBAgdXi/9HgAA0AamNvzhfP3y7BMyAYC1f36iDv/+nMhofh8BgABAACAAEAAIAAQAdwOAqVp3BoOV1dLvBQAAwsJ9mX89avh3NQCw9s9PjNH8jbXhnwBAACAAEAAIAAQAAoC7AUCzErvV8i7p9wIAAEH65bnu8IuHf7cCAGv//Lf2bzR3gABAACAAEAAIAAQAAoBMADA16wFFyZ4l/Z4AACAgGNy7Wu/L3CEVAFj75y/GWO7LLwz/BAACAAGAAEAAIAAQACQCQMJUSn8j/Z4AACBAvzyzqzr8iwQA1v75ih7IDhw1/BMACAAEAAIAAYAAQACQCQCa9WRMKb9R+r0BAMBFsd70y7S+zH+LBADW/vlz7R8BgABAACAAEAAIAASAdggACVMr3Sr9/gAA4CKtP/vhPw7/Ap8A+IT0zw/3RAI55ZjhnwBAACAAEAAIAAQAAoBcAAhbiWndulT6PQIAwAXR4fz54cuzT8gEANb++cme4eKf1v4RAAgABAACAAGAAEAAaJsAYIZLP5idrZws/V4BAOAwvT/zb38+/Lv8CQDW/vl17R8BgABAACAAEAAIAASANgoAtf/zFun3CgAAB2m9uZ4XD/+uBYAB1v75SWRk4R3GaOFPa/8IAAQAAgABgABAACAAtFcACFv379lTeYn0ewYAgENr/8J9mR9KBQDW/vmLPpr/yrLDPwGAAEAAIAAQAAgABIB2CAAJU7empd8zAAAcoF2euvp4w787AYC1f35ijOaGTjj8EwAIAAQAAgABgABAAGiLABAPl/dfp5f+Qvq9AwDARmYgd7bWn/2tSAAYyLD2z29r/0ZzPycAEAAIAAQAAgABgADQ/gHg+U8BfEr6/QMAwEba5ZmPLDf8Ox4A+tKs/fORyGheW3H4JwAQAAgABAACAAGAANA2ASAetg7GI//Df1kDAJ0gNJC6QOvLPCUTALKPhtaz9s8vTrj2jwBAACAAEAAIAAQAAkBbBoDnz3f4c00A6ADhvuy/n2j4dzQADKRY++cjxlj+prqGfwIAAYAAQAAgABAACADtFgASpn5kWPq9BACgBfpAfs1Kw79jAYC1f76iT2TfecK1fwQAAgABgABAACAAEADaOwCErV+a5tOnS7+nAAA0IRisVNf+/VgqALD2z18iY/lv1D38EwAIAAQAAgABgABAAGjHAJCIayVV+j0FAKAJ4f6sUc/w70QACA9kvsXfkflHXWv/CAAEAAIAAYAAQAAgALR/AAiX9+1RK+dIv7cAADRAG8hMhPuyB0QCwEBmTutLXih9DeCOYHDuNGMsfxcBgABAACAAEAAIAAQA7weA6pnRSrPS7y8AtAn9kmdfanblznbrRNf/31dObfjD+V49kTXJ15iB3NlunFhv+rVaf2aD3pf9l3oHfycCQHggfbP0fYo2XPtHACAAEAAIAAQAAgABwBMBwAyXD8SN594m/R4DgA2UNYfeqK9ND6tr01F1TfKz6trU97Q1qbvUtcn/1tanHtXWpRL1n3R9Z31jJ1zv2eDQ6W3lZJY/lzt0Ghz2nQ0ArP3zE33i8KsiY/lHCAAEAAIAAYAAQAAgAHRSALAScd36svT7DABNCAb3rtbXJ7u1NekPq2uTv9DWphLLnoaGfwIAAeB4H//PsvbPR4zR/MebGv4JAAQAAgABgABAACAAtHUAqJ7denmj9HsNAHWa7a2coq1NbdHWpu484dBPACAA2BUABrK/NAOsjvGL6FjuXcZYbo4AQAAgABAACAAEAAJAZwaAuF6+c3a2cor0ew4AK9DWZCbUNan76h78CQAEAFsCQDogfe/DPcZo/ptND/8EAAIAAYAAQAAgABAA2j4ALEWAxfdLv+cAsIzql+ap6w7d0vDgTwAgALQeAL7N2j//iIznR1oa/gkABAACAAGAAEAAIAB4IwCES7/7sF55ufR7DwAvMtXz7MW1L/JrdvgnABAAmg0ArP3zleqfeUTG8r8kABAACAAEAAIAAYAA0PkBYCkClP9W+v0HgD8T6k52a+tSj7Q0/BMACADNBoC+9CekXwNwT3Q8r7c8/BMACAAEAAIAAYAAQADwTADYHbae3G0ceZP0exAAJ510Unh9alBbm3qi5eGfAEAAaCoAsPbPT8zA4Vc3vfaPAEAAIAAQAAgABAACgCcDQHzpCwH/Rfp9COB7oXXp99g2/BMACADNBICBFGv/fMQYy99sy/BPACAAEAAIAAQAAgABwFsBIFxOXKeXLpZ+LwL4lt777Ku0tan7bRv+CQAEgEYDAGv/fKXltX8EAAIAAYAAQAAgABAAPB0AdmtHvsuXPgMC9Esqp2prU9+1dfgnABAAGgwAkcH8iPRrAW6prIqM5m63bfgnABAACAAEAAIAAYAA4LkAUDv6kQHpdyWA76hr01Hbh38CAAGgsQDA2j8fiYzmR20d/gkABAACAAGAAEAAIAB4MgDsDpd/GgxWVku/NwF8w+hOvkntST1OACAAiAUA1v75ymTvM2cYo/m7CQAEAAIAAYAAQAAgABAAahFAf2679PsTwCcqq7Se1Ne0NQ4M/wQAAkC9AYC1f76ij+Yjtg//BAACAAGAAEAAIAAQADwbAOJa+a5gcC+fAgCcpvYkN9WGfwIAAUAoABj9mUdY++cfkaHka4xA/lECAAGAAEAAIAAQAAgABICjPgUQfm5U+n0K0PEfw1V7UvcSAAgAop8AYO2frxijhU8ZAQeGfwIAAYAAQAAgABAACACeDgBxrXwH3wcFOEhbk55+YfgnABAAZALA3az984/IeP4iYzQ3RwAgABAACAAEAAIAAYAAcEwAqH0XQHmj9PsVoCOp3anz1DWpxwgABADRANCXG5Z+LcAtlVXGSO5bteGfAEAAIAAQAAgABAACAAHgeAFAK98m/Y4F6EjqmkO3HDX8EwAIAC4HgPBA5lt8zMs/jEB+7IXhnwBAACAAEAAIAAQAAgAB4HgBIFw+EIksvkb6fQvQUdTu1F9ra1IHCQAEALEAMJCZi/QmL5J+LcDVtX/3EAAIAAQAAgABgABAACAAnCgAVI+pla+Wfu8CdJDKKrUn+Z1jhn8CAAHAxQAQHkjfLP1KgHsigUL0qOGfAEAAIAAQAAgABAACAAFgmQAQ18pflX7vAnQMbU1m4rjDPwGAAOBaAMg+yto//1D7U+cZgdxjBAACAAGAAEAAIAAQAAgA9QSA3eEj+3W9cqr0exig89b+EQAIABIBYCDL2j8fMUZznz5m+CcAEAAIAAQAAgABgABAAFjuEwDVoyzyp6JAq9S16eiywz8BgADgTgD4BWv//CMylL8oMpo/SAAgABAACAAEAAIAAYAA0EgAuE5/bpP0+xjA0yJrkq85Zu0fAYAA4GoAyO7Xh7PvlH4twD1GIPfZ4w7/BAACAAGAAEAAIAAQAAgAJ/oEgHYkIv0+BvA0bU3qkycc/gkABABnA8B92lD6vdKvA7grEig8QAAgABAACAAEAAIAAYAA0GgA2K2Vr5d+HwN4lrImeZG6JjXXHgEg+aS6LvXQ8idd39nQ2NHqPRvb8WSWP70Onb7Wj96Xvl/vy35d78u+P9abfpn06wDuM0byO41A/gdGIPdbI5B/6Kgz6sAZX+4UWjsTy59IK2eTQ2dLvWe+sbO1PU603rOt2VNc/mx36Fzh0Anac6ZffHY6dHY5dK5y6Lz/sP3n6qUzY/e51qHzgeOdxdbPpENnavljtnKUlU6pfY5a59GsJ0QDgP7ch6TfxwAeVVmlrknevuLw73AACK9L366sOfTGYHDvaukrAgAAAGB5s7OVk+NTz73N1EoPyAQAKyp9DQBPUnvSgbqGf8cDQFKRvhYAAAAA6meq1p0SAcDUyjulf3bAc6rftq6uSd/dDgFAXZv6nvT1AAAAAFAfUym9T+5LAP+/S6R/fsBztDUpve7h34XvAFDXp9dJXxMAAAAAK6msmlGt24UCwJyiZM+SvgKAp0xftnCu2pN6uK0CwLrUncFghe8AAAAAANqYqZYCcl8CaPHJYaBRak/y4w0N/25tAVifukr62gAAAAA4PtN8+nRTs34pFQBM7YgpfQ0AT9HXZN9Z19o/gQCgrk3+brJ3/hXS1wgAAADAsWa0Urih4d/mADCtPfd26WsAeIq6JvWNhod/tz4BUPtTgOTfSV8jAAAAAEfbo1bOiWvlfVIBYLd+ZK/0NQA8Re1ODTU1/LsbAJ7SNiTfLH2tAAAAAPyJqR65seHh39YAUA5KXwPAM/RLKqdqa1I/b/cAsBQB0l+Qvl4AAAAAlpj6kbeYmnVALgBYD0xOPnOG9HUAPCO8Jqk0Pfy7HACqJ7Tu2fXS1wwAAABA9W//ra82NfzbFQC0IxHpawB4htpTPEdbk97npQBQXQs421s5RfraAQAAAH5mKot9TQ//tgQA64EPXlM5U/o6AJ6hrknf2NLwLxAAamdt6mrpawcAAAD4VTBYWW2q1k8kA4CplXdKXwfAM9Se9Fu1ntQBLwYAdV3qIdYCAgAAADLMcPnalob/FgPA7nD5p9UIIX0dAM9Q16S+0vLwL/UJgKWtAH8vfQ0BAAAAvzHNytmmZj0oGQBM/Uif9HUAPENfm+2zZfiXDQBPhdanLpC+lgAAAICfmGrp71se/lsJANqRb0pfA8BTa//UNamfeT0ALH0XQPKL0tcTAAAA8IsZ7cibTdV6SjAAzMUj/3OR9HUAPENdkwzZNvxLB4B1qYS+Ls1aQAAAAMAFca38b7YM/80GAL38D9LXAPAM/ZLCy9U1yd91UgBgLSAAAADgvN261W3b8N9UACj9LhotvlL6OgCeofakPmbr8N8GAWDpTwGyrAUEAAAAHBIM7l1tauU7JAOAqS2y9g+oV3R96gJb1v61YQBQ16VZCwgAAAA4pDp82zr8NxoAtPJ/VSOE9HUAPCO8Jv0l24f/NgkA2rp09X/vI9LXGAAAAOg0H7ymcqapWr8RDABzM0bpPdLXAfAMtTt5uSPDfzsFgHXpA1MbM2+TvtYAAABAJzG18vW2D/+NBYCPS18DwDOCwcpqrTv1Yx8EgIS2Pv1V6esNAAAAdApTs15vquXHxQKAVn74ev3wq6SvA+AZ4a70tVqPQ8N/uwWA2p8CZDZIX3MAAACgE8wopc85MvzXHwD4sm+gXmZX7mytO/mgrwLAujRrAQEAAIAW7dZK742r1kGpADATLv24+mlm6esAeIbanbqhNvz7KwAk1PXZa6SvPQAAAOBdlVVxpfQ9U3Fo+K8nAKhWl/RVADwjdGnqArU7+ZQvA8C69EPR9f/3ldL/BgAAAIAXmZq1pTb8iwWAxVukrwHgKVp38osvDP8+CwBLnwJI3SD9bwAAAAB4zeTkM2eYinWvXAAoPRJXF8+Tvg6AZ2hdqZ6jhn8fBgDWAgIAAACNMzVr+oXhXyAAxPUjIelrAHhGMLh3tdaT/BEBoHoyX5P+9wAAAAC8ovrfvJuK9ZhUAIiHrZ/PBiunSV8HwDPUntT7jxn+fRsA0gllQ2aj9L8JAAAA4AUzqvXpo4Z/twOAXl4vfQ0Az1DWZs9Su1O/JQAcdX7KWkAAAADgxHarz73LVKw5sQCglW6VvgaAp2jd6Q8fd/j3dwBIhNenr5X+twEAAADamalY3zpm+HcpAMTD5f17DOt10tcA8IzopfnztZ7UEwSA42wEYC0gAAAAsKzd2pGR4w7/bgUAzYpIXwPAU7Se1G3LDv8+DwBLawEzrAUEAAAAXkTXK6eaivULqQAwo1l3mebTp0tfB8Az9O5k9wmHfwJAdSPAAW195u3S/1YAAABAOzHVkrbs8O/KJwDKvdLXAPDY2r/0HQSAOs4G1gICAAAAf7RHrZwTV8r7xAKAVr5N+hoAnqJ2Z3atOPwTAJbO+uoXAmYojAAAAEDtv/0/cuMJh39nA8ATu40jb5K+BoBnXPPXyTPVntRvCAD1BwB1feoX+iWVU6X/7QAAAABJpn7kLaZqHRALAJplSl8DwFOUrvTf1DX8EwBeCAC1sy79Ael/OwAAAEBSXLG+vOLw71AAiKvWfXv2VF4ifQ0Az5i69A8nXvtHAFg+AKxP72MtIAAAAPxqWl28vK7h36lPACilYelrAHiK2p36fN3DPwHgxQEgoW7I/IP0vyEAAADgtmCwsnpGKf1YMADwxdxAI9SeZFdDwz8B4JgAoK1PH1B702+V/rcEAAAA3GQq5avrHv7tDgCq9VQ0VLxA+hoAnjF7UuVktSf1fQJAywGg+oWAX5f+9wQAAADcYpqVs03VelAsAGjlD0tfA8BTtK5DVzQ8/BMAjhsAahFgXfJy6X9TAAAAwA2mWvr7hoZ/GwNAXC39TtcrL5e+BoCn1v5p3alfEwBsDADrU3cF3z13mvS/LQAAAOCk66fK55uK9aRUANitlndJXwPAU9Se1J6mhn8CwLIBYOkLAdOT0v+2AAAAgJNMtXxbw8O/TQFgRiv9uPrlg9LXAPAMrev/vV7tST1OALA/ALAWEAAAAJ0sFrK6mxr+7foEQLi8VvoaAJ6idB/6XNPDPwFgpQBQ/VOAj0n/GwMAAAB2m52tnGyq5f+SCgBxtfx56WsAeIqy5g/vU3uSBwkAzgUAbX3mgLY+83bpf2sAAADATjNqOdj08N96AHgyppTfKH0NAG+t/etO7lV6ks0P/wSAOgIAawEBAADQWT54TeVMU7V+LRcAytdLXwPAU0I9z26rDv8EAOcDQPXoG7N90v/mAAAAgB3iqrWnpeG/pQBQekBRsmdJXwPAM/RLnn2p2p38FQHAvQDAWkAAAAB0gthk6bUzqrVfKgDMqNZ26WsAeIranYz/cfgnALgTAGpnQ3pK+t8eAAAAaIWplP+55eG/6QBQ+kH1ywelrwHgGWp36jy1+9B+AoD7AUBdn354emDhXOl7AAAAAGjGbq303rhqHZQKANOKdan0NQA8Re1JfubPh38CgIufAKid1Kz0PQAAAAA0rrIqrpS+Z8vw30QAiKvWZ6WvAOApoa70e6pr/wgAkgEgc0BZ+4d3SN8LAAAAQCNM1dpk2/DfYACIa+X9ewzrddLXAPCQyiq1O3n7i4d/AoDbASCdCLMWEAAAAB4yOfnMGaZi3SsWAFRrRvoaAJ6i9iQ3HW/4JwBIBIDqFwJm+6XvCQAAAKAeM4oVs3X4bywA3L9nT+Ul0tcA8IzJ3mfOULoP3UsAaKMAwFpAAAAAeEDkmsXXmIr1mFQAiGvPTUhfA8BTtK7k9HLDPwFAJgBUj74+HZK+NwAAAIATiYesT9o+/NcfAL5b/VNm6WsAeGrtn9KVfIwA0H4BILw+/Yje++yrpO8RAAAA4Hh2q8+9ywxZcxIBIK5ZB+Pq4l9LXwPAU5TLDv2j0rX88E8AEA0AifC69I3S9wgAAABwPPGQ9U0z5MDwX98nAD4l/fMDnhLqOvRupfvQHAGgjQMAawEBAADQhkylNFwb/gUCwIxm7Y/FSq+VvgaAh1RWhboO3V4b/gkAbRwAahGAtYAAAABoG7peOTUesn4uFgDCliF9DQBPUbqS4y8M/wSANg8A1S8ETA1I3zMAAABAlakcUV4Y/l0OAHHVum92snKG9DUAPMN869Onq12H7iEAeCkAZFgLCAAAAHF71OI58VB5n1QA2K0dGZG+BoCnKJcdihw1/BMA2j4ALH0hYEaRvncAAADgbzNKafao4d/dAPBt1v4BDbj2sj+cq3QlHyYAeDAAsBYQAAAAgkz9yFvMkHVAJACo1lxcWbxI+hoAnqJ2J28+ZvgnAHglACTCG7KsBQQAAIAIM1T+0jHDv3ufALhJ+ucHvLv2jwDgzQCwPnMgsjbLWkAAAAC4ardS3njc4d+VAFB6ZHq6cq70NQA8Re1OfvO4wz8BwEMBoPaFgP8hfS8BAADAP4LByuqZUOnHUgEgrh3Rpa8B4CnaZemRZYd/AoCnAsDSSQ1K31MAAADwB1MpX73s8O98ALiftX9AA/RLKqcq3clfEAA6JwCwFhAAAABuMK+unB1XrN+KBQDV2iR9DQBPUbqfDZ9w+CcAeC4AVI+2IaNK31sAAADobPFQ+e9OOPw7GQDU0v+Zna2cLH0NAM9Qe4rnKF2pfQSAzgsA4Q3pR0LrD71a+h4DAABAZ7p+qny+qVhPiAUAzeqRvgaApyhdyZtWHP4JAF4NAAltQ/p/Sd9jAAAA6ExmqHTbisO/QwFgRi39q/TPD3iKcmn2HWpX6gABoHMDQHhjek5bl7xQ+l4DAABAZ4mFrO66hn8nAoBqHTD1I2+RvgaAp6jdh75a1/BPAPBuANiQTugbWQsIAAAA+1T/7j6ulL8vFwBKN0hfA8BTQj2pwbqHfwKApwNA9agbU0PS9xwAAAA6gxmyrqh7+Lc9AJT2RaPFV0pfA8Bba/+6kj8nAPgnAIQ3ZH5pBp4+XfreAwAAgLfpeuWlZsj6tVwAOKJIXwPAU5SupNLQ8E8A6IAAkE7oG1Ka9L0HAAAAbzND1nUNDf92BgDVuts0+S+1gLqpPb+vb+0fAaDjAgBrAQEAANCK2GTptTMha79UAJgJlUalrwHgKUrXodmGh38CQKcEgIS+MX2T9D0IAAAAb4qHrM82PPzbFwD+86STKqukrwHgGfra9FvUrkP1rf0jAHRkAKiuBVR6kxdJ34sAAADwlplQ6T1xxTooFQCu00sXS18DwFPU7tRXmhr+CQCdEwCWvhDwG9L3IgAAALykssoMlb7b1PBvRwBQy7dKXwHAU5SuZF/Twz8BoMMCQPULAdPD0vckAAAAvGG3Ym02Q6WEUAB4MqaU3yh9DQDPmO2tnKJ0JX9KACAAsBYQAAAAjZidrJxhhkr3SgWAuFr+W+lrAHiKetmhyZaGfwJABwaA6v9bqbD0vQkAAID2Fp9a3L00/EsEgNJDuyfnXyF9DQDP0C8pvFztTj5IACAAHOcLAR9lLSAAAACWc51e+ouZ0OJ+qQAwEyp9QPoaAJ6idD37kZaHfwJAZwaA6qcANqQ/IX2PAgAAoD2ZocO3/mn4dz0A/ELXK6dKXwPAMz7Q8/vXqd3JJwgABIATfAqAtYAAAAA4Riy00H308O9uAIiri0PS1wDwFLU7dYstwz8BoHMDwNJGgG9XV7tI368AAABoD8Hg3tVmaPEOwQDwHd6fAg1QLv3DO5TuQ3ME/5YYXwAAIABJREFUAAJAfREgx1pAAAAA1MSVxSuPHf7dCQBx1TpoKqX3SV8DwFPUruSXbBv+CQAdHwC0Den7JnsrZ0jftwAAAJBlXl05O66UfisYAG6RvgaAp4QvPXSZrcM/AaDjA0AtAmxM6dL3LgAAAGSZU6W/P/7w70YAKD++5wPW66SvAeAhlVVq16HvEgAIAI0GANYCAgAA+Nt1oSMXmKHSU4IB4HrpawB4itKV7LN9+CcA+CMA1E7yZul7GAAAADLM0OKXlh/+HQ8ADyhK9izpawB4iiP/7T8BwD8BYGN6TluXvFD6PgYAAIC7zNDh3hMP/84GgBmtfJX0NQA8Rb0k2eXI8E8A8E8AYC0gAACA7+h65VRzavFnYgFALf0oGKyslr4OgKcolyW/SAAgALQaAJ7fCjAifT8DAADAHdOhhZA5tdLw70wAqK79i2vWJdLXAPCUqUv/cL7SdWiOAEAAsCkAsBYQAADAB/aolXPiU6V9UgHADC2y9g9olHLpob9RLnNo+CcA+C4A1P4UYGOWtYAAAAAdzgwtfrw2/AsEgLhiPRpXF8+TvgaAp1T/Xka57NADBAACgJ0BgLWAAAAAnc0MHX63OVWaEwsAoZIqfQ0Az1EuO7SxNvwTAAgAdgaApcNaQAAAgA4Vn1r85gvDv9sBQLXung1WTpO+BoDnhC47dAsBgADgSADYmJ5TepMXSd/jAAAAsNdMqDR61PDvcgCIa89NSF8DwKMf/0/tIwAQABz6BEA1AtzOWkAAAIDOMTtZOcOcLN0rGAB+MjtbOVn6OgCeo/dkLn5h+CcAEACcCAC1CJAZlb7XAQAAYI/4pBU5Zvh3MQDE1SMh6WsAeJJyWdIkABAAnA8A6Xsme59hLSAAAIDH6XrlVHNq8QGxAKCWD5ihw3zRNNAMpSv5ZQIAAcDxALAhndA2pCLS9zsAAABaEw0VLzju8O9aACj9SPoaAB5VWaV2JR8kABAA3AgA4Q2p/bHe9Gul73oAAAA0b+aa+TfLBoDybdLXAPAktef35xw1/BMACACOBoB0QtuY+aT0fQ8AAIDmzc5WTjGnSv8tFQDiavnz0tcA8KRQ16F3EwAIAG4GgOpawEhvnrWAAAAAHhafPKwLfgngd6R/fsCTQpce6iUAEABcDQDV05thLSAAAICHTU4+c4Y5VbpHJgCUH58NVk6TvgaA5yhdzw4TAAgA7geAdELdmBmTvv8BAADQvPhUaUxqDaCpHOmT/vkBz1G7D40RAAgAEgEg3Ju+l7WAAAAAXlZZZYZK3xYJAGrpC9I/PeA5/AkAAUAwACT03nRU+jUAAACA5k1PLf5VfKp00O0AEFetg3Hlf/heKaARyqV/eB8BgAAgFQC03vRjan/qPOnXAQAAAJo3M7n4aff/BKD6KQDru7OzlZOlf37AM65Zk3wNAYAAIBUAap8C2Jj5lPTrAAAAAM2Lq4vnmaHFx1wPAEsrAa+R/vkBT1EuS+0jABAApAJAuDd9UN9Y+Cvp1wEAAACaNzN1OCYRAEzVemK3+ty7pH9+wDPUrtTXCQAEAMEAUP0ugG+zFhAAAMC7ZicrZ8SnSve5HgCWzk9mZyunSF8DwBNClyanCQAEAMkAUIsAG5Lj0q8FAAAANG86tDAhFAASplK+VvrnBzxB70n9FQGAACAdAFgLCMiYPalyshnInd1uR99W+ovolvz5bXXGixfENuUvdPTsaPxMb11YI3KCy5+Z4GL/9PbiSFNnpzMnsqMwEQsWd7bbmdl1WJ3eeVg75ly1EJrZtTBqBp4+Xfr3BNDgWsDvSgSAuFL63e7J+VdIXwHAE5RLkz8nABAAhANAIrwxHZN+LcA/pgcWztUDhU2RkbymD+euM4ZzN0QC+U8aI/nPGyP5r0ZG8t83RnI/N4ZzvzFG8g/VTqDFM5rfbwTyiWPOqANnfLlTaO1MLH8irZxNDp3N9Z75xs4Wh862xk6s3rO92VNc/uxw6Fzh0Anac6aDC0efnQ6dK5dO7MrirPTvS6ARM6HSe+JK6aD7nwCofh9A+Qbpnx/w3p8BEAAIAEIBgLWAcFNkJP8NYySfaOgEHDoEAAIAAYAAsFwA2Fm8Wvr3JdAoM7R4i0wAsA6Y+pG3SP/8QNvTL3n2DeplyYMEAAKA6CcAaifzaenXA/zBCBRuIAAQAAgABIC2DgC7Fn61J1h5ifTvS6BRscnSa2dCi/tdDwBLnwL4kvTPD3iC0pX8NgGAACAfANIH1fWpv5Z+PaDzVT9tYgznHiMAEAAIAASAtg0AV85vk/5dCTTLDFnTIgGgekLlXumfH2h76iXPDhEACABtEAAS2sb0d1kLCDcYgWyMAEAAIAAQANo0APxgdrZysvTvSaBZk5PPnGGGSveKBADF+ilrAYEVVVaplyV/RAAgAEgHgKXvA0hOSL8i0PmqmyeMkfw9BAACAAGAANB+AaB4qfTvSKBVuxVrs1AAYC0gUA+tK7WFAEAAaIcAEN6Yvn9Pz+/5u0c4Th/JjBMACAAEAAJAOwWA2M7irdK/GwF7VFbFQ9btMgGg9FA0Wnyl9BUA2tpsb+UUtSt5NwGAACAeAKqfAtiQnpZ+TcAPKquMkdy3CAAEAAIAAaBNAsCT8WD5DdK/GQHn1gK6FQCsxIxS/qj0zw+0vdBlyZ0EAAJAOwSAcG9qv9q/yFpAOC4ylL/ICOTmCAAEAAIAAUA6AMR2LnxQ+nciYLd4aPEzEgGguhZwj3rkrdI/P9DWgsG9q5Xu5A8JAAQA+QBQ/S6A1D9KvybgD8ZI4VMEAAIAAYAAIBkAYruKDyibs2dJ/z4E7BZXK+f9aS2giwFg6XxN+ucH2l6oO9lNACAAtEMAqK4F1DdkLpZ+TaDzTQ8snGuM5B8mABAACAAEAKkAMLOrGJT+XQg4xVQsUygAsBYQqIfalfwCAYAA0AYBoHr+k7WAcIM+ko8QAAgABAACgEQAiO08/JNgsLJa+vcg4JTZycoZ8VDpPpEAoFi/0PXKqdLXAGhrWlfyzUrXoacIAASANggACa03w1pAOM4MPH26MZy/mwBAACAAEADcDgAzOw+vk/4dCDhtRjm8VSgAJGZCpQ9I//xA21MvO3QDAYAA0A4BgLWAcEtkKD9KACAAEAAIAG4GgNiuhdukf/cB7qisiiul70kEAFMp7WMtILACsyt3ttqdfJAAQAAQDwC96YR+OWsB4Q5jOP9NAgABgABAAHAjAMR2LTxl7Jp/k/TvPcAtuydL740r1kH3A4CViIdK/yD98wNtL9R16AMEAAJAOwSAcG96v7I2+5fSrwl0vuhY7l3HXQtIACAAEAAIAHZ/AmDX4Q9L/84D3BYPWZ+VCACmWj4wrS28XfrnB9rabG/lFLUr+TMCAAGgDQJAIrwxc4v0awL+YAznbyYAEAAIAAQAZwNA8aHdW+ZfIf37DnBbbLL02pmQtd/1AFCLANbXpX9+oO0pXck+AgABoC0CQG+GtYCQWwtIACAAEAAIADYGgNjO4tXSv+sAKfEpa7dIAFCsxLS6eLn0zw+0PbU79RUCAAGgDQJAIrwx+/3ZkyonS78m0PmigbxOACAAEAAIAI4EgF2H76x+ylL69xwgRdcrL40r1q8kAsCMat01G6ycJn0NgLamXJp9h9qVOkAAIACIB4DeTELfmN0k/ZpA5wsG504zRvJ3EQAIAAQAAoDdAWBm1+EN0r/jAGnxkLVNIgDUvhBQLU1K//xA21O6kjcRAAgA7RAAwhszrAWEKyIj+RECAAGAAEAAsDMAxHYd/pr07zagHczOVk42Q6W9EgGAtYBAHdSe4jlKV/JhAgABQDwA1E5uRvo1AX+IjOS/QQAgABAACAC2BIBdhw/Er1p4m/TvNaBdmErpfXWtBVQc+RQAawGBlYS6D+kEAAJAewSALGsB4Qp9OPvO2lpAAgABgABAAGgxAMR2Hv6o9O80oN3MKKXPSQQAU2MtILAi861Pn652Je8mABAA5ANAJqFdnvmM9GsC/hAZyX+CAEAAIAAQAFoJALGdC/ui7+cjx8CLmZr1ejNUftz9AMBaQKAuoe5DowQAAkA7BADWAsIte4aL5xij+YcJAAQAAgABoOkAsGthSvp3GdCuzJB1nUgAqB5lsU/65wfaXqjr0O0EAAJAGwSAhNab+S/WAsINxmg+TAAgABAACABNBoC7gqwdA064FtAMWb+WCACsBQTqoPek/krtTh4kABAApAPA0p8CZLdIvybQ+fRLKqcagdwvCAAEAAIAAaDRADBz5WK/9O8woN3FFWuHyCcAqhFAK/EJHWAloe5DtxAACADtEABYCwi36IHcMAGAAEAAIAA0FgAO8zfGQN1rAct7JQKAqZYfnp6unCt9DYC2pnanzlO7Du0nABAAxANA9VMAfWlT+jUBfzBG818lABAACAAEgDoDwFzsysULpX9vAV4xPVW6+LhrAZ0OALUIUPqY9M8PtD21OxknABAA2iEAhC/P7lcGWQsIt9YCFg4QAAgABAACQB0B4Cbp31mA15ih8q0iAUArH9itLLxD+ucH2pr+/7N3p2FylXXC/xMWjQKiuICOwDyogyIzIgjdXdXQ2buT7uypztJ7nVOn9qoEZNRhtMEZYUQdEHXG9dERxhmDiguoKIoCshMISeqFb7j+82Bq37c4b+p/VQeRSNJd3V11fnfV+X6u67xxmcmpOvct55tT53fFH16vXRX9DQGAACAfABIRoy/xWek1AWtwD6Q/SQAgABAACACzj/0rPBV0FN4qvV8B7eaEYwFNCQCMBQQaol8Z20IAIACoEADqh74ieYX0moA1xgJ6BtJPEAAIAAQAAsBJA4Cj4JLeq4B2FXRWrhUJAPXDqDIWEJhNfQSb1hXdRwAgACgRABgLCJO4B1IaAYAAQAAgAJzw5n9H4RfBgd+/VnqfAtrVdaO1M44bC2hiAGAsINCAye4/XD7rWEACAAHApABw7KcAsc3SawKWGQv4MwIAAYAAQAB49VHql96jgHYXmKw4RJ4A0MsRv1aakj5/QHnaVUfuIAAQAFQIAPryxMO+vviZ0msCnc/bn1pNACAAEAAIAMcdOwrfWbKktlR6fwI6YSxgyFm5WyIA1McCXmsU3iL9GQBKm/zQi+drXdHnCAAEAOkAMPMUwPJESHpNwBqM/vTXCQAEAAIAAeDYzX/+sN9R/FvpfQnoFL6pcpdIAKj/FEAvTUufP6A8/ar49QQAAoAKAcC1PPmse2Xqr6TXBDqfpz9/8aLGAhIACAAEgM4JAMP5W6T3JKDTBKdKX5AIAIwFBBpQf+xauyr6MAGAACAfABIR14rk56TXBKzBvS59IwGAAEAAsHoAKOzfM1J6u/R+BHQa72T6/KBWfs78AFCOhFyMBQTmpF8V20UAIAAoEQAYC4h2GAtIACAAEAA6IgB4h3M+6b0I6FQBZ+l6iQBQP/bo1ZXS5w8ozeHYd6p2VfRHBAACgAoBwLU88X3GAsIMnoGUkwBAACAAWDMA+IYLD+511F4nvQ8BHT0W0Fl+SCIAMBYQaIB+VaybAEAAUCQARPRrYluk1wQsMxbwpwQAAgABwHoBwDuc3yC9BwGdLqxVdkgEgJmfAmhVxgICc9GuOvJVAgABQIkAwFhAmMSzLruSAEAAIABYKwD4duS/Vx9XJr3/AFZ4yjioVe6RCABBvfQUYwGBOUx9KHaR86ojzxMACADSAeClIyy9JmAN7oHU1wgABAACgEUCQH3s33Dpcul9B7CKcH0soEgAKEeCWvlG6fMHlDfVdeTjBAACgBoBgLGAMIcxkHuXeyDV+FhAAgABgADQxgGg8FnpPQewmqBW+pJIAJgZC3iUsYDAbIwrMmc7u448RgAgAMgHgPpPAZL/Kr0mYA2egdQ0AYAAQADo8AAwXHjW7SAsA2a7drLSnLGA8w4AjAUEGjLV9eIUAYAAoEIAqB9GX/JD0msCnU9b+z+NjwUkABAACADtGQAceX5aBggJaZW/lwgAMxHAWV0lff6A8m/GdnZFf0YAIACoEAAYCwizGOtSUwQAAgABoEMDwHD+YZ+Dl8sCUq531s4KOcu/EwkAeoWxgMBcprpjqwkABABFAkBEX5liLCDUGQtIACAAEADaLgAEdhS2Su8xgNUF9MouiQAwc7iqTunzB5SndR35BgGAAKBEAGAsIEziXZ9dQQAgABAAOisA+Bz5H9THkUnvL4DV1ddhyFn5oUgAYCwgMDejJ/leZ/eRQwQAAoB0AJiJAH2JPdJrAtbgGch8lQBAACAAdE4A8DvyPdL7CoAmjAVcVACojwWsMhYQmMtU15FPEQAIACoEANfy5HPG6swF0msCnW/OsYAEAAIAAaB9AsBw4fPSewqA44WclX+TCQDlQz69+H7p8weUNnbli292dkWfJAAQAOQDQP2I3ya9JmAN7oHUJwgABAACQNsHgAO+rZkLpfcTAMcLGZULgs7yAdMDAGMBgcY4u494CAAEADUCQCLiuiZ5pfSaQOczVmfO9gykHiUAEAAIAO0cALLXS+8lAE4spFU+KhEA6kfAVVwtff6A0ib6XlimdR15gABAAFAiACxP/ICxgDCDZyA1QQAgABAA2jYAPFIfOya9jwA4sWCw9oZ5jwVsUgBgLCDQgKmeF4cIAAQARQJAxFiRYpwTWm66r3aaZ13mPgIAAYAA0H4BwOvI7ZDeQwDMLugsjkgEgGMRoKRJnz+guNpSrSt6FwGAAKBCAHD1JR5hLCDM4O5PLicAEAAIAO0VALyO3E8cjhpj/4A2GAsY1Eo/kggA9bGAwanCW6U/A0BpU1fFP6B1Rw8TAAgA4gGgfqxI7JVeE7AGYyB1/FhAAgABgACgdADwOTK90vsGgMYE9XK3TACoPwVQvkn6/AHlObujnyUAEACUCADLEwcYCwgzeAdzF7kHUs8TAAgABIA2CADD+X+X3jMAzE/QWfqyRABgLCDQAK0rdq7eFd1PACAAKBAAInpf/HbpNQFrMPpT/0gAIAAQAJQPAAd9jty7pfcLAPPjncpdFHSWnzc9ABw7viV9/oDy9O7YHgIAAUCFAMBYQJglOJB6w8tjAQkABAACgKoB4B+k9woACxNwlv5BKABEQlpxjfT5A0ozrvjD6/Wu2G8JAAQAJQLA8sQP6i+RkV4X6Hye9ZkxAgABgACgZgDwOnKPhzdl3yi9TwBY+FjAoFZ+VCQAGJX7g8Hfv1b6MwCU5uqKbyMAEAAUCQAR1/L4Nuk1gc5Xf6u4e13qxwQAAgABQMUAkB+V3iMALE5Iq4xKBICgqxwJGiVd+vwBpU0vqZ2idcfuJgAQAJQIAH2JR5y25FnS6wKdz1ifuYYAQAAgAKgVALyO3H3TfbXTpPcHAIsP7QFn6cciAcDFWEBgTlp39CoCAAFAiQBQfyHg8sS10msC1uBel/oKAYAAQABQJwD4t2WXS+8LAJoj7KxcIxMA6k8BlD8pff6A8rSu2BcJAAQAFQKAa3nyucmrXzxfek3AImMB16UOEgAIAAQA+QDgHc59Q3pPANBcQa3yVZEA4KocDBhH3yt9/oDSvB9Kn693x54jABAA5ANAImKsSH5eek3AGtwDqRsIAAQAAoB0AMgf9O/I/430fgCgufZMVU88FrDlAaAcCbnKdy1ZUlsq/RkAStO74h8hABAAVAgAMxFgVbpHek3AImMB16UeJQAQAAgAcgHA68h9QnovANAaAWflHyUCwEsvBFwrff6A0oJXpd6gd0UfJQAQAFQIAK4VjAWEOdyDmRECAAGAACAUAIbzT2iO3DnS+wCA1ghPZN8YdJYelwgA9bGA047aa6Q/A0BpendshABAAFAkAET0lfHt0msCVhkLmP4RAYAAQAAwPwB4t2enpPcAAK0V0koTIk8AMBYQmFv9b1z17uiPCAAEABUCgGsFYwFhDmMo3UMAIAAQAMwOANn7HfztHNDxpqdrpwWd5ftEAgBjAYG56VfFugkABABFAkDEWJm8TnpNwBo861JfJgAQAAgA5gWAgKO4UnrdAzBH0FlcIRMAZo5/kj5/QHl6V/TLBAACgAoBwLUiccC5InOh9JpA5/MOxi5yr089TwAgABAAWh8AvMOFb0qveQBCYwHNDwCHQs7ipdLnDyht6kOxi7Su6PMEAAKAAgEg4lqZuEN6TcAa3OtSHyMAEAAIAK0NAF5H7pDbUbhEer0DMFfQqL4rqJUPCgQAxgICjdC7Y/9AACAAKBEAZo64TXpNwBpjAd3rUr8jABAACACtDAD5G6XXOgAZQa30CYkAcOyFgFXGAgJzjQXUumK/IwAQAFQIAPqKxD2MBYQZPOsyuwkABAACQGsCgNeRf8rYVXiL9DoHIMMwameHtNJjIgHAVf5FMPj710p/BkB7jgUkABAATH8CYCYCDEuvCXS+emjyrEv/kABAACAAtCIAZDXpNQ5All8rTQkFgEhAL7mkzx9Qfj72CccCEgAIAAIBgLGAMItnINVNACAAEACaHQDyjP0DUH8K4PSgVv6pRAAIucpPMxYQmIPTFushABAAFAkAEdeK5Iel1wSswb0+828EAAIAAaB5AcDvyK2RXtcA1LBHr66UCAAzEUAv/7P0+QPK07ujXyEAEADUCACMBYQ5jKHMBZ516ecIAAQAAkATAsBw7lvSaxqAWkJ6+WsSAYCxgMBCxgISAAgAcgGg/i6AL0ivCViDMZj+CAGAAEAAWFwAqI/9821Lv196PQNQcCyg3sSxgI0HgEjQKP8nYwGBOWhdsRsIAAQAFQIAYwFhFufG5FnzGgtIACAAEABeHQCG85+UXssA1BTUyjeKBABXObKHsYDA3GMB9a7oowQAAoAaASDx4/pLKqXXBTqfe316FwGAAEAAWNhRH/sXdPDCLQAntlfLnRPSK09IBIAwYwGBuWldsVECAAFAkQAQ0VekGQsItcYCEgAIAASAv3gCIMvILQCzCrqqTokAEDr2QkBD+vwB9ccCdsV+TAAgAKgQAFwrkowFhCl86/NdBAACAAFg3n/7/4vgAH+7BmDusYAhvfwziQAQdlUYCwjMxdmTuIYAQABQIwDUnwKIXy+9JmANxrrUlwgABAACQOOHfzjXL71uAbSHgKu4WuQJAFeFsYBAI7Tu6FcJAAQAFQJAfSyguy/619JrAp3Puyl9/pxjAQkABAACwEuP/ud5wzaAeQlq5a+LBABX5VDI80fGAgKz8fbGLtJ6os8TAAgACgSA+vFF6TUBa/CsT19PACAAEADmePR/e+6QZ5gZ2wDmJ+w8enFQrxwUCACRsFElWgJz0WyxGwgABABFAkBEWx63S68JdD5fX/xM97rUQwQAAgABYLYAkP2U9FoF0J5CevkmiQAwEwH0Kj9bAuYcC9gdfZQAQABQIQC4ViR/wlhAmMFYl95BACAAEABO9uh/7mnPluLbpNcpgPa0V6stfCzgIgNASC//enqitkz6MwCUpnfHxwkABAA1AkAiYixP7JBeE7DGWED3+vQ9BAACAAHghIdbeo0CaG9BraSLBID6YVQZCwjMORawp4ljAQkABIBFBADGAsIsxvrUiccCEgAIANYOAL+e4G/PAEiNBWxCAKiPBfR4eIoJmJWr+0gfAYAAoEYASESMFUnGAsIU7vWpLxIACAAEgD8fnm35ddLrEkBnCDpLa0WeAJiJAGXeYwKYNhaQAEAAWGQAYCwgzOJde4KxgAQAAoBFA4B3e/47vEEbQDMFtfJ/SAQAxgICZo4FJAAQABYfACL6isSXpNcErMFYnzx+LCABgABgxQDgyB32O4p/K70eAXSWgHH0vfMaC9i8ABAJuapETWAuek/sHwkABAAVAsDMTwH64r3SawKdb3RN9IzjxgISAAgAFgwAXkf+Fum1CKAzBbXyP8kEgEokaFQHpM8fUJpxRebsRY8FJAAQAJoUABgLCLO416eHCQAEAOsGgPx+Y0vp7dLrEEDnjgUMapUnJQIAYwGBBmjdRyYIAAQANQJAIuJamdgpvSbQ+aaX1E7xrE/fTQAgAFgxAHi353zSaxBAZwvpZUMkAMy8ELDKaFNgNtN9tdP0nth9BAACgAoBwFiReMxYnTlbel2g87kHU1cRAAgAVgsA3u25B/c6aq+TXn8AOn8sYFAr/1wmADAWEJiT1hVdTgAgACgSACLGyuRHpNcErMG9Ln0HAYAAYKUA4N+WH5Jed7CWPSOltwdGi98KjBWf9I8VvnC9s3aW9J8J5gjr1X6JADBzGNWbpc8fUJ7WE/s6AYAAoEQAYCwgTOLdlD7fsz79HAGAAGCFAODdlv8v3pANc9WW+kcLdwZGi5E/Hf6x/Kel/1QwS21pUC/fKRMA6mMBi4wFBOYaC6h3xw4SAAgACgSAiLEixVhAmMIzmL6OAEAA6PgAUB/7tyV7ufR6g7UER0sDr7z5nznGioeDY9kPSv/ZYI6wdvR9Qa18SCAA1J8CYCwgMBetJ/ZxAgABQI0AwFhAmDgWcDD1WwIAAaCTA4DXkbtVeq3Ber8BD4wW7n9VABgtRoJjBW7MLCSolT8lEwDq7wM4uk76/AHlxwJqPdHHCAAEACUCwIr4vYwFhBncg6ntBAACQOcGgPx+/87yO6TXGawlMFZwnejmf+YYr/8UoNQv/WeEOfz+2ptPOhawxQEgZJQfZCwgMAe9KzpJACAAqBEAEhH3isQu6TUBC40FJAAQADowAPgdOb/0GoMF58CPFp+YLQAExku/cDhqr5H+s8IcIb3skQkAMz8F8EifP6D8WECtJ/ZTAgABQIUAYKxMPDbRl32j9LpA5zOGEpd7BtOHCQAEgM4KAHnG/sF0gdHiTSe9+X85ANR/ClBySv9ZYY5g8PevDWrlX8oEgMr+D/tq50l/BoDSDFtyBQGAAKBIAKj/FOCj0msC1uBZn76dAEAA6KQA4HHkN0qvK1hLcLz6rsBY4WAjASAwXnzKP5Z/s/SfGeYIaaX1QgGAsYBAI/Se6NdvC+e1AAAgAElEQVQIAAQAJQLAysRBX1/83dJrAp1PH0i90z2YfpYAQADokADwvenp2inS6wrWEhgrfm3Wm//jA0AkMFb4uPSfGeZ51VhAkwJA2Kgc3mv88W+lzx9QmmGLv6uhsYAEAAJA6wNA/fg36TUBa3CvT+0lABAA2j4A1Mf+DZcY+wdTeceLK+a8+f/LADBeOhiazL9H+s8OcwSnCpccNxbQtCcAGAsINETrjn2CAEAAUCQARIzVGcYCouWMoT+8/thYQAIAAaCNA8D23Gek1xKspT61JzBa+Mn8A0D9XQDFL0v/+WGeoF6+RSYAVCIhd2m99PkD7T8WkABAADArAKyM31t/SaX0ukDnM9anthIACADtGwAY+wfzBcdKYw3d/J8gANQP31iByG8RIa14blArPyMSABgLCMxN64lOEQAIAGoEgPq/ltwtvSZgjbGA7sHMPgIAAaAdA4B3ey4ovYZgLcGR2hsCo8VHFxMAAuPFn9SfIpA+F5gj4Cr7ZAJA/X0AZa/0+QNKM66onT7rWEACAAHAzACwMvE4YwFhBs9A4oOewcxhAgABoJ0CgNeRe/i60egZ0usH1hIYKfxDwzf/Jw0ApYhvvDgsfS4wx8TEC8uCevkBiQBQHwu4xyi9XfozAJSm90RXEgAIAIoEgIh7Vfxj0msC1uBen76NAEAAaKcA4Hdkt0ivG1hLYDT7fwKjheebEQD8Y8VHfI74mdLnBHP49dKQUACIhI3qLdLnD7TvWEACAAHA5ADAWECYxbe+dJ57ML2fAEAAaJMA8H3G/sFsgbHiv83r5n+WAPBSBNgjfU4wS21pwFW+SyYAMBYQWPhYQAIAAcD8ABAxViV4YzBMYQym9hAACADtEAD823Ifkl4vsJbwaLlr3jf/cwSAwHj5Wb+Tl1hahU8vvj/oKh8yOwAwFhBokNYTvZEAQABQIgAwFhCmjgXM/oYAQABQOQB4t+f+VXqtwFocjn2nBseK9zQ/AJQiwfHyrdLnB/ME9fKnZQJAJRIwSoPS5w8oTev+n3P0ntgTBAACgBIBgLGAMIl7MLWFAEAAUDgAPOfdUTlfep3AWnwjxeEF3fw3EAAC46XD/pHs5dLnCBPHAurlZyQCQH0s4N69tddJfwaA0rSe+PFjAQkABACxAJCI6KtiI9JrAlYZC5ie31hAAgABwKQA4Nme5TfTMFV90oR/rPhQCwNA/fgvHs+2jqBR9ssEgPp/vuyTPn+gvcYCEgAIAIIBgLGAMIu+PnvZvMYCEgAIACYEgPrYP96aDrMFx4rXLvjmv/EAUD/WSZ8rTBwL6Cr/SiIAhI0qYwGBuTh7YqsIAAQARQJA/fgH6TUBa3APZj5HACAAKBUAthW2Sq8LWEtwJPXOwFjxWTMCQHC89MvgwO9fK33OMEfQKG8QeQKgfrir/yJ9/oDytJ7Y1wkABABFAgBjAaHeWEACAAGgxQHA68j9gLF/MFtgtHDbom7+5/cEQMQ/XtKlzxlmqS0NzTEWsFUBgLGAQAO07vi7Z8YCEgAIAPIBoP5CwG9IrwlYg2d9JkQAIAAoEQCGc1dKrwdYi2936bLAWPGwmQEgMF566tpdhbdInzvMEXCXPhBylQ+b/gTAsZ8C8N4JYC5aT/xGAgABQI0AkIh4Viaull4T6HwTfbVl7sH0rwkABADhAHC79FqA1dSWBsaK+xZ98z//ABAJjpU+IX32ME/IVb5VIgDMHHppSPr8AaVp3blzdFv8CQIAAUCFAOBemWQsIExhrMtuJgAQAMQCwNbcAd/WzIXS6wDWEhwrbGrKzf8CAkBgvHwwNJl/j/RnAHOEtNpJxwK2PAAwFhCYm6sn6iQAEABUCADHjuSo9JqAFdSWegYz3yUAEAAkAoB3a/5a6RUA672h3T9W+JVcAChFAmPFr0h/DjBPyFUOyASASqQ+klD6/AHlxwLqttjPCAAEADUCQOJxb+//9ybpdYHON+dYQAIAAaAFAcC7LfeIc2PyLOnrH9YSHC36m3bzv9AAMF6K+MYKvdKfBWTHApoRABgLCDTA1RtbTQAgACgSACKulYkbpNcErMEzmPkMAYAAYGoA2J5zSF/3sJbQzuK5gbHCMyoEAP9Y8V6Ho3aq9GcCcwT18iaJAPDSUwCflj5/QHmaLfZ1AgABQIUAUB8L6F6d4LeCaLnQhuK57vXpZwgABACTAsA9Dsc+bn5gqsBY8V+aevO/iAAw80LA8cqw9GcCM8cClr4rEQDqYwH3GKXLpT8BQGlOW/Ji3RZvzlhAAgABYHEBgLGAMI17MBMgABAAzAgA3m15m/T1DmvxjhXeFxgtHFIpAPjHio84nfwMxirCeumyV44FNCsAMBYQaJBuj99EACAAqBEAZv7710ivCXS+ib4X6mMBf0UAIAC0NgDk75C+1mE9/tHCnU2/+V9kAHhpKsBe6c8G5gka5c9KBICZw3OUsYCAKWMBCQAEgCYEAMYCwiyewcxGAgABoGUBgLF/EOAfK/W35Oa/GQFgrHTAO1k5X/ozgnljAQOu8n6RAGBUGAsIzEWzxXQCAAFAhQAw80LAFckx6TUBK6gt9azP3kUAIAC0JgBkr5e+wmEthlE7PTBS+LmyAWDmXQClz0p/TjBPwCiHhAJAZI9RZSwg0PKxgAQAAkCTAgBjAWEW92DmA8eNBSQAEACaEwAeuX5jjd87w1T+kYIeGGnRzX+TAkBgvHTYP8lL2qzCMGqvD+nl30gEAMYCAg3Q7LE1BAACgCIBIOJemWIsIEzhHszcSgAgADQzAHgduR3S1zWsZa9WOyc4UnyiDQJAxD9e+m9e0mYdIb28RSIAzByu8q3S5w8oT7fFvkEAIACoEACMlcmD+qrE30ivCXQ+bUPsz2MBCQAEgEUGAO/W3E+YeQ6zBUeKN87c/LdBAKgfvrHSeunPDOaYnq6dEtZL+yQCwLGxgH/kiROgZWMBCQAEgKYGgETEtTLxf6XXBKzBM5TxEwAIAM0IAO6tabv09QxrCY5X3xUYKRxspwAQGCv9enqitkz6s4M5gs7SB8OuymHTnwA49hQAT5wAc9Ft8U8SAAgAKgSAmQiwPNEnvSZgkbGA6zMPEAAIAIsLANkvSV/LsJ7AaPFrL9/8t0sAmIkABZf0ZwfzhFyV20QCwMwLAY9ukD5/QGn+K/Nv1myxJwkABAAVAoCxMnkfYwFhBs+6zBABgACw0ADg3ZZ73r0p+9fS1zGsJThW6Dvu5r+dAsB46cn6uwukP0OYI6iX3xlyVZ+VCAAho/wgT5wArRgLSAAgALQkACQi7lWpcek1ASuoLfUMpe8iABAAFhQAthf+XvoKhrXU3zURGCn+uI0DQCQwXpiW/hxhnrBxdI9IAHBXIns8jAUEmj8WkABAAGhRADBWJh/39uYYC4iW0zek3+8ezBwiABAA5hkAHjMcmbOlr19YS2CkOPqqm/+2CwDlg/6xPC/8tdJYQFf1txIBIOyu7vf7y++Q/gwApTl7YqsIAAQARQJAxFiV+kfpNQFr8AxlPk0AIADMMwDskr5uYS3BkdobAiPFR9s/AJQigYkiL/y1kJCrvE0iABw7qowFBOai26NfIwAQAJQIACtTjAWEeWMBB9PPEAAIAA0e9/KeEpjNv7vwsRPe/LdlAChFApOVq6U/U5g4FtCo7pMIAGEPYwGBORm2+Lt0W6yxsYAEAAJASwNA/SmA5Del1wSswT2U8REACAANHY5Cr/T1CmvxTlbOD4wUDnRSAPCPF++tv9NA+rOFOfYYpctPOBaw5U8AVCIhT/XueoSQ/gwApWm22CcIAAQARQJAxL0quVx6TcAiYwEHjx8LSAAgALzq2Jr/d+lrFdYTHC1+6aQ3/20aAGYiwERxp/RnC/OE9ertIgGg/kJAxgICszOuyJyt90QfJQAQAFQIAMaq5P0Ox6HXSK8LdD5jfWaQAEAAmOU46HPk3i19ncJafKP5rllv/ts4AATHS484ncmzpD9jCI4FNCkAhDyVB/furb1O+jMAlKbb4+MEAAKAIgGg/kLACek1AeuNBSQAEACOH/uX+5j0FQprqT+2HBgpfq9TA8BMBJgsXiv9OcM8Yb1yrUgAOPZCwID0+QNKq/8uS7fFfkwAIACoEQCSTzAWEGZwb0xd8qexgAQAAsDLN/9bc4+HN2XfKH19wloCu4uOOW/+2zwABCZKB+rvOJD+rGGO60ZrZxw3FtDEAMBYQKABTlushwBAAFAkANSfAvi49JqANbgHM7cQAAgAxx3bcyPS1yWs5brR6BmBkeJvLRAA6sfnpD9vmCdsVBwyTwDUpwJUPyN9/oDydFv0KwQAAoAiAYCxgDCFf3P+zZ6hzFMEAAIAY/8gJTBa3NvQzX9nBICIf7LEqDYL/bQl5KreLRMAGAsIzGmqN3aRZos+TwAgAMgHAMYCwjzGUNpDACAA1A/PtgLzymGq4EjqnYHR4rOWCgATpf+uv4dF+rOHOQJa+SqJAHDspwCV7zEWEJiD1hP9KAGAAKBIAKj/6yuk1wQ6X3Dg96/1DmV+SQCwfAD4v9LXIqwnsLtwW8M3/x0SAF46BqU/e5gn5KrcIREAjj0JUN4off6A0py25FmaLfY7AgABQIkAwFhAmMQzlF5HALByAMgfdG/Nv0f6OoS1+HaXLguMFg9bMgCMFx6cnqgtk/4OYI76yx9DRuU5iQDAWECgAa6e6E4CAAFAkQAQ0VemJqXXBKzBM5S+kwBgzQDg3Zq7Qfr6g9XUlgZGC9+d181/JwWAmZ8CFAzpbwHmCborHxYJAO5KJGhUg9LnDyjN4dh3qm6L30MAIACoEACM1akn/avyb5ZeF+h83vWp93kGM4cIANYKAPWxf95BRo/CXP6R/MZ53/x3WAAITBSfDk4V3ir9XcDEsYBG9SGJAMBYQKABU13RLgIAAUCJADATARLT0msC1uAdyn6KAGCxALA9Py593cFaJiZeWOYfKfyKAFCKBCfKN0p/HzDPHvcfhyUCAGMBgQbpttgXCAAEACUCwKrUQc+K5MXSawIWGQs4mHmSAGCNAODdlv25YdROl77uYC3+3UX/gm7+OzAABCbKB/1jecb+Wugp45BRvUcmAFQOh7z/e4X0ZwAobfLqF8/XemLPEgAIAPIBgLGAMI93Q84gAFgjAPi3ZZdLX2+wltDO4rmB0cIzBIBXvAtgvMj/vltI2Ch3SQQAxgICDdJtsWsJAAQARQJAxFiZZSwg1BsLSABoywDg3ZbjpgOm848Wb1nwzX+HBoD64RsvXCP93cA8IVflixIBYOaFgO7yJunzB5Q2+nfRM7Se2EMEAAKACgHAvTr5M+MKHtdF63kGc/0EgE4OAPmD/s08dgxz+XYW3x8YKRwiAJzwhYA/cThqp0p/RzCHz1m5MGxUDkgEgLC7+hvGAgJz0OzxrQQAAoAKAeDYCwHjU9JrAtbgHUx/mwDQmQHAuzX3CenrC9bjHy3cuaib/44OAPX/fHGX9HcE84SNo9dLBIBj7wMoh6TPH1Da9JLaKXpvdB8BgACgQgBwr0o9ZfQV3iK9LtD5Gh4LSABoswCQf7L+skfp6wvWEthdWrfom/8ODwDB8dIjTmfyLOnvCubw+eJnho3ywxIBIOSuPrvXXf4r6c8AUJpui1+m22OHCQAEAOkAUD9cq5KMDYIpPIPpfyYAdFYA8G7J8hQRTH+vSHCk8EsCQEM/BbhO+vuCeUKuyk6ZADDzU4DPSp8/oDzNHv0cAYAAoEIAYCwglBoLSABoowCQvd/hqL1G+rqCtfh3FzxNufm3RAAoHQiNVS6Q/s5g3ljAsFH5oUQAmDkYCwjMTuuKnavZY88QAAgA8gGgfqR5gzdM4R1Mzz4WkADQNgEgsKW4Uvp6grX4x/JvDowWnyQAzOddAKXbpL83mCds/G+XWABwV77PWEBgDpo9HiAAEADUCAD1FwImV0mvCXQ+w6id7h3K/JwA0N4BwLulQDSE6QIjxZubdvNvlQAwUYqEJsr8zayFhI3Kl4QCQCRslDdLnz+gtIm+F5Zp9tivCAAEABUCgHtV+n6H4xCP86LlvEO5tQSAdg4A+YOejfxsCObyjhXet+ixfxYNAIGJ0neXLKktlf4OYY5rvZXzFzwWcLEBwF1+uP5CQunPAFCa3psYIgAQAFQIAMeeAkjxQi+YwjOU/Q8CQHsGAO+WLC8Ohel8zRj7Z90AEPFPlYakv0OYJ2RUPioRAEKMBQQaUVuq2aN3EQAIACoEAMYCwiyBocJ7vUPZgwSA9goA3i35p4wh9giYP/bP3+ybf4sFgMB44cHpidoy6e8S5ggGa28IG9XfSQSAEGMBgblN9R65ROuNHSIAEACkA8BLPwXgb/dgCvdQ9pMEgPYKAL5teaf0dQPrjf3zjxR+SQBYZACoH5Nlt/T3CfME9cqITACoRELu8uekzx9Qnt4bu4UAQABQIQAYq5OH9BXp90uvCXS+vY7cOd6hzBMEgHYJAHnG/kFk7F/95p8A0IQAMFF8OjhVeKv0dwrzxgKGjMqPZAJAJbLHKH9I+jMAlOZflX+zZo89SQAgAIgHAMYCwkSeobROAGiPAODfklsjfb3AemP//LuLTxIAmhUA6v93yjdJf68wT9BT7pYKACHGAgJz03tjBgGAAKBGAEhGXKtSq6XXBKwxFtAzlPkZAUD5APAt6WsF1uMbKd7s333s5p8A0KQAMFE6FJwqXCL93cI8IaPyZaEAEAm5y1ukzx9QmuOSQ6/R7NGfEwAIACoEAMYCwizuDak1BAB1A4B3S/aQbxs/C4L5Y//8uwuHCABNDwAR/3iRp/wsZM9U7qKQUXleIgCEGQsIzM2wxdcSAAgAKgSAmQiwMqVJrwlYg2co83UCgKIBYGv2k9LXB6zHt7tw58zNPwGg6QGgfgSnCn3S3zHMEzIq/yDzBECl/hRAWPr8AeXptti3CAAEACUCwKrUU1MDR3hhEFrOszF/8cxYQAKAUgHAuyX7VNDBS8MgMPbvTzf/BIDWBIDx8r3T07XTpL9rmDcWMOSuPioTAKqMBQTm4rQlL9bt8YMEAAKAdAB46YWAvDAIpvBsyN5EAFArAPg2Z13S1wUsOPZvd+GXBIDWBoCZnwJMFndLf98wT8iojMoEgEok7Kn8q/T5A8rT7fGbCAAEACUCAGMBYeZYwA2ZJwgAagQA79bsL+o3Y9LXBSw49u+VN/8EgJYFgMB46THDyJwt/Z3DHA5H7dSQq/JjiQAQ8jAWEJiT1p07R7fHniAAEADEA8CxCMAbwGEKz8askwCgSADYllsrfT3AomP/CADmBIBjx/XS3zvMEzYq10gFgJCHsYDAnLTe6BQBgACgRAA49kJAZoDDlLGA3g2ZnxIAhAPAlux/LllSWyp9PcCiY/8IAGYGgAM+Z+VC6e8e5gkZla8KBYBIyH2UsYDAbIwraqdrvbGfEgAIAEoEgFXp+3kcGGbwDWVXEQDkAkB97J9nS/FS6esAFh77RwAwMwBEAhOF26W/f5hnj7d68rGALQ4AYQ9jAYE5OW3RFQQAAoAKAeDYTwESuvSagDV4N2S+RgAQCgBbs5+S/v5h8bF/BABzA8BkKRKaKF8hfQ3APGF35QaRJwA8MxFgj/T5A8rT7PGvEgAIACoEAPcaxgLCHMbm3Lu8GzLNGwtIAGgwAOSe9myJvk36+4fFx/4RAEwPAMGJEr/PtpCTjgU0IQCEvJXnQkblAunPAFCatzd3kWaPP08AIABIBwBjzcwLAT8pvSZgDe4N6RsJACYHgC05t/T3Dms54dg/AoDpAWAmAkyWN0hfDzBP2F0ZFwkAnpkIcJv0+QPK03oTNxAACABKBIA1yUOeNVF+H4yW09b+zzmeDenmjAUkAMwdALZkfj0xUVsm/b3DWk449o8AIBIAApOlB6fZA6w9FtCsAOBhLCAwp+BVqTfo9vijBAACgAIBIGKsSd3FG8JhBu9QaooAYE4A8GzLr5P+vmEtJx37RwCQCgAR/0TZI31dwDxhd3W5VAAIMRYQmJtuS44QAAgAagSA+hFnRjjaZywgAWDWAODdmv0OUQ/KjP0jAIgFgMBk8engVIF3/Vh1LKC5ASAS9h7dKn3+gNIcjn2navb4DwkABAAlAsDq5C8YCwgzeDdmVxAAWhoADvsdxb+V/p5hLbOO/SMACAaAUiQ4Vfwn6esD5o4FDBuVgyIBwMNYQGBOuj3WTQAgACgRANYkI/rqhEt6TcAaPBsyXyUAtCgAbMneLP39wnpmHftHABANAIHJ0iHfePH90tcIzBMyKh+XCAChmQhwlLGAwFx0e+JLBAACgAoBgLGAaJuxgASAkwSA3H6fo3Se9PcLa5lz7B8BQDoA1CcCfFP6OoF5PmLUzg4ZlcdkAkDlAGMBgTl4r06fr/cmniMAEACkA8BMBFid5FFBmMI7lPkEAaC5AcC7JeOT/l5hLQ2N/SMAiAeA+uEdL66Qvl5gnrBenZQIACFPJRL0VG6XPn9AeboteT0BgACgQgBgLCDMYjgyZ3uHMo8RAJoTALxbMg/uddReJ/29wloaGvtHAFAiAASmyvdNT9dOk75mYI76dx1yV34qEQBC9cNbvlL6MwCUNromeoZmjz9EACAAKBAA6mMB/5M3iMMMng2ZCQJAcwKAZ3NmSPr7hLU0PPaPAKBGAKj/FMBZGZG+bmCeoLe6QioABD2VH9RfeC79GQBK0+3RYQIAAUCNADATARgLiJab7qud5t2QuY8AsLgA4N2a/S+iHZQd+0cAUCcATBYfN4zM2dLXDswTcle+JvIEgKd+lLdJnz+gtOkltVM0e+JuAgABQIkAwFhAmMQ9mF1OAFhUADjs35K9XPp7hLXMa+wfAUChAFCKhCcq10tfPzBP0Ki+K+yuHBQKAI84ncmzpD8DQGmTV//hct0eP0wAIACIB4D6sTZpSK8JWMO8xwISAP4cALZkPi39/cF65jX2jwCgVAAITpYO+JyVC6WvIZgn5KlMywSASiTkO7pX+vwB5Wm90dsJAAQAFQIAYwFhFt+G3LvnNRaQAPDSkWHsH0znGy0NLPjmnwCgQgCoH5+Xvo5gnr17a+eEPdUnRAKAp/rsHqP0dunPAFCary9+nm6P7ScAEACkA8BLxz9LrwlYg2dj5h8JAPMLAP5tOb/09wZrWdDYPwKAigEg4neWPyR9PcE8IW91SiYAVCJhb/lT0ucPKE+3x/YQAAgAigSAQ+6VqUuk1wQ6X3hT9o2eDZnHCQCNBoAcY/9gOt9Iwb2om38CgDIBIDhZ2jc9XTtF+pqCOQyjdnrIXfm5TACoHtzjzV0k/RkASjOu+MPrtavjvyEAEAAUCACMBYRpPEOZMQJAYwHAuzW/Qfr7grUseOwfAUDVABAJO8sbpa8rmCdkVFdJBIBQ/fBW/0n6/AHlOXtjmwkABAA1AkAy4lmd7pdeE7DGWEDPhuy9BIA5bv63ZL5LlIPZ/LuLn1r0zT8BQKkAEJwsPDg9UVsmfW3BPCFP5ZsyAaDyXDBY4L1SwOxqS7Xe2HcJAAQAFQKAsTrx64k+/iEBrefbmLmGADDrwdg/tNfYPwKAwgGg/q8XfNLXF8wT9hy9OOyuHjQ9AHgqkbC75JI+f0B5ui1+mX51/DABgAAgHgBmxgKmGQsINcYCWjgAeLfkPiv9/cBqakv9uwt3NeXmnwCgXAAITRafDk7xN7NWEvJUb5IIACFP9V7pcwfagtYbu5UAQABQIgCsTj3tWRN9m/SaQOfzDuYu8mzIPE8AeNWL//b7NybfIf39wFoCu0vrmnbzTwBQLgC8FAGY+GMhix4L6Fn4sddXfbf0+QPK07pi52q98WcIAAQA8QCwJhlxr0kyygWmcA9lbiAAvOq3/0Hp7wXW0pSxfwQA5QNAcLJ0yDdefL/09QbzBD1VXSIAhLxVTfrcgbbg6o37CAAEABUCQH0soGdN+lLpNYHOFxxIvcGzIfMoAeBPN//Zh69bEz1D+nuBtfh3FzxNvfknAKgaACLBqfK3pK83mDsWMOyu/Mz8AFD5ivS5A21hou+FZfrV8QcIAAQABQJAfSzgd3gDOczg3ZAZJQC8FAA2ZTdLfx+wlqaN/SMAtEcAqB/O6grp6w7mCRqltWYHgLCn+jvp8wbahnZNYj0BgACgRgCYeSHggPSagFXGAmbutXoA8G7O3T09XTtF+vuAtTRt7B8BoH0CwFT5vunp2mnS1x7ME3JXvm/qEwCeSqT+DgLp8wbaRG2p3hv/bwIAAUCFAOBek3qg/mSK9KpA5/Nsylxt8QBw2Ls5d4X09wBr8QynL/Xvyjdn7B8BoH0CQP2YKPqlrz+YJ+Su3GZ2ANjj430TQMP03sQQAYAAoEIAqB+uNWm39JqANXiHMl+xagDwbs7cJv35w2pqS/0783f5d+Wbf/NPAFA/AEyWDwanKsPSVyFap/5E2UeM2tkhd3VNyF3Zb3oAcFfs0p8B0DYclxx6jdYbf5IAQABQIQAwFhBm8Q7Gjh8LaJEA4N2Seza4JfVO6c8f1uLbmRuYufknAFg0ALw8GvDbgcny1uBY6YP1CQEnOsITpcvCzkrPbEdAq9jDk9X+kx76sSOgVRzBqeLwbId/qjQV1Er6bEdIKweCeuXa2Y6QVvloUKveONsR0sv/HNBKtx13uE5w6OVvnOwIzRyVb4Rc5e+GXNW7T3oY1btD7uq9YXfl/lkPo/qbkFF5fLYjbFSeDhmVyMyx0Lf8tzgAhN3V5dL7HNBW9N7E9wgABAAlAsBMBEjeLL0mYA3eDZmPWS0AeDZl90h/7rDo2D8CgOUDwKvfDzDXUV7Y4WzBobfocM3vCM0clbkPo0WHogFgD08AAPOjXZ24gwBAAFAmAMyMBYwyFhDmjgW0RgB4iLF/MJtvV8H98s0/AYAAQAAgALibHwAC7tIHpPc6oK3ovYlvEQAIAAoFAMYCwjTujZkRqwQA7+bsVunPGxYc+7er8J+iHVkAACAASURBVCQBgABAACAAtDIAhLTiudL7HdBW9KvjDxAACABqBYCZFwKuk14b6HwOR+1U71D6J50fADLfZ+wfRMb+vfLmnwBAACAAEADczQ0AYW/laf7SCJgHp+3Fi5kCQABQMQAYaxIPTvTVGAuIlvNsyHd3egDwbsldKf05w1q8Owrvmxn7RwAgABAACAAtfQKg+h/S+x3QVvTe2DQBgACgZgCYeSGgR3qNwBo8mzL/3qkBwLs5+3npzxcWHvtHACAAEAAIAK18AsBzlJfbAo3S+/7fO7XexLMEAAKAsgFgTXK/b33pPOm1gs5nDGUu8GxMH+i4ALA5e8BwZC6Q/nxhLb5d+fUnvPknABAACAAEAHdzAwAvAATmQeuN33aym38CAAFAkQBQfyHgLdJrBdbg2Zj5aKcFAO/m7LXSnyssPvaPAEAAIAAQAFoWAMq/5vf/QIN0W/wy/er4YQIAAUD9AJA8bKzO/K30mkHnu35j7SzPxszvOiYAbM4+4tyYPEv6c4W1+HcWPCe9+ScAEAAIAAQAd/MCQNhTuV56zwPawvSS2in61Yl9s938EwAIAAoFgIjRn/pPCi/M4NuQ3tUpAcC7JeeQ/jxhLZ7R4tv8O/NPEwAIAAQAAoA5TwD88VLpfQ9oC7o9tmWum38CAAFAqQCwth4BEoPSawedz+HYd6pnY/aHbR8ANmfuqZ+L9OcJa/Htyt88680/AYAAQAAgALibEwDC3so+6T0PaAv1sWpab/zXBAACQNsFgLWJB/c6aq+TXkPofL6N+a52DwDeTWmb9OcIaznp2D8CAAGAAEAAaEEACHpLa6X3PaAt6L3xYCM3/wQAAoB6ASAZca1J+qTXEKzBszH7pbYNAJuzd0h/frAe367cnXPe/BMACAAEAAKAe/EBIOyt/IKn3IAG+Pri5+m98f0EAAJAuwYAY03yGW1l7FzptYTO596U/esTjwVUPAAw9g8CArvz6xq6+ScAEAAIAAQA9+IDQNBdGZHe94C2oPcmPtPozT8BgACgZABYm4y416T+RXotwRq8G7J/324BwLsl+2Hpzw3WMufYPwIAAYAAQABoZgDwVn417ai9RnrvA5Q3ZY9/YK6xfwQAAkA7BABjbfKw0Z+4XHpNofP5HPEzPRszD7dLAPAy9g8qjv0jABAACAAEgGYGAPfRLdL7HtAGaktd9sRd87n5JwAQABQOABFjbeq/GAsIM3g35Xa0SwDwbc4NS39esBb/WP7Nvl2FpwgABAACAAHAjAAQ9lbuczhq/PYfmItmT27Q7fO7+ScAEADUDgDJiL42MSS9tmCVsYCZe1QPAN4t2Z/wD0VQcuwfAYAAQAAgADTrCQB3dY30vgcob6LvhWWaPf4rAgABoNMCAGMBITMWUM0A4N6atkt/TrCWhsf+EQAIAAQAAkATAkDYW+XpT6ARuj3un7n5JwAQADouAMz8e37pNQZr8G5Kf1HZALA5+yXpzwfW0/DYPwIAAYAAQABYZAAIeyuH9xgl3v8EzEXrip2r2ePPEAAIAB0bANam9hv9ibdLrzV0Pu+m9PnejdnnFAwAz9dHFkp/PrAW3678+gXd/BMACAAEAAKAewEBwFP9jPS+B7QFrTfxLy/f/BMACAAdGQBmIsCnpdcarMGzMX29agHAuzX799KfC6xl3mP/CAAEAAIAAWARASDsqRy41ls5X3rvA5Q31XvkEq03fogAQADo/ABQHwuY5bEwtNzomugZ3o3Zh1QJAN7N2ccMR+Zs6c8F1jLvsX8EAAIAAYAAsJgnAHxH90rve0AbqC3V7PG7jrv5JwAQADo3AERca5L/zYthYAb3hvSwKgHAtzm3S/rzgLUsaOwfAYAAQAAgACw0AHirjzidybOk9z5AeZotsf5VN/8EAAJABweA+uFZm2EsIFpuerp2imdT7m7xALA5ey9j/9AWY/8IAAQAAgABYOFPAOyU3veAtvhtntYb/yUBgABgtQBgrE0xFhCmMDamuqQDgG9zplf6c4C1LHjsHwGAAEAAIAAsKABUCd1AI3RbzHPCm38CAAGg4wNAMmL0MxYQ5vBszN4hGAD+Xfr8YT0LHvtHACAAEAAIAAsIAGFf5RrpfQ9Qnn9V/s2aPf4kAYAAYNkAsDa137k6+Q7ptYjO1/BYwCbf/Hs3ZQ/6NuTeLX3+sJZFjf0jABAACAAEgHkHgPI3pfc9oC1o9vinTnrzTwAgAFgiACQjrrWJW6XXIqzBsyF7nekBYHPuY9LnDWtZ9Ng/AgABgABAAJhfADgUdB+9RHrvA5SnXZN636vG/hEACAAWDACMBYSZYwE9m7K/NS0AbM4+Ht6UfaP0ecNaFj32jwBAACAAEADmEQDC7uonpfc9oC3o9ti3Z735JwAQAKwTAOrH3dNLaqdIr0t0Pt/G7HazAoBvS25E+nxhLU0Z+0cAIAAQAAgADQaAsLfydDBYeKv03gcoT7863j/nzT8BgABgrQBQ/+9tkF6b6HxzjgVsXgC4d7qvdpr0+cJamjL2jwBAACAAEAAafQLAW/VI73uA8owraqdr9tjPCQAEAAIAYwEhwxjKXu7dlD3c2gBQuFr6PGEtwZHCJU0Z+0cAIAAQAAgAjQQAb+XBvXv55zZgTnpvzNXQzT8BgABguQCQjLjXpgLSaxTW4NmUu71VAcC7KfMN6fOD9TRt7B8BgABAACAANBAAwp7yRul9D1Ce1p07R7fHnyAAEAAIAIwFhCx9S+qdno25Z5sdAOpj/9xb8++RPj9YS1PH/hEACAAEAALA3AHg+/Wf1EnvfYDydFv8k7o91tjNPwGAAGDJADDzFABjAWEK38bs3mYHAPfGzA3S5wULjv3b2cSxfwQAAgABgAAwxxH0lLul9z5AeU5b8mLdHj9IACAAEAAYCwiFxwIucuyfdzD3JunzggXH/u1s0c0/AYAAQAAgALhfddwhve8BbUGzxb5+7OafAEAAIAA0MBHge4wFhBk8m7LbmhUAvBsz49LnAwuO/dtReIoAQAAgABAATAoAz4fd1b+W3vsA5bl6Y6v/fPNPACAAEAAaOVz9SV4ug5ar/4bRuym3b7EBwLs5+3PDqJ0ufT6wFt+O/M0zN/8EAAIAAYAAYEYA8FQ+Kr3vAW0x9k+3x35GACAAEAAYCwg1eTZmP/jyWMCF/vZ/U3a59HnAgmP/duQPEQAIAAQAAoBJAeDx8ET2jdJ7H6A8rTc+dfzNPwGAAEAAmEcECEqvYViDZ0P22FjABf32P/NN6T8/rMe3I3fnyzf/BAACAAGAANDqAOCpTEjve4DytO7/OUe3x54gABAACACMBYTafI7Sed4Nmf3zH/uXO+jfnPgb6T8/LDj275U3/wQAAgABgADQwgAQdlfun3bUXiO99wHK03uPTL/65p8AQAAgAMzr6E99Vnotwxo8G7J75v8EQObj0n9uWHTsHwGAAEAAIACYFAD2eKurpfc+QHmT1yTeo9tjL439IwAQAAgAixkL6FmV+KD0moaFxgI2fvP/hObInSP954a1+HYV3K+6+ScAEAAIAASAlgWA6rel9z2gLej26NdOfPNPACAAEAAYCwhVuTdmt8zjxX+T0n9eWHjsHwGAAEAAIAC0PgAcCnmKl0rvfYDynLboipPf/BMACAAEgIUc7v7kJum1DauMBczsa+Bv/+938HtISI79IwAQAAgABIAWB4Cwu/op6X0PUN50X+003R67jwBAACAANP14uP6ItvQaR+fzbcpe5t2cPTzry/82ZldI/zlh8bF/BAACAAGAANDCABB2V572eIpvk977AOVp9iMTs9/8EwAIAASARbwQMCS9xmENnk2Zfz3pzf/mHGP/ID/2jwBAACAAEABa+QSAUfVI73uA8oJXpd6g26OPEgAIAASAlgWAZ92Dqb+SXuuwyFjATa8eC1gf++fZmLxY+s8Haznh2D8CAAGAAEAAaFUAMMoPTk/UlknvfYDytN7YDXPf/BMACAAEgIUHgGTEPZD8nPRahzV4N2fCJ3jx343Sfy5Yy8TEC8tOOPaPAEAAIAAQAFoVADylIem9D1Cetzd20cnH/hEACAAEgGYFAE9/8rDRn7hces2j8+111F7n2Zz98Z//9j/zK8b+QZmxfwQAAgABgADQkgBQ/u8lS2pLpfc+QHl6b/Qrjd38EwAIAASART0BMPMUQHofYwFhhvqLJ72bs1u9m3I7vIO5N0n/eWAtntHi2/w7808TAAgABAACgBkBIOypHA56Sh+U3vsA5em2xNWN3/wTAAgABIBFB4D+dMQ9kNoivfYBQGzsHwGAAEAAIAA0PQBUPyO97wHKczhqp+r26I8IAAQAAoDJAaA/9bCvL36m9B4AACJj/wgABAACAAGgqQGg+qzfX36H9N4HKE+3xUbmd/NPACAAEACaEwBmIkBYeg8AAJGxfwQAAgABgADQ1ABQ5p+pgEbG/mm22O8IAAQAAoBUAEgzFhCANcf+EQAIAAQAAkCTAkDYXX7Y5+OpSmBOmj36Md0235t/AgABgADQxAAQ8fSn/1V6LwAA08f+EQAIAAQAAkCzAoBxdKv03gcoz7BnLtBt0QMEAAIAAUA2ANQPY13yQ9J7AgA0g29HwTvvm38CAAGAAEAAWGAACHoqP5ieZrISMCe9J/ZvMzf/BAACAAFAPAC416a/z1hAAO3OP5Z/s29H4SkCAAGAAEAAMCsAhI1Kj/TeByjP6I12vXzzTwAgABAA5APAzFjALGMBAVhn7B8BgABAACAALD4A3CG97wHKczj2nar1xH9IACAAEAAUCwCMBQRgpbF/BAACAAGAALCIABB2Vw74fJULpfc+QHmunujO427+CQAEAAKAIgEgHTHWpvZI7xEAYMrYPwIAAYAAQABYTADwHL1eet8DlFf/20XNFn2YAEAAIACoGQA8/ennjNWZC6T3CgBo+dg/AgABgABAAFh4AHjsI0btbOm9D1Cebotf/6qbfwIAAYAAoEwAeOm4TXqvAICWj/0jABAACAAEgIUGAE9lp/TeByjPe3X6fN0We44AQAAgACgfABgLCKDzx/4RAAgABAACwMICwL0OR+1U6b0PUJ5mi33xhDf/BAACAAFAuQDAWEAAHT/2jwBAACAAEAAWEgB8lV7pvQ9Q3lTXX4z9IwAQAAgAageA+lMA/amt0nsHAMzGvzN/S1Nu/gkABAACAAGgsQDwFel9D1Be/W8RNVvsbgIAAYAA0F4BgLGAADp67B8BgABAACAAzCMAhN2VgyH30fdI732A8vSeI9tnvfknABAACACKBoB0xDOQZSwgAAXVlvp3Fu5q2s0/AYAAQAAgAMwdAG6Q3vkA5Y3+XfQMrSf2EAGAAEAAaM8A4O5PHWAsIICOHPtHACAAEAAIAI0HgMfDE9k3Su99gPJ0W+zaOW/+CQAEAAKAwgEgXf/v3S69lwBA08f+EQAIAAQAAkCjAcBT2S299wHK06/6f+/UemLPEgAIAASA9g4A9cM1kLxSek8BgKaO/SMAEAAIAASABgJA2F35CWP/gAbotvjtDd38EwAIAAQA5QOApz/9A4djH//jB0CUZ0vxbf6d+acJAAQAAgABwKwAsMddsUvvfYDynD0vflC3xQ4TAAgABIDOCAAzEWBtapv03gLA2vzDTRz7RwAgABAACABzHGFP5QvS+x7QFmP/dFtsX8M3/wQAAgABoC0CgNGfesS5MXmW9B4DwJqCjsIl/uEmjv0jABAACAAEgNlu/o3KAZ+vcqH03gcoT7PHt87r5p8AQAAgALRFAJg5BlJ7pfcYANbk25G70z/copt/AgABgABAAHjV4/9H+WceYC7GFX94vW6L/ZYAQAAgAHRoAOhPHfCtz1DDAZjKN5xfP3PzTwAgABAACAAmBICwUX7Y54ufKb33AcrT7bE98775JwAQAAgAbRQA6u8CSDMWEIC5Y/92FH5JACAAEAAIAKY9AeA+ukV67wOU5+uLn6fbovsJAAQAAkBnB4Bj7wNI90jvOQAsNPbvTzf/BAACAAGAANDiABA2Kt+bnq6dIr33AcrTeqKfW9DNPwGAAEAAaLsA4O5P3cNYQACmjP3bkX+aAEAAIAAQAMwIAGGjcjjk/d8rpPc+QHm6LX7ZvMb+EQAIAASANg8AMy8E3C699wCwwNi/V978EwAIAAQAAkArnwBwV2+V3veANlBbqtli313wzT8BgABAAGjLAMBYQACmjP0jABAACAAEABMCQNio7vc7y++Q3vsA5em22KZF3fwTAAgABIC2DAAvvRDwOuk9CECHj/0jABAACAAEADOeAHCVfdL7HqC8ib4Xlmm22K8IAAQAAoA1AwBjAQG0fOwfAYAAQAAgALQ8AJR/PT1RWya99wHK0+zxwKJv/gkABAACQBsHgPq7ANKfl96LAHTY2L/h/AMEAAIAAYAAYFYACBrVAem9D1Ce1hU7V7PFniEAEAAIABYPAP3piHd92ia9JwHo0LF/BAACAAGAANDCABA2qv9Zf6eZ9N4HKE+zH7m1KTf/BAACAAGg7QOAe4CxgABaNPaPAEAAIAAQAFoXAA6FPMVLpfc+QHlab+zvFjX2jwBAACAAdFgASEeMgbRDem8C0IFj/wgABAACAAGgZQGgepP0vge0gdpSlz1+V9Nu/gkABAACQIcEAMYCAmjB2D8CAAGAAEAAaEUAcFeeutYovEV67wOUp/dEh5p6808AIAAQADoiALx0fFh6jwLQYWP/CAAEAAIAAaAlTwCUpqT3PaAtxv7ptugDBAACAAGAAHDCALCOsYAAmjz2jwBAACAAEACaHwDun3bUXiO99wHKc/Uc8TX95p8AQAAgAHROABhIRzwD6S9I71UAOmjsHwGAAEAAIAA0OQCE3dXl0nsf0B5j/3qaNPaPAEAAIAB0bACoH4wFBNC0sX8EAAIAAYAA0NwA8A3pfQ9oC3p37Ba9pwU3/wQAAgABoOMCgHtd6scOR42xgAAWP/aPAEAAIAAQAJoUAMJG5WDIffQ90nsfoDyt68j7tJ7YIQIAAYAAQABoKADUj/70sPTeBaADxv4RAAgABAACQLMCgLvyMel9D2gLek/0zpmbfwIAAYAAQABoMAB4BjKMBQSw+LF/BAACAAGAANCcAPBYeCL7Rum9D1Ceqzu2+uWbfwIAAYAAQABo9AmAgXT9/9/10nsYABXVlvp3FO6a980/AYAAQAAgACwwAITdlV3SOx/QFrTu2N0EAAIAAYAAsJAAUB8L6O7P/rX0Pgagjcf+EQAIAAQAAsAiA0DYqPyEdxMBDdC6osuPu/knABAACAAEgPkEgJkj9UXpvQxAG4/9IwAQAAgABIBFBoA97opdeu8D2oKrJ/5VAgABgABAAFhcAKi/DyDVLb2fAVCD31HwLPjmnwBAACAAEADmGwDclTuk9z2gLUz0Zd+od8cOEgAIAAQAAsBiA4B7IMWjdwCWhHbGzp332D8CAAGAAEAAWGAACBuVAz5n5ULpvQ9oCy5bfNurbv4JAAQAAgABYEEBIB0x1qV3SO9rANpw7B8BgABAACAALDgAlPdI73tA29B6jtxKACAAEAAIAM0KAPWxgBN9tWXSexsAGZ7h9KULGvtHACAAEAAIAAsJAO7qb68brZ0hvfcBbUPrjv2EAEAAIAAQAJoVAGaO/uQm6b0NQJuN/SMAEAAIAASABQSAsFHeLL3zAW2j/rd0enf81b//JwAQAAgABIAFPwGQfsI1kLxSen8DYL7Ajvy6ptz8EwAIAAQAAkADASBsVPZNT9dOkd77gLbh7Dly4Qlv/gkABIDWBIBfGiuT+4zl8W8YKxs7XCvitzV2JGcOY3XyZveq9I0NH6sTnzBWpa+d81jz58O1Ju02Vif0ho81qQl9dWL4hEf/iQ9jbXrA05/ub/Rw9yeXG/3pnkYP3/p8l96ffv+8jjXR/+Ndmz5/tkNbGTtXel8D0KZj/wgABAACAAFgHgEgbFQOh/XSZdJ7H9BWnD3RSwkABIBWBgBjZfJ+fUVil7Y2d4709Q4AUHjsHwGAAEAAIADM5wkAV/lW6X0PaDtOW6yHAEAAaEkAWJk4ZCxPhIwraqdLX+cAgNbybCm+bdFj/wgABAACAAGg8QDwTEir8dQhMF+uniNXEgAIAE0PACsTh/RViSHp6xsAYA7fjvzNTb35JwAQAAgABIBZAkDYKHul9z2gLTltL15MACAAND8AJN3S1zYAwByh4WJzxv4RAAgABAACQGMB4Jf1d45I731AW/JdGT+PAEAAaGYA0Fck7nE4aqdKX9sAgDYb+0cAIAAQAAgADQSAsKfaL73zAW1rekntFL0n9hQBgADQrABgrEr3SF/XAABz+Ibz61ty808AIAAQAAgAJwwA1bvq4VF67wPamt4TvZMAQABoRgDQVyRvl76eAQAmjv1zNHHsHwGAAEAAIADMfhzaoxffL733AW1P64l+lABAAFh0AFiefG7y6hfPl76eAQAmjv1ztOjmnwBAACAAEAD+8tCrN0nve0BH0O2xbgIAAaAJTwDslb6WAQDmCO2Mnesfzj9NACAAEAAIAGYEgLBeffJao/AW6b0P6AgOx75TtZ7owwQAAsAiAsAjTlvyLOlrGQBgDr8jf8vMzT8BgABAACAAmPEEgFGZkN73gI6i2WI3EAAIAAsNAPrK+HbpaxgAYOLYP0f+EAGAAEAAIACYEQDCrsp9hlE7XXrvAzrK5IdePF/vjh0kABAAFhAAflB/ikT6GgYAmKG21O8o3PXyzT8BgABAACAAtDgABF2VPumdD+hIek/sZgIAAWC+AYCxfwBgHV5HfvC4m38CAAGAAEAAaGkAKH9Oet8DOpZhz1yg90QPEAAIAI0GAGNF8vPS1y0AwLyxf15H7gECAAGAAEAAMCMAhPXq7/ZqtXOk9z6go+nd0esJAASABgPAAeeKzIXS1ywAwBw+R87rc+SOv/knABAACAAEgFY9AaCXhqT3PaDj+friZ748EYAAQACYJQAYK5PXSV+vAABzeLYU3+Ybzj1NACAAEAAIAGYEgLBe+ZL0vgdYhssW30YAIADMEQAY+wcAFuJ15G+p3/wTAAgABAACQKsDQNhV+YXXm3uT9L4HWMb0ktopek90HwGAAHDSALA8vk36OgUAmMPtKFzideQOEQAIAAQAAkCrA0BYrz65V6u+W3rfAyxHt8Uv022xwwQAAsAJAgBj/wDAMmpLfcO5O/90808AIAAQAAgArQoAYVf1ICP/AEG6LfYZAgAB4C8DgLYyepX0tQkAMIdnR37dK2/+CQAEAAIAAaBFAeBQ2Di6VXrPAyzN1xc/T7dF9xMACACM/QMA6479IwAQAAgABICWBgC9/Pweo7xBes8DUH8hYM8RHwGAAMDYPwCw7tg/AgABgABAAGhZANBLj4eNcpf0fgfgJRN9LyzTbPFfEgAIAK4Vib3S1yMAwBzazti5fxr7RwAgABAACAAtCQB6+b+u9VbOl97vAPwFrTc+QACwdgDQVyQe9vXFz5S+FgEA5vA58jef6OafAEAAIAAQABYbAEKuyhMhozLKS6UBhem22LcJABYOACvj26WvQQCAOTzDxUtfOfaPAEAAIAAQAJoRAEKu8tNBV+nDe7XaOdL7HIA5GD3J9+q2+EECgCUDAGP/AMAyaku9jvxdJ7v5JwAQAAgABID5BoCQq3J3UC+OXO+snSW9wwGYB60nfiMBwHoBgLF/AGDtsX8EAAIAAYAA0PhRORjSK/eHXOVbw0Zlxx6j9HbpfQ3AAmnd/3OObos9QQCwTgBg7B8AWMfJxv4RAAgA7RYA/BPFJwITxccDE6XfBibK9wcmivcHJkp31w//ROnOwETxG8HJ8lcDk6Xb6od/ovip4FT5xj8dgcnCdHCyeO0rj8BUMRScLOmvPAJTpfHgeHH4lUfYWd4Yniz1H3c4C9eEnZUeM46AVrGH9Wr/K4+AszQYnCoOH3c4iyNBraQfd+hlf1CvXHvcoZVuCGrVG195hLTSx1/x7+shV2VnaKrQ63NWLjSM2unSexmAJtLsRyYIAFYJAMnnJq9+kTezAoBFeB05z1w3/wQAAoBZASA4XnwuOFb8J/9Yfsg/VumpH4Gp0gd848X3e0byF3sn0+fPHLtzbwqO1N4wPVFbJr2GAKDjTPfVTtNtsXsJAJ0fAIzlyeukrzcAgDk8W4pvO9nYPwIAAUAgADwaHClcIr0uAAAzEwESVxMAOjsA6MsZ+wcAVjLb2D8CAAHA7AAQHC+tlV4TAIBX0OzxfycAdG4AcC2Pb5O+xgAA5nA7CpfMNvaPAEAAMDMABMfL35ReEwCAv2DYMxfotthzBICODACM/QMAy6gt9Q3n7mz05p8AQABoaQAYKx3i0X8AUJRui19PAOi8AGBck+6RvrYAAObwOvKD87n5JwAQAFr7BED5Juk1AQA4idG/i56h9cQeIgB0TgDQ+5K3S19XAAC1xv4RAAgAJgWAp4JThbdKrwsAwCz0niPbCQAdEwAOGKszF0hfUwAAc/gcOe98b/4JAASAVgUA/3hJl14TAIA5TC+pnaLbovsIAB0QAFYk9kpfTwAAc2g7Y+d6HblnCAAEAEUCwC+CA79/rfS6AAA0wNnz4gd1W+wwAaCNA0Bf4hGnLXmW9LUEADCH15G/ZSE3/wQAAkArAoB/rNQvvSYAAPOg2+KfJQC0cQBg7B8AWMZ8x/4RAAgArQwAwbHSd+rTKKTXBQBgHrSu2LmaLfYMAaAtAwBj/wDAMuY/9o8AQABoYQA4HBr946XSqwIAsAC6Pe4nALRfAGDsHwBYx0LG/hEACACtCgD+8eIt0msCALBAE30vLNNt0QcIAO0TABj7BwDWsdCxfwQAAkBrAkB5/56R0tul1wUAYBFc9sQ6AkDbBADG/gGAhSx07B8BgADQkgAwVvBJrwkAQBNotth/EADaIAAw9g8ALGMxY/8IAASAFgSAB/c6LcvItwAAIABJREFUaq+TXhcAgCYwepLv1W3xgwQAhQMAY/8AwFIWM/aPAEAAaHYACE6WN0ivCQBAE+n2+E0EAIUDAGP/AMBaY/+2L3zsHwGAANDkAPC96enaKdLrAgDQRFp37hzdFnuCAKBkAGDsHwBYRm2pb3vuTt/25tz8EwAIAIsNAP7J0uXSqwIA0AJaT3SKAKBgALgmeaX0tQEAMHHsX/3mnwBAAFAjAHxOek0AAFpkuq92mm6P3UcAUCcAMPYPACw29m977gECAAFAjQBQftY9Xv4r6XUBAGghV0/cRgBQJgAw9g8ArDb27083/wQAAoBwAPCPFfdIrwkAgAl0W/TLBAAFAgBj/wDAWmP/tueeIQAQAFQIAP6x4iM+R/xM6XUBADCBYc9coNtizxEABAMAY/8AwHpj/155808AIABIBoCJMtOHAMBKNFv87wkAkk8AMPYPACw39o8AQABQIAD4x4r3MH0IACzG1xc/U+uJPUQAEAkAjP0DAMuoLfVuy971qpt/AgABQCwAVHqkVwUAQIBujw4TAAQCAGP/AMCaY/8IAAQA8QBQuEN6TQAAhEwvqZ2i98b2EQDMCwCM/QMAC4/9IwAQACQDwFjhgG935ULpdQEAEOTsefGDuj12mABgSgBg7B8AWHnsHwGAACAaAErXS68JAIACNHv0cwQAEwIAY/8AwNpj/wgABACpADBWfMwwMmdLrwsAgAK0rti5mj32DAGghQGAsX8AYCknHPtHACAAyD0BsEt6TQAAFKLb434CQCufAGDsHwAssfrYPwIAAUAgAPjHCvc6HDWmDwEA/myi74Vluj36AAGgJQGAsX8AYBmzjP0jABAABAJAaKzSK70qAAAKcvZEBwkALQgAjP0DAMuYdewfAYAAYHIACI4Vvyy9JgAACtPtsW8TAJoXABj7BwDWMefYPwIAAcDMADBWOOgbzb1bel0AABSmXXPkfbo9fpAA0JQAwNg/ALCQOcf+EQAIACYGAP9Y6QbpNQEAaAO6Lf5JAkBTAgBj/wDAIhoa+0cAIACYFQDGCo97d+feJL0uAABtQOvOnaPb408QABYRAK5h7B8AWElDY/8IAAQA054AKI1LrwkAQBvReuNTBIBFBADG/gGAZTQ89o8AQAAwJQAU7nc4aq+RXhcAgDZiXFE7XbfH7iMALCgAMPYPACxjHmP/CAAEABMCQHC8uEJ6VQAA2pBmjy4nACwgADD2DwAsY15j/wgABIAWB4DgWPGb0msCANDG9N7oVwgAjQcAxv4BgHXMe+wfAYAA0NIAUDgUHClcIr0uAABtbKo3dpFmjz5PAGgoABww7Iz9AwCr8G7P+RZ8808AIAA0/wmAm6TXBACgA+i98Y8QABoKAIz9AwCLWNDYPwIAAaB1AeCp4FThrdLrAgDQAXx98TM1e+whAsAsAYCxfwBgKQsa+0cAIAC0KAD4Rwq69JoAAHQQ3Z4YJgDMEgAY+wcAlrHgsX8EAAJAKwLAWOkXwYHfv1Z6XQAAOsj0ktopmj12NwHghAGAsX8AYBmLGPtHACAAtCAA+MdK/dKrAgDQgSav/sPluj1+mADwFwdj/wDAMhY19o8AQABocgAIjhW+U49S0usCANChNFv8NgLAnw+9L87YPwCwiEWP/SMAEACaGQDGiodDo8VLpdcFAKCD+fri5+n22H4CwMzB2D8AsJBFj/0jABAAmhsAbpZeEwAAC9Ds8QABYOa3/4z9AwCLaMrYPwIAAaB5AWC/b6J0nvS6AABYwETfC8t0e/wBSweAa2KM/QMAC2nK2D8CAAGgWQFgrOCTXhMAAAvRe6NDlg4AjP0DAMto2tg/AgABoBkBYKzw4F5H7XXS6wIAYCm1pbo9fqdFAwBj//7/9u4/OO76zu+4ze80BJqQ3MHdJLmS3tAAN51C7/LDkhwggLF2JVlmkSzJUNBq9f2uJAfSMplLbuqjCQlpmZYmvbYhc73cxOF6vtxxPziScFAuQ0IgBIeA7T/4p39d7JW13/0hwfS/7UgGjl82trW7n+/uPh4z3z8ykz9ijd6afJ9e67UBoFc0cfZPABAAmhAAFqZeyoa+CgB60PTA0ken+0r7ey4ADPzS7B9Aj4i3NXH2TwAQANYbAHYuf3f37sZpoe8CgB6V31T6Ui8FALN/AL31O2/i0SbO/gkAAsA6A8Dc5MoVoe8CgB42/fHq+/KbSk/3SAAw+wfQa7N/21v08i8ACAAnGQAWplbuDX0TALBhZtPibb0RAMz+AfSK6ezhX423V58VAASAVASAncs/n735pV8PfRcAsKFwZePM6b7Sw10dAMz+AfSU4mj1nrWXfwFAAEhBAJjbWbs99E0AwGtu++Shq7o6AJj9A+it2b/R6n4BQABISQB4opgrnRv6LgDgDaY3le7v0gBg9g+g12b/Xn35FwAEgNABYGd9NPRVAMBbxH3Vi6c3lZ7vugBg9g+gt2b/Xv/yLwAIAAEDwNzO2oP+EgKA1JreVPrdbgoAZv8AenD2TwAQANITAD4R+i4A4JhWf1FeftPij7okAJj9A+jF2T8BQABIRQCofy30TQDAO5r+5OJYdwQAs38APTn7JwAIAMEDQP0XxYmXPxz6LgDgHe3e0Dhtun/xzzo6AJj9A+jd2T8BQAAIHQB2rtwZ+iYA4IQV+hevyPeXDnRsADD7B9C7s38CgAAQNgD8pFBIzg99FwBwUqb7Dt3XoQHA7B9AL8/+CQACQMAAMDe1PB76KgDgpBU3ly7M9x3e13EBwOwfQG/P/gkAAkCgADA3VX8ol2v4SwgAOtN03+KuTgoAZv8AescxZ/8EAAEgUADYtfPlvtB3AQDr+j9X032lxzokAJj9A+ghx5z9EwAEgAABYGFq+X+GvgkAWLd832KmMwKA2T+AXnHc2T8BQABodwDYWX+hOFX956HvAgCaoLEx31/6dqoDgNk/gJ5y3Nk/AUAAaHMAmNu58oXQNwEATXNr3y8vne4v7U9tADD7B9Az3nH2TwAQANoaAOpPxRPV94a+CwBoqun+Q3enNACY/QPoGScw+ycACADtDABTKzeHvgoAaLrC5n94/3Rf6acpDACfDP21AaA9iqO1rSf18i8ACAAtDQD17xUKjTND3wUAtES+f3E6TQEgP7D43dBfEwDat0xT3F59TAAQAFITAKaWrw59FwDQMrlL95813Xf4+2kJAH7zP0DviLdXo5N++RcABIAWBYC5yfofhb4JAGi5wsCRq9ISAPL9pTtDfz0ASNnsnwAgALQ8AKy88JnJ/3dJ6LsAgLbI95W+mYYAMDNQenq6r7Qp9NcDgNaKt9e+ckov/wKAANCKADC1fFfomwCAtil8svSRfF/pheAB4NVPAmwu/X1h8+K38gOLX58ZKP2Xpj2fatFz1ds9R37/ZJ7ZNz/XNPspn/BT+PSRzxWuKX/2pJ5rU/Jct7RQuH4xfyJPtPaUU/PMblmanr2+fNPbPlvT/xS2JoPRYPX6Yz7ZytWzg7XfDP3zjvCim5YvP6nZPwFAAGhtAHhmbmftgtB3AQBtle87/Pm0BICZzet5Fo/9fKpFz1Xrfwpvfq5u9nPk6HNNi55rW/Rc16Ln+iMHZ9eecnOfLS16bmjBM3isJ1nfkzn2E2WSg3Em2RsPHr449M88QmlsLG6vfeeUX/4FAAGg2QFgoj4T+ioAoO0WfmfpvOm+xR8LAAKAACAAtDIArD2DyZOFbSsXhf65R4fM/gkAAkDLAsDKIwtbXjw79F0AQBAzfYvjAoAAIAAIAC0PAGsRoOw3bveYU579EwAEgBYFgIWplS2h7wIAgsnl9p6e7y89KAAIAAKAANDyALD6zwEGq58O/XOP9olvrBbX/fIvAAgATQoAC1P1B1b/SUrouwCAoG7tO/QxAUAAEAAEgHYEgGgw+UEut/+s0D/3SPnsnwAgADQ7AEwtH9g1tXx56LsAgFTI95XuEwAEAAFAAGh5AFj9FEC2Mh36Zx6tVxyt3tOUl38BQABozicAvhz6JgAgNQr9ixfN9B3eJwAIAAKAANDyAJBJnlnYUv9A6J97tM5srn7pumb/BAABoLkBYF/xlpULQ98FAKTKzKbDnxEABAABQABodQBYe7KVu0L/zKNVGhvj7ZU9TXv5FwAEgHUHgHox9FUAQOrcsrlxzkxf6TEBQAAQAASAlgeAwWR/MVu+LPTPPZov3lYbbOrLvwAgAKwnAEzVH78j13hX6LsAgFQqbDqSFQAEAAFAAGh5AFj7pwCVb4X+mUfzZ//i0eqjAoAAkJYAMDexkgl9FwCQYo2NM32lPQKAACAACACtDgCrz2x26drQP/VI4eyfACAANCcAfHf37sZpoe8CAFJttu+Xl870l/YLAAKAACAAtDoArM4CLmx58ezQP/dI2eyfACAArDcATC0fmJtcuSL0XQBAR5jpL90tAAgAAoAA0PIAsPaU86F/5pGy2T8BQABYZwBYmFy5N/RNAEDHmLumdkG+r/RTAUAAEAAEgFYHALOAXTL7t62Js38CgACwngAwtfzz2Ztf+vXQdwEAHSXfd3hGABAABAABoPWfAFj971b+Q+ifeZyqxsZ4tLKnONqil38BQAA4yQAwN1m7PfRVAEDHKVzZODPfV3pYABAABAABoNUBwCxgh8/+rb78CwACQDoCwBPFXOnc0HcBAB0p33/kagFAABAABICWB4Cjs4B7Vv82OfTPPU5h9k8AEADSEgB21kdD3wUAdLSZ/tL9AoAAIAAIAK0OAGYBO0+8rVp87eVfABAAAgeAucnag7nc3tND3wUAdLS4r3pxvq/0vAAgAAgAAkCrA0CcSR4xC9hBs3+j1WcFAAEgNQFgZ+0Toe8CALrCTN/hLwgAAoAAIAC0OgCYBeyw2b/Xv/wLAAJAyAAwVf9a6JsAgK6x8DtL5+X7Fn8sAAgAAoAA0OoAYBawg2b/BAABIBUBoP6L4sTLHw59FwDQVQqbDk8IAAKAACAAtP4TAGYBO2b2TwAQAFIRAGp3hr4KAOg6uVzj9EJ/6d6Z/sWfCwACgAAgALQyAKzOAsZblz4a+uceb1UcrW1925d/AUAACBMAfnznbY33hL4LAOhaU9ceevf0wOLWfP+h+/IDpWcFAAFAABAAmh4AVp9s5Y9D/7zjrbN/xdHqYwKAAJCWADA3tTwe+i4AoKc+FZDfdOiyQv/hfL6/9If5/tLzAoAAIAAIAM0JAKu/D2DputA/5/hH8bbkjbN/AoAAEDQA1P9m9f+HhL4LAOjpTwcUNh/51/n+0r/JDyz+p3x/6eGZ/tILAoAAIAAIAKcSAKJs8oNcbv9ZoX+28ersX/LG2T8BQAAIGAAWJl/6eOi7AADeZPfmxhmzmw/9xkzf4ub8QOnmwuYjdxYGFr8y01/6xszA4p8VBhZ/MDNQejw/UHoqv7n006Mv9Yf3rf3ngdJTM5sXH8kPHH5oZqD07fzA4tdnBkpfzA8sfvaEnk+l9ym8+bmm2U+5tc+1HfZc36Lnhg56Msd6Ksd5kt+bHUweChgAzAKmRLy98pXiaOXYL/8CgADQ1gBQ/2+hbwIAALpQY2OcqdwaKgDE2eSZQqb+/tBfhV4WbVu+vDhaOSAACADpCAD1X+za+fKHQt8FAAB0rWiw/KUgnwBYiwDlL4b+8/euxsbitsp3jr78CwACQAoCwFTt34W+CgAA6GqFTyfnR1uTJ0MEgCiT7I8Gy5eH/hr0omgkyfzjy78AIACEDQDFydqPbrvtiNk/AABotdnB5OYgAWDtUwCVPat/Gx36a9Brs3/xaPVRAUAASE8AqN8Y+i4AAKAnrE5uzW4t/3WIAHB0FrBqFrDts3+vf/kXAASAcAGgOLH8F7ncXrN/AADQLoWtyUCwADCUPLKw5cWzQ38Nemv2TwAQANIRAOLJ6m+HvgsAAOg5s4PJN0IEgNVndqg8E/rP3wuKo9V73vryLwAIAGECQHGifl/omwAAgJ4UDx6+eHYweT5EAIizyc8WttQ/EPpr0M1mc0uXxtsq+wUAASAdAaD+nNk/AAAIaHYw+d0QAcAsYKs1NsajlT1v//IvAAgAAQLAZO320FcBAAA9bWHL0nmzg8mPQwQAs4DtnP0TAASAoAHgiWKudG7ouwAAgJ43u7W8I0gAODoL+B2zgO2Y/RMABIBwAWB+R30k9F0AAABrs4B7T48ylb8MEQDMArZr9k8AEAACBYAdy3++e3fjtNB3AQAAvKI4VPtYsABgFrANs38CgAAQJgDsmnjpytB3AQAAvElhsPwHIQLAK78QsBD6z9/ds38CgAAQIABMrtwb+iYAAIC3EQ+XPxhlKs+FCQBmAVs7+ycACABtDwD75sZf+rXQdwEAABxDIVO+M0QAOPqUvxT6z9+9s38CgADQ3gAwv2N5PvRVAAAAxzF17aF3z2bKPwwSAMwCtnD2TwAQANoXAIoT9cfvyDXeFfouAACAdzA7uHRjmE8AmAVs3eyfACAAtPMTACuZ0HcBAACcgNXJrtlMsjdEAFh7hqvXh/4adN/snwAgALQnABQn6n8i4gEAQAcpZBaviDLJgSABIFv+P7fc0jgn9Negu2b/BAABoC0B4MDcZOWK0HcBAACcpEKmfF+YAGAWsPmzfwKAAND6AFCcWL4n9E0AAACnoLh15cLZwfK+MAHALOA7mR06mdk/AUAAaHkA2Hf75MpFoe8CAAA4RYXBpdtDBIC1CJAp3x36z59ejY3xyMnM/gkAAkBrA0BxRz0OfRUAAMA6FDL/8E+iwcrfhwgAa7OA25bNAh5r9m/bqb78CwACQHMDwOrs326/twMAADpfnKmMBAkAZgGPPfu3rfqoACAApCUAzE+s3BD6LgAAgKZobIwGkz8NEQDMAh5j9m/15V8AEABSEQDqD4h0AADQRWYHk38ZZ5IDQQKAWcA3zv6NJM8KAAJAOgJAff+uKf9MBwAAuk48mPzHMAFg9Z8CVM0Cri4zjFTvee3lXwAQAIIHgJpf1AkAAN36t8/RYPnZMAEg+Vm07dCvbOj12b+Ryn4BQABIRwCo/2whZ6oTAAC6VpRJ5kIEALOAr8z+vf7lXwAQAMIGAJ/KAQCAbv8N9NFg8miIANDLs4Cvzf4JAAJACgJAcWLlkYUtL54d+i4AAIAWi7cmg0ECQI/OAr5h9k8AEABSEADiyep1oe8CAABoi8bGKFP+dogAsPoUs+UtG3p19k8AEACCB4CVPb0W4QAAYEOv/0K6aDDZHyIA9NIs4Ftm/wQAASBoAKjvL44vXxb6LgAAgDaLM5W7wwSA5ODscHl2Qy/O/gkAAkDAAFCcWL4r9E0AAAABzI3ULogGk5+GCADxUPfPAha3ly97y+yfACAABAoAxYnlZwo76u8PfRcAAEAg8WC5ECIAREOrEaByd8/N/gkAAkCoTwBMrdwa+ioAAICACoXGmXEm+X6IABANde8s4DFn/wQAASBMAPhBLtc4K/RdAAAAgcWZpesCBYDV54Fu+43kx539EwAEgAABYH5q+erQdwEAAKREnEn+MFAA6LpZwNnjzf4JAAJAuwPAjvofhb4JAAAgRaKh2iVxpvJCiADQTbOAq7N/0fFm/wQAAaCtAaD+QjRZuyT0XQAAACkTZSt3BQkAQ90zCxiPVO+JTvTlXwAQAFoeAKr/PvRNAAAAKXRHrvq+KFN+OkQA6IZZwNXZv2iksl8AEADSEACK47Wn44nqe0PfBQAAkFJxZunWEAGg82cBGxujkcqe1Zd/AUAASEMAmN9Ruzn0VQAAAGmfBRxMHg4RAFZnAeeGk9/a0KGzf6++/AsAAkDoAFAcr31/9ZZD3wUAAJBy8dYjVwUKAB05C7g6+xdtqz4qAAgAqQkAE/WB0HcBAAB0iCiT3B8oAByMRso3bOiw2b/Xv/wLAAJAyABQHK//r9A3AQAAdJB4sHpxlEmeDxIAOmgW8NXZPwFAAEhJAHhh147ab4a+CwAAoMNEmeT3ggSAtV8IWI42dNDsnwAgAKQjAFS/EPomAACADrSwZem8KJs8GSQAZMv7irmVCzd0yOyfACAAhA8A1ac+c0vln4a+CwAAoEPF2WQqRAA4+pS/vKFDZv8EAAEgdAAo7qhOhr4KAACgg+VyjdPjbPmvQgSAeDg5MDe8/FudMPsnAAgAYQNA9aHdmxtnhL4LAACgw0XZ2sfDfAJg9amkbhbw7Wb/BAABIGQAKO6o94W+CwAAoEtE2eR/BAoAB2eHy1s3pHz2TwAQAIIFgInafw99EwAAQBcpZJIPxdnKcyECQDSUPJ6WWcBjzf4JAAJAiABQ3FF7fj5X+Weh7wIAAOgycbb8uTABoHIwHqpGaZ79EwAEgCCfAJiofy70TQAAAF2omCudG2WTJ4IEgGwSfBbweLN/AoAA0P4AUP9JIZecH/ImAACALhYPV8dCBIBXni+ndfZPABAA2h0A5ieWx8LdAwAA0PVyub2nR9nkwRABIB6uBJsFfKfZPwFAAGhnACjuqP/N6kRniFsAAAB6SGFo6WOBPgEQZBbwRGb/BAABoJ0BYH6ivqmdNwAAAPSwKFP+WqAA0PZZwGgomTuZl38BQABoaQAYr329nd//AABAj4uHyx+MssnPQwSAds4Crs3+Db/z7J8AIAC0KQD8ojiRfLgd3/sAAACviYcqnw0TACoHo2w1btvs3/DJvfwLAAJAqwJAcbz2b9vxfQ8AAPAGU9ceeneULf8wRABYnQUsbFu5qJV/vmK2fFk0XNkvAAgAaQgAxR3VH902dOQ9rfyeBwAAOKY4WxkN8gmAo6sAX2ndn6yxMRqu7Fl7+RcABIA0BIDx+o2t+34HAAB4B7t3N06LM+W9gQJAy2YB12b/Xn35FwAEgMABoLij9herE5yt+F4HAAA4YdHQ4r+Ks8mBdgeAVs0Crs3+jVQfFQAEgLQEgHiy+tvN/B4HAAA4ZVE2+c+BAsDBeCgZbPrs3+tf/gUAASBgACiOV+9r5vc3AADAuhS3rlwYZ8r7QgSAZs4Cvjb7JwAIAOkIAM/t2vnyh5rxvQ0AANA0cTZZCBMAmjcL+NrsnwAgAKQhAIzXbm/G9zUAAMCGZv/b+ThTfixEAIiHq+ueBXzD7J8AIACEDgDjtSeKudK5zbtQAACAJoozSTbIJwDWfhdA9Z6mzf4JAAJA4AAwv6M+0szbBAAAaLLGxjhb2RMkAKxjFvAts38CgAAQNgD8+erEZvPvEwAAoInWPkqfSfa3OwC8EgH+5GRnAd929k8AEAACBoBdEy9d2boLBQAAaKJoKPlqiACw+rJ+srOAbzv7JwAIAMECQP3e1l0mAABAk63N6WXLz4YIANFI8vgduca71jX7JwAIAEECQH3f3PhLv9b6CwUAAGiiKJvEQQLAcOXg7HBSPKH/jSPJV9/x5V8AEADaFADmdyzPt/4yAQAAWjELmE3+LkQAiEfeeRbwuLN/AoAA0OYAUNxRP+FPrgAAAKROMVveEiIAvBIB7jnl2T8BQABo9ycAJmqZdt4mAABAkzU2RtnynjAB4NizgKu/KPCEX/4FAAGg9QHgf5/segUAAEDqxFuXPvqWWcA2BIBXfiHgg7s3N854/f+eO4ca74lHqo8LAAJASgLAgbmbKleEu1AAAIAmirLlLwUJAEf/KcAXXv3b1UKhcWY8knzjpF7+BQABoJUBYKz21dD3CQAA0DSFTP39cTZ5JkQAWIsAw9VvRduqc9Fw9S9P+uVfABAAWhQAiuO1Z3eNL/9q6PsEAABoqihTzocKAOt+BAABoBUBYKweh75LAACAplv9+H00lHxPABAABIC1v/1/fPctjXNC3yUAAEBLxEPVTwsAAoAAUDs4P1a7IfQ9AgAAtFScTb4pAAgAPR0AxuoPmP0DAAC6XmGk+pF4KHlBABAAejIAjNX277pp+fLQdwgAANAW0dDSbgFAAOjJADBeuzv0/QEAALRNIZecHw8lPxEABIAeCwA/W8jVPxD6/gAAANoqyia3CAACQE8FgLFqIfTdAQAAtN3uzY0z4qHkbwUAAaAXAkBxrP7IwpYXzw59dwAAAEHEmWSzACAA9EIAiMeq14W+NwAAgKCibHK/ACAAdHcAqO8x+wcAAPS8eLR6cTSUPC8ACABdGQDGavuL48uXhb4zAACAVIiGk88LAAJANwaA4vjyXaHvCwAAIFWzgNFQ8qQAIAB0VwCoPz23s3ZB6PsCAABIlWg4mRAABIBuCgDFm6qToe8KAAAgdXK5xunRUPmvBQABoBsCwPz48t5cbu/poe8KAAAglYpDtY8JAAJAFwSA56Jc7ZLQ9wQAAJBq0VD5DwQAAaCTA8D8+PJU6DsCAABIvWjboV+JhpOnBAABoCMDwFj9v27Y0NgY+o4AAAA6QnFo6UYBQADotABQHKt9d/ctjXNC3w8AAEAHaWyMsuX7BAABoHMCQP1hk38AAACn4JbN//ecaKjygAAgAKQ/ANT/9vbJlYtC3wwAAEDHiger742HK38lAAgAqQ0AY/UH4onqe0PfCgAAQMebuvbQu+Oh6jcFAAEgdQFgbPn3C4XGmaFvBAAAoGvkco2z4mzliwKAAJCOAFD/u/mxen/ouwAAAOhas8OVT0XDlR8KAAJAmABQfWpurF64I9d4V+hbAAAA6HoLW5bOi7KV2+PhyjMCgADQngBQfWg+tzx129CR94T+/gcAAOg5hVxy/uxwUoyGKt8TAASAZgaA4ljt2bmx+h/Pjy3PfyZXuyT09zoAAACviAbLl0dDya5ouHp/NFx5UgAQAE7gRX//3Fjth3NjtT+du6n29eJY9fNzNy2Pz++o/4tcrnF66O9pAAAATsDcSO2Cwkj1I3PbKlcURmqfaOYTj1auikar1x/vmeuCpziS9M3lap9IyxPnqlcWt5cvO/az/MZn/I3P7FjlN+Kx8gfvyDXetzDZOG/35sYZob9PAQAAAAAAAAAAAAAAAAAAAAAAAAAAAAAAAAChAnfpAAAAl0lEQVQAAAAAAAAAAAAAAAAAAAAAAAAAAAAAAAAAAAAAAAAAAAAAAAAAAAAAAAAAAAAAAAAAAAAAAAAAAAAAAAAAAAAAAAAAAAAAAAAAAAAAAAAAAAAAAAAAAAAAAAAAAAAAAAAAAAAAAAAAAAAAAAAAAAAAAAAAAAAAAAAAAAAAAAAAAAAAAAAAAAAAAAAAAAAANjTd/wf7hWCYCtpCEgAAAABJRU5ErkJggg==;" parent="1" vertex="1">
          <mxGeometry x="362.5" y="153" width="15" height="15" as="geometry" />
        </mxCell>
        <mxCell id="kayIU9PRfoHvsNL48Lr8-19" style="edgeStyle=orthogonalEdgeStyle;shape=connector;rounded=0;orthogonalLoop=1;jettySize=auto;html=1;entryX=0;entryY=0.5;entryDx=0;entryDy=0;strokeColor=default;align=center;verticalAlign=middle;fontFamily=Helvetica;fontSize=11;fontColor=default;labelBackgroundColor=default;endArrow=classic;endSize=3;" parent="1" target="kayIU9PRfoHvsNL48Lr8-17" edge="1">
          <mxGeometry relative="1" as="geometry">
            <mxPoint x="360" y="170" as="sourcePoint" />
          </mxGeometry>
        </mxCell>
        <mxCell id="1n7Qkl_lryp3FuAk-c7w-6" style="edgeStyle=orthogonalEdgeStyle;shape=connector;rounded=0;orthogonalLoop=1;jettySize=auto;html=1;strokeColor=default;align=center;verticalAlign=middle;fontFamily=Helvetica;fontSize=11;fontColor=default;labelBackgroundColor=default;endArrow=classic;endSize=3;" edge="1" parent="1" source="1n7Qkl_lryp3FuAk-c7w-1" target="1n7Qkl_lryp3FuAk-c7w-5">
          <mxGeometry relative="1" as="geometry" />
        </mxCell>
        <mxCell id="1n7Qkl_lryp3FuAk-c7w-1" value="周期聚合结果" style="rounded=0;whiteSpace=wrap;html=1;fillColor=#f8cecc;strokeColor=#b85450;" vertex="1" parent="1">
          <mxGeometry x="110" y="250" width="100" height="40" as="geometry" />
        </mxCell>
        <mxCell id="1n7Qkl_lryp3FuAk-c7w-5" value="周期聚合结果" style="rounded=0;whiteSpace=wrap;html=1;fillColor=#f8cecc;strokeColor=#b85450;" vertex="1" parent="1">
          <mxGeometry x="235" y="250" width="100" height="40" as="geometry" />
        </mxCell>
        <mxCell id="1n7Qkl_lryp3FuAk-c7w-7" value="" style="shape=image;imageAspect=0;aspect=fixed;verticalLabelPosition=bottom;verticalAlign=top;image=data:image/png,iVBORw0KGgoAAAANSUhEUgAABAAAAAQACAYAAAB/HSuDAAAACXBIWXMAAAsTAAALEwEAmpwYAAAgAElEQVR4nOzdaZQjd3nof4/HGxgbsAGTgFnMjp0AXrp71nbv6mV2a8bGNt2qKlVJ6i6Nx4SQYEL7GgzEhOBw40BYAxgIQ7hmMYvxBsQYj5fxMj164Tc+l4tHu1o9rdI4/zf6H6mNYTzT01qq6lGpvp9zfufcc3JzL11T6tLzRa3npJMAAAAAAAAAAAAAAAAAAAAAAAAAAAAAAAAAAAAAAAAAAAAAAAAAAAAAAAAAAAAAAAAAAAAAAAAAAAAAAAAAAAAAAAAAAAAAAAAAAAAAAAAAAAAAAAAAAAAAAAAAAAAAAAAAAAAAAAAAAAAAAAAAAAAAAAAAAAAAAAAAAAAAAAAAAAAAAAAAAAAAAAAAAAAAAAAAAAAAAAAAAAAAAAAAAAAAAAAAAAAAAAAAAAAAAAAAAAAAAAAAAAAAAAAAAAAAAAAAAAAAAAAAAAAAAAAAAAAAAAAAAAAAAAAAAAAAAAAAAAAAAAAAAAAAAAAAAAAAAAAAAAAAAAAAAAAAAAAAUbFg+mVmIHd29RjjuddFt+TPrx5jc+7dsU35C6tH37qwpnqiW/JrI1uKIy8+0YnccPV/Htm00FP9vx/dUj5fDRbPCQYrp0n/fAAAAAAAQZO9z5xx1NA5nD+/HY62af7N2qb8hXWdsfn36hP5NfUcY3z+8sh4ceSEZ1NhwtiU31k9sfHC1ZGJvLZ0CtPRzfPXV09kU+Ej0U3zN9bOROHT0Yn856onsqnwheimwlerJzJR+E5kU+H71RPdVPhpZFPhruqJbp5/ILKp8FD1RDfNH4hsLiTqO/ONnS1Hn+jW4v7olvmfRLbOfzGytfjR6Ob5UHRrbji6vXjB7GzlZOl7EQAAAABgE304+04jkFP1QPbWSCD/S2M0v98I5BN1nVEHzvhyp9DamVj+RFo5mxw6LgWAE53o1vlHolvnvxnZVpzWNxcv1fXKqdL3KwAAAACgAbX/Zn8kbxiBwp11D/sEAN8FgGNPYV90a/HT0c3zfcFgZbX0fQwAAAAAWIY+8exLI6OF6Uggv6+lwZ8A4NMAcNSfDtwf2VyYnt66cK70fQ0AAAAA+DPhQPYyYzR/ly2DPwHA9wHgzz4V8Fhky/wHd2+Zf4X0PQ4AAAAAPldZZYwWZozR3Jytwz8BgABw9PcF/C66dX579X6TvuMBAAAAwHdmeyunGMP5m20f/AkABIAXn23Pn62Fr+kTh18lfe8DAAAAgI9UVkVGCp8xRhwa/gkABIDjBYDaKf4qsnn+fdKvAAAAAADwBSOQ21Mb/gkABADXA0DtTwKeiG6f75N+HQAAAABAR9MD2YEXhn8CAAFAIAAQAQAAAADAYcrm7FmRQP5+AgABQDoA1CLAtuL+yLbFi6RfFwAAAADQcYzh7M1HDf8EAAKAYAB4/osB75veunCu9GsDAAAAADqGEci92wjk5ggABIC2CgC1TwLM/5v06wMAAAAAOkRllTGS+9Yxwz8BgADQBgGgdrYXR6RfJQAAAADgeUYgP3bc4Z8AQABokwAQ3Tb/m2uGkmdKv1YAAAAAwLMme585wxjJ30MAIAC0cwConS3z10m/XgAAAADAs4xANrbs8E8AIAC0UwDYVnzcCOZeJ/2aAQAAAADPUftT5xnDuccIAAQAbwSA6laA4mekXzcAAAAA4DlGIHfLCYd/AgABoM0CQHTb/MHpbfMXS792AAAAAMAzooHCX0dG8gcJAAQALwWA6oltnf/P6uYK6dcQAAAAAHhAZVVkJH/7isM/AYAA0I4BoPZJgMK49KsIAAAAANqeHihsqmv4JwAQANo3ANw/OVk5Q/q1BAAAAADtvvbvXgIAAcDLAWDpFA3p1xMAAAAAtC1juDBT9/BPACAAtHcAeNQMHn619GsKAAAAANpOfNPiymv/CAAEAM8EgNpWgI9Lv64AAAAAoO0YI7l/amj4JwAQANo9AGydn4vtyF8o/doCAAAAgLahDaXfW9faPwIAAcBDAeD5PwX4D+nXFwAAAAC0icqqyHDuew0P/wQAAoAnAsB8YmbbfL/0qwwAAAAAxOnD2a1NDf8EAAKARwJAbFvhrmCwcpr0aw0AAAAAxOgTz77UGMn/igBAAOjsADCfiGwtTEq/3gAAAABAjDGS29308E8AIAB4KABEtxX2RceLr5R+zQEAAACA66YHs39pjOT3iwSA0dz+yGj+g/poflckkL+VAEAAcDoALG0FKNwg/boDAAAAANdFRvL/3NLw32QAiIzmDxrDua4//8+iB/IfJgAQABwPANvmn4puL14g96oDAAAAAJdFApn3NbX2z45PAIwWPvXi/zyTvc+cYQTy9xIACABOBoDnzxdkXnUAAAAA4LLZkyonG4H83paH/2YCwGhuf2ys9Nrj/ecyRrJbCAAEABcCQCK2tbDe/VceAAAAALhMH8ltt2X4byIARAKF6PL/ySqrIoHc9wgABACnA0B02/xPgsHKajdfdwAAAADgqmuGkmcaI7lfSwQAPZC7f7K3csaJ/vNpY+n31r4jgABAAHDyEwDVs6O4071XHgAAAAC4TB/JX2/b8N/4JwDG6vnPaARy/0QAIAA4HgC2zT+gbM6e5fyrDgAAAABcpgVyrzdG8o9LBIBIoPCd6kf86/nPGd+0eJ4xlttPACAAOBoAts8notvnr3f+lQcAAAAALjMC2X+xdfivMwBUP9Kvjxb+qpH/rJGxXJwAQABwOgDEts0/GQ8W3uDcqw4AAAAAXGYM57qMkWxCJAAE8p9s9D+vPvHsS42x/K8IAAQARwNA7VMAhc8586oDAAAAAIG1f/pI9vsiAeAEa/9WYgRy2wgABACnA0AtAgSLl9j/ygMAAAAAl2kjmZ16bfh3PwCceO3fyuHCGM3vJQAQAJwOALHthR/MzlZOtveVBwAAAAAur/3Th7K/kQgA9az9W0kkkHlfZMymtYAEAALAsgGg+r9b2GzfKw8AAAAAXKYPZT+kD2cTQp8AqGvt30qM0fznCAAEAKcDQGx78f49wcpL7LhnAQAAAMBV0eH8+fpQ7gmJANDI2r+VVL9DwJa1gAQAAsAJA8B8IrqtELPjngUAAAAAV4WHc/9aG/5dDgDNrP1bSWR8/joCAAHA6QAQ217cHws296WVAAAAACBCH8p1vzD8ux0Amlj7V9dawNHcrwkABABnA0Dtf2b7/QsAAAAAjggG967Wh3J3iASAFtb+rSQymttBACAAOB0Aotvm5yLbFi9y4h4GAAAAAFuFh/JXHjX8uxgA9NF8xKmfq+W1gAQAAkA9nwBY+hTAt+36DgsAAAAAcISyOXuWPpT9rUQAsGPt30r0kczFTa8FJAAQAOoNANVPAmzNDTt5LwMAAABAS/Th7IePGf7d+wSALWv/VhIZy99KACAAOB0AYtvn7woGK6e5cU8DAAAAQEP0wcIbXlj753IAsHPt30q0QO71xmj+cQIAAcDhAFD9PoCQG/c0AAAAADTEGM594bjDv8MBwIm1fyvRR/PXEwAIAC4EgEemty6c6+a9DQAAAAAnFAnkepYd/p0OAA6s/VvJNUPJMxteC0gAIAA0GABqEWB74WNu398AAAAAsPzav+HcD0UCgINr/1aij+eDBAACgNMBILa9eGB6a+btEvc4AAAAABxFG85efcLh38EA4OTav3rWAkbG8t8nABAAnA0A1VP4mtR9DgAAAAA1ZiB39nHX/rkQAPRh59f+rcQYz3URAAgAzgeA+URkx+ENkvc6AAAAAJ/TR3IfWXH4d+oTAC6t/VuJMZr/PAGAAOB0AIhtn79ztrdyivT9DgAAAMCHQgOpC/Th7FMSAcDNtX8riQ7nz4+M5p8gABAAHA4AidiO4lXS9zsAAAAAHwoPZ/+9ruHf5gAQGXF/7d9K9LHshwgABADHA8D2+d/pwcLLpe93AAAAAD6iD2U21j382x0ABNb+1bkW8DcEAAKAwwEgEdu+8CHp+x0AAACATwSDldXh4dyPZQKA3Nq/leij+V0EAAKA4wFgW/HJ2PbCG6XvdwAAAAA+EB7JXtvQ8G9jANBH5Nb+rSQY3LvaGMvfQQAgADj7CYBiIrq9+C/S9zsAAACADqcPFl5uDGcflAgA7bD2byWxsYVuAgABwOkAUD2RbQs90vc7AAAAgA6mD+X+oeHh365PALTJ2r+V6KO52wgABACnA0B0e/H/zM5WTpa+3wEAAAB0oOhAsbr274BEAGintX8riW5ZZi0gAYAAYGMAqJ7pbfPbpO93AAAAAB1IH8l9qanhv8UA0I5r/1ZijOb/lgBAAHA6AES3F//7g9ckz5S+3wEAAAB0EH0429f08N9qAGjDtX8rUTZnzzJGc78lABAAnAwAtQiwrWhK3+8AAAAAOoR+SeVUfTj7M5kA0L5r/1ZijOWvIgAQAJwOALHtC/unN1t/KX2/AwAAAOgA+nA61NLw30IAaOe1f/WsBYyM5n9IACAAOBsAionYtuI/St/vAAAAADxOHf79OfpQdp9EAPDC2r+G1gISAAgATgWA7cWDkR3z75O+3wEAAAB4WHgoe2PLw3+TASAylB89qQMYY4V/IwAQABwOAIno9gXPbMoAAAAA0GZiw+m3Nr32r8UA4KW1fyvRJwpvMMZyTxIACABOBoDaCRYD0vc7AAAAAA/Sh7NfsWX4bzAAeHHt30oiY4W/IwAQABwPADsW7jYDT58ufb8DAAAA8BA9kB2wbfhvNAB4cO3fSsxA7mxjPPdbAgABwNkAUD3zYen7HQAAAICH1v4ZQ9mfywQA7679W4kxnr2aAEAAcDoARLcvPKJfdfhV0vc7AAAAAA8whnKqrcN/AwHAy2v/6lkLaIzlf0QAIAA4+wmAYiK6Y+FG6fsdAAAAQJtTh4vn6CM2rP1rIgB0wtq/lUQ25XoIAAQApwNAbMfCgUgw+w7p+x0AAABAG9OHszfZPvzXGQA6Ze3fSozx3L8TAAgAzgaA6qcAil+XvtcBAAAAtCl9OPtOfTh3QCIAdNLav5VEx1MXGOO5pwgABAAnA0D1TO+Yv1z6fgcAAADQhvSh7DccGf5XCACduPZvJcZY7gYCAAHA6QAQ3VH86Wxv5RTp+x0AAABAG9GHcsP6kEPD/0oBoAPX/tWzFjAylnuQAEAAcDIAPP+FgNdI3+8AAAAA2mjtnz6U/YVMAOjctX8riYwVriUAEAAcDwDbiw/t3jL/Cun7HQAAAEAb0Iezem34FwgAnbz2byXBYGW1MZb7MQGAAOBkAKid7cW/k77fAQAAAAibHlg4Vx/KPSwTAHL3dfrav5VEJwq9BAACgNMBILqj+JSxZf5N0vc7AAAAAEHhoezNLwz/LgcAv6z9W4k+VvgSAYAA4OgnAGpn/jbpex0AAACAkOhg7l36UHZOIgD4ae3fSqLjxQuM8cJTBAACgLMBoPaFgGul73cAAAAAAvSh3DePGv5dCgB+XPu3En2i8FECAAHA6QAQ21G8Ixjcu1r6fgcAAADgovBQfvSY4d+tAODDtX8r0QcLL4+MFR4kABAAHA4A1f+/r5C+3wEAAAC4xAw8fbo+lL1bKAA8GhlKvkb6GrSjyHhhkgBAAHA6AER3FB+IBdMvk77fAQAAALhAH8xGjjv8uxAA/Lz2byWzvZVTImOFnxIACACOfgJgRzERuWL+Oun7HQAAAIDD1P7Uefpg7lGZAJDx/dq/lehj2T4CAAHA6QAQ3bHwuBHMvU76fgcAAADgIGMo9+llh3+HAwBr/+oTaXQtIAGAANBgAHj+TwH+SfpeBwAAAOAQoz/37mPW/rkVAAI51v7VSQ8U32KMFQ4QAAgATgaA2I7iweltpYul73cAAAAAtqus0gczt59w+HcuAMyx9q8xxljhYwQAAoDDASAR2zH/n4Q5AAAAoMNoA5mJFYd/hwKAMZy9Wfrn9xp1+PfnRMby+wgABABnA0AxEdlRmJC+3wEAAADYZLL3mTOModw9MgEgx9q/JumjuRABgADgdACIbi/ePznJl3MCAAAAHUEfyk7XNfw7EQBGsqz9a5J+SeVUY7zwMwIAAcDJAFA7VxQN6fsdAAAAgC1r/7KPiQSAIdb+tUqfmB8gABAAHA8AO4qPmsHDr5a+3wEAAAC0wBjO3VL38G9zAAiz9s8W+njhKwQAAoDDAaD6hYCfkL7XAQAAADTJGE6/Rx/KHpQJAKz9s0tsU/GtJ1wLSAAgANgQAKLbi3OxHfkLpe93AAAAAA2rrAoPZv+zoeHfvgAwFxnKXyR9BTqJMT5/IwGAAODsJwBq/2/8B+EOAAAA8JjwYHZzw8O/TQGAtX/22zNcPCcyVjj+WkACAAHArgBQ+yTAvCp9vwMAAACo055g5SX6UO5+mQDA2j+nRMbnFQIAAcDpABDbUTwQ3b6wSfp+BwAAAFAHfThnNjX82xEAWPvnmGBw7jRjrHAXAYAA4HAAWPokwBULN01faf2l9H0PAAAAYBn6SOYv9KHcfokAYAzn7pnsfYa1fw4yRnNDBAACgBsBYOksHIjtWPhy9IrDfxu7onh1bEdxp60n6LFzpdfOov3nao+dD3TOMZs48anFofiUdVlcrZwn/fwCAAAO0Idy/9T08N9qABjMjEn//H5gjM3/BwGAAOBOAHj+XOHQCdpzpoMLR5+dDp0rHTpXOXTev2j/uXrpzNh9rnHofOB4p9T6mXToTC1/zFZOqJSYCS3eZSrWTdNT8xdLP8cAAIAN9P7MxQ2v/bMrAAzlbufbw92hTxx+pzFemCMAEAAIAAQAAgABoN4A8OcnrpS+X/10gPTzDAAANGn2pMrJ+lB2b0vDf/MBgLV/LjPG5m8iABAACAAEAAIAAaCZAPBn54vTCt/1AQCA5+jD2a0tD//NBoCh3Kekf36/0ScOvyoyXniEAEAAIAAQAAgABIAWAkD1PGKGyr3SzzUAAFAnfeLZl+pDuV/JBADW/kkxxvNhAgABgABAACAAEABaDAAJM1Q+YE6VNOnnGgAAqIM+mLnOluG/mQDA2j8xZuDp0yPjhV8SAAgABAACAAGAANBaALBqZ0axYtLPNgAAcAJaIPd6fTD3uEgAGMrcN9lbYe2foOhEcZgAQAAgABAACAAEADsCwFIEKE1JP9sAAMAywkPZz9k2/DcYAFj71x6M8fw3CQAEAAIAAYAAQACwIwCYIWtu99SREelnGwAAcGLtX9MBIPcd1v612VpAAgABgABAACAAEABaDwCJeMh6NBoqXiD9fAMAAEet/cu3vvavuQDA2r82Y0zkbyYAEAAIAAQAAgABwI4AUIsASvmHk5PP8Gd+AAC0g/Bwboftw3/9AeCT0j8/jmYGDr/amCg8SgAgABAACAAEAAKAHQHg+e8D+Ij08w0AAN+7Zih5pjGY+7VMAGDtX7syJvIGAYAAQAAgABAACAB2BYDa9wFMlt4r/XwDAMDX9MHsBx0Z/usIAOGhvCH982P5tYDGROFuAgABgABAACAAEABsCgAJM1S+Y3a2cor0Mw4AAF+aGv7D+fpA7gmJAGAM5+6Z7OXvAduZvikfIAAQAAgABAACAAHAvgBgJeJTpUnp5xsAAL5kDGY/rw84NPyvEADCQ/lR6Z8fKzMm8t8iABAACAAEAAIAAcCuAGCGyg9PX1s5V/r5BgCAr+hDye7a8C8SAFj75xXRsdy7/rgWkABAACAAEAAIAASA1gNAdTVg6R+kn28AAPhGMLh3tT6Qu0MoALD2z2MiE/lPEgAIAAQAAgABgABgVwAwQ+UD8ann3ib9fAMAwBeMwfzOF4Z/lwOAMZy9WfrnR2Omty6cG5koPEIAIAAQAAgABAACgD0BwEqYU9bXpJ9vAAD4Yu2fPpj9jUwAYO2fV0XGC1ECAAGAAEAAIAAQAGwLALU/BSivl36+AQDQ0fSB/IeOGv5dDACs/fOu6saGyHjhHgIAAYAAQAAgABAA7AoAZsi6MxisrJZ+xgEA0JGiw/mltX8SAWAoc99kb4W1fx4WHSuMEwAIAAQAAgABgABgYwBIxJXyldLPNwAAOpI+mLvtmOHftU8A5APSPz9aVVkVmcjfTgAgABAACAAEAAKAXQHADFkPfEipnCX9hAMAoKPoQ7k/rf1zPQCw9q9TGJtz746MF+YIAAQAAgABgABAALApACRmlNKHpJ9vAAB01tq/wdwPhQIAa/86THSi8GkCAAGAAEAAIAAQAOwKAGbIejKmlN8o/XwDAKAjGIOZq5Yd/h0OAKz96zzqptR5kfH8YwQAAgABgABAACAA2BQAEqZavlX6+QYAgOeZgdzZ+mD2tzIBgLV/nSoyUZgmABAACAAEAAIAAcC2AKBYiWnFulT6+QYAgKfpg9m/O+Hw72AAYO1fZ68FjI7n7yUAEAAIAAQAAgABwK4AYCqlH8zOVk6WfsYBAOBJ2lDyzfpg9imJAGAM5e6pDonS1wDOiWwqTBAACAAEAAIAAYAAYF8AqH4hoLVV+vkGAIAn6QO5L644/Dv1CQDW/vlkLeD8nQQAAgABgABAACAA2BUA4qr1qz17Ki+RfsIBAOAp+mB6fV3DvyMBIHc7a//8ITKe/yABgABAACAAEAAIAHYFgNrRrGnp5xsAAJ4RDFZW64PZnwgFgLnIUJK1fz4RnZgPEQAIAAQAAgABgABgZwCYUa39cbVynvQzDgAAT9AGslfXPfzbHQAGs5+U/vnhnsim+f9FACAAEAAIAAQAAoCtnwBYigCfln7GAQDQ9vTBwsv1gezvRALAIGv//CQWTL8sOlHYRwAgABAACAAEAAKA3QEgrloH48r/8IlCAABOxBjM3dDQ8G9jAGDtn7/EJub3sAWAAEAAIAAQAAgATgSA5893+E4hAACWER0oXlDX2j8nAsBg5r7J3gpr/3xCC+ReH5koPE4AIAAQAAgABAACgIMBILFbOzIi/cwDAKAt6QPZLzU8/NsVAFj75yuRiflb6x7+CQAEAAIAAYAAQABoMgCYivVL03z6dOnnHgAAbSU8mOltavi3JQDk+Iiej+gTmYujE4WDBAACAAGAAEAAIAC4EAAS8VBJlX72AQDQNmZ7K6foA7mfCgWAuchQni/p8YnZ2crJkYnC9xsa/gkABAACAAGAAEAAaCEAmGrpkev1w6+SfgYCANAW9IHcZNPDf4sBwBjK3iz988M9sfHcFQ0P/wQAAgABgABAACAAtBIAqidk3Sj9DAQAoC3W/hmD2QdFAgBr/3zlmqHkmZGJ/K8JAAQAAgABgABAAHA9AKjlA9Pawtuln4UAAIgyBjMfa2n4byEAsPbPXyLj+Q82NfwTAAgABAACAAGAANBqAKhFAOvr0s9CAADE6H3Ft+gD2QMiAYC1f74S3ZI/Pzox/wQBgABAACAAEAAIAGIBoPanAOVe6WciAAAi9IHcl1se/psNAKz98xVjIv/5pod/AgABgABAACAAEABsCgBxtXzn7GzlFOnnIgAArtL75/tsGf6bCgCs/fMTfSzXbbQy/BMACAAEAAIAAYAAYNcnAGpn8WrpZyMAAK7RL6mcqg9mfyYUAFj758O1fwQAAgABgABAACAAtE8AKD20e3L+FdLPSAAAXKEP5kK2Df8NBoAwa/98xdiU31kd/gkABAACAAGAAEAAaJ8AUD3lD0s/IwEAcJw6/Ptz9MHsPpEAwNo/3639MybyvyEAEAAIAAQAAgABoP0CgPXU7skjb5J+VgIA4ChjIH+jrcN/AwGAtX/+ok/kP/TH4Z8AQAAgABAACAAEgDYLANU/Bfjf0s9KAAAcExnJvkMfyB0QCQCs/fPd2r/IxPwTBAACAAGAAEAAIAC0bwCwEruV8hrpZyYAAI7QB7NfsX34rzcAsPbPV4zx/L/++fBPACAAEAAIAAQAAkA7BgBTLd0RDO5dLf3cBADAVkZ/bsiR4b+uAMDaPz+u/SMAEAAIAAQAAgABoO0DgGIlZlRru/SzEwAAW9f+Gf3ZnwsFANb++Uj1v0Uxxgt3EAAIAAQAAgABgADglQBgqqX/jsXSL5N+hgIAYAu9P6Pp/Q4N/ysEANb++Ys+Udx1vOGfAEAAIAAQAAgABIC2DQCKlYgr1m7pZygAAC1Th4vn6APZfSIBgLV/vhLrTb/sz9f+EQAIAAQAAgABgADglQBgKuXHpxXrL6WfpQAAtMToz368NvxLBIDhvC7988M9xvj83y43/BMACAAEAAIAAYAA0N4BwErEVesW6WcpAABN04ez79T7swdEAgBr//y39m/s6LV/BAACAAGAAEAAIAB4LAAcnJ4qXSz9TAUAoCl6f+Yben8mIRIAWPvnK5Hx+duM8eWHfwIAAYAAQAAgABAA2j0ALH0hoPVdNhcBADwnMpgfWRr+JQJA7ts8PP0jNrbQXRv+CQAEAAIAAYAAQADwegCofRKgNCb9bAUAoG7B4Nxpen/mLqEAwNo/n639i4zP/5AAQAAgABAACAAEgE4JAKZSun92kj9jBAB4hD6Q1f80/LsbAFj75y/GWP6qF4Z/AgABgABAACAAEAA6IgBYibh2hC8yBgC0v+mBhXP1/szDIgGAtX++omyunGWMF35LACAAEAAIAAQAAkDHBQDFetQMHX619LMWAIAT0vuznzx6+HcxALD2z1f08fyHjxr+CQAEAAIAAYAAQADokABQO5p1k/SzFgCAZUUHc+/SBzJzIgGAtX++ok8U3lBb+0cAIAAQAAgABAACQKcGANWai2mLF0o/cwEAOK7wQOZbxw7/LgUA1v75ijFW+MIxwz8BgABAACAAEAAIAJ0UADQrEQ9bX5d+5gIAcAyjLzN2/OHfjQDA2j8/iWxa6Dnu8E8AIAAQAAgABAACQIcFgNrRj/RJP3sBAHjBZO8zZxj9mXtEAsAga/98vfaPAEAAIAAQAAgABIAODwAzqnWXrldOlX4GAwBQEx5Ix5Yf/p0NAOEB1v75iTFeuHrZ4Z8AQAAgABAACAAEgA4MALUTLl8r/QwGAOAktT91nj6QfffqPcIAACAASURBVEwmALD2z0/MQO7sY9b+EQAIAAQAAgABgADghwCglh7aPTn/CulnMQDA5/SBzD+eePh3MgCw9s9PjPHC359w+CcAEAAIAAQAAgABoFMDQPVPAbTSR6SfxQAAH9P6khcef+2fCwGAtX++Eh1PXWCMF54iABAACAAEAAIAAcCvAcDUrAN71CNvlX4mAwB8qbJK78/cvvLw79QnAFj75yeR8cIXVxz+CQAEAAIAAYAAQADo7ACQiGvlf5N+JgMAfCgykJmob/h3IAAMsvbPT/SJ/Jq6hn8CAAGAAEAAIAAQADo8ACxtBSivk342AwB8tvZP78/cKxIAWPvnK8FgZbUxlv8RAYAAQAAgABAACAAEgD9+IaD1k+rzUfoZDQDwCaM/N1P/8G9vAGDtn7+suPaPAEAAIAAQAAgABAC/BYClTwEEpZ/RAAAfUPsX61j751QAYO2f39b+RcYKDxIACAAEAAIAAYAAQAB48Sk9oCjZs6Sf1QCADqf3Zz7T2PBvZwBg7Z+fGGOFGxoa/gkABAACAAGAAEAA8E0AsBJx1doj/awGAHQwbSj9Xn0gc1AkALD2z1ei48X61v4RAAgABAACAAGAAODTAGBq1pPXR8vnSz+zAQAdu/Yv/b3Gh397AkBkMD8ifQXgHn2s8KWGh38CAAGAAEAAIAAQAPwVAKqfAvis9DMbANCB9P7U1uaGfxsCAGv/fEUfK2xsavgnABAACAAEAAIAAcBnAaB6rtNLF0s/uwEAHaT60Xt9IHOfSABg7Z8f1/79mABAACAAEAAIAAQAAkC9p/xfs7OVk6Wf4QCADmH0Z3Y3P/y3FgBY++cvkbHCtU0P/wQAAgABgABAACAA+DIAWIm49tyE9DMcANABYr3p1+r96f0yASD3aChw6NXS1wBtvPaPAEAAIAAQAAgABAACQPXcv2dP5SXSz3IAgMfp/dl/bm34byUAsPbPT/SJ3EdbGv4JAAQAAgABgABAAPBvAEiYqhWVfpYDADwsMpB5X3Nr/2wIAKz98+Hav1zja/8IAAQAAgABgABAACAAPP9nANajkcjia6Sf6QAAD5o9qXKy3p/Z2/rw31wAYO2fv+hjuS8Z4/nWhn8CAAGAAEAAIAAQAHwcAJ7/FADfnQQAaJw+mNtuz/DfRABg7Z+vGOPZy5eGfwIAAYAAQAAgABAACAAtBoC5uLLI9iQAQP30iWdfagxkfy0SAFj75yuzvZVTImOFnxIACAAEAAIAAYAAQACwIQAsRYBvSD/fAQAeYgxk9tg3/DcWAFj75y+R8dzkn4Z/AgABgABAACAAEAAIAC0HAM1KzIQXB6Wf8QAAD9B6/9/r9f7s4zIBgLV/fqIPFl5ujOd/RwAgABAACAAEAAIAAcDeABDXynfNBiunST/rAQBtTu/L/ou9w38jAYC1f35ijOU+dvTwTwAgABAACAAEAAIAAcCOAFD7FIBWmpJ+1gMA2pjen7lY77Nj7V8TAYC1f76iB4pvMcZyBwgABAACAAGAAEAAIAA4EwBMrbQvGi2+UvqZDwBo17V/fdnv6312D//1BQDW/vlLZKzw/No/AgABgABAACAAEAAIAM4EgOqnAMoflX7mAwDakN6fCdaGf4kAwNo/X4mOzfcdf/gnABAACAAEAAIAAYAAYGcAMLXygfjUc2+TfvYDANrINUPJM/W+9G9EAgBr/3xFv6RyqjGW+xkBgABAACAAEAAIAAQANwJA9QsBrX+Xfv4DANqI0Zf9mxeGf5cDAGv//EUfzYWM0eWGfwIAAYAAQAAgABAACAB2B4BaBAgdXi/9HgAA0AamNvzhfP3y7BMyAYC1f36iDv/+nMhofh8BgABAACAAEAAIAAQAdwOAqVp3BoOV1dLvBQAAwsJ9mX89avh3NQCw9s9PjNH8jbXhnwBAACAAEAAIAAQAAoC7AUCzErvV8i7p9wIAAEH65bnu8IuHf7cCAGv//Lf2bzR3gABAACAAEAAIAAQAAoBMADA16wFFyZ4l/Z4AACAgGNy7Wu/L3CEVAFj75y/GWO7LLwz/BAACAAGAAEAAIAAQACQCQMJUSn8j/Z4AACBAvzyzqzr8iwQA1v75ih7IDhw1/BMACAAEAAIAAYAAQACQCQCa9WRMKb9R+r0BAMBFsd70y7S+zH+LBADW/vlz7R8BgABAACAAEAAIAASAdggACVMr3Sr9/gAA4CKtP/vhPw7/Ap8A+IT0zw/3RAI55ZjhnwBAACAAEAAIAAQAAoBcAAhbiWndulT6PQIAwAXR4fz54cuzT8gEANb++cme4eKf1v4RAAgABAACAAGAAEAAaJsAYIZLP5idrZws/V4BAOAwvT/zb38+/Lv8CQDW/vl17R8BgABAACAAEAAIAASANgoAtf/zFun3CgAAB2m9uZ4XD/+uBYAB1v75SWRk4R3GaOFPa/8IAAQAAgABgABAACAAtFcACFv379lTeYn0ewYAgENr/8J9mR9KBQDW/vmLPpr/yrLDPwGAAEAAIAAQAAgABIB2CAAJU7empd8zAAAcoF2euvp4w787AYC1f35ijOaGTjj8EwAIAAQAAgABgABAAGiLABAPl/dfp5f+Qvq9AwDARmYgd7bWn/2tSAAYyLD2z29r/0ZzPycAEAAIAAQAAgABgADQ/gHg+U8BfEr6/QMAwEba5ZmPLDf8Ox4A+tKs/fORyGheW3H4JwAQAAgABAACAAGAANA2ASAetg7GI//Df1kDAJ0gNJC6QOvLPCUTALKPhtaz9s8vTrj2jwBAACAAEAAIAAQAAkBbBoDnz3f4c00A6ADhvuy/n2j4dzQADKRY++cjxlj+prqGfwIAAYAAQAAgABAACADtFgASpn5kWPq9BACgBfpAfs1Kw79jAYC1f76iT2TfecK1fwQAAgABgABAACAAEADaOwCErV+a5tOnS7+nAAA0IRisVNf+/VgqALD2z18iY/lv1D38EwAIAAQAAgABgABAAGjHAJCIayVV+j0FAKAJ4f6sUc/w70QACA9kvsXfkflHXWv/CAAEAAIAAYAAQAAgALR/AAiX9+1RK+dIv7cAADRAG8hMhPuyB0QCwEBmTutLXih9DeCOYHDuNGMsfxcBgABAACAAEAAIAAQA7weA6pnRSrPS7y8AtAn9kmdfanblznbrRNf/31dObfjD+V49kTXJ15iB3NlunFhv+rVaf2aD3pf9l3oHfycCQHggfbP0fYo2XPtHACAAEAAIAAQAAgABwBMBwAyXD8SN594m/R4DgA2UNYfeqK9ND6tr01F1TfKz6trU97Q1qbvUtcn/1tanHtXWpRL1n3R9Z31jJ1zv2eDQ6W3lZJY/lzt0Ghz2nQ0ArP3zE33i8KsiY/lHCAAEAAIAAYAAQAAgAHRSALAScd36svT7DABNCAb3rtbXJ7u1NekPq2uTv9DWphLLnoaGfwIAAeB4H//PsvbPR4zR/MebGv4JAAQAAgABgABAACAAtHUAqJ7denmj9HsNAHWa7a2coq1NbdHWpu484dBPACAA2BUABrK/NAOsjvGL6FjuXcZYbo4AQAAgABAACAAEAAJAZwaAuF6+c3a2cor0ew4AK9DWZCbUNan76h78CQAEAFsCQDogfe/DPcZo/ptND/8EAAIAAYAAQAAgABAA2j4ALEWAxfdLv+cAsIzql+ap6w7d0vDgTwAgALQeAL7N2j//iIznR1oa/gkABAACAAGAAEAAIAB4IwCES7/7sF55ufR7DwAvMtXz7MW1L/JrdvgnABAAmg0ArP3zleqfeUTG8r8kABAACAAEAAIAAYAA0PkBYCkClP9W+v0HgD8T6k52a+tSj7Q0/BMACADNBoC+9CekXwNwT3Q8r7c8/BMACAAEAAIAAYAAQADwTADYHbae3G0ceZP0exAAJ510Unh9alBbm3qi5eGfAEAAaCoAsPbPT8zA4Vc3vfaPAEAAIAAQAAgABAACgCcDQHzpCwH/Rfp9COB7oXXp99g2/BMACADNBICBFGv/fMQYy99sy/BPACAAEAAIAAQAAgABwFsBIFxOXKeXLpZ+LwL4lt777Ku0tan7bRv+CQAEgEYDAGv/fKXltX8EAAIAAYAAQAAgABAAPB0AdmtHvsuXPgMC9Esqp2prU9+1dfgnABAAGgwAkcH8iPRrAW6prIqM5m63bfgnABAACAAEAAIAAYAA4LkAUDv6kQHpdyWA76hr01Hbh38CAAGgsQDA2j8fiYzmR20d/gkABAACAAGAAEAAIAB4MgDsDpd/GgxWVku/NwF8w+hOvkntST1OACAAiAUA1v75ymTvM2cYo/m7CQAEAAIAAYAAQAAgABAAahFAf2679PsTwCcqq7Se1Ne0NQ4M/wQAAkC9AYC1f76ij+Yjtg//BAACAAGAAEAAIAAQADwbAOJa+a5gcC+fAgCcpvYkN9WGfwIAAUAoABj9mUdY++cfkaHka4xA/lECAAGAAEAAIAAQAAgABICjPgUQfm5U+n0K0PEfw1V7UvcSAAgAop8AYO2frxijhU8ZAQeGfwIAAYAAQAAgABAACACeDgBxrXwH3wcFOEhbk55+YfgnABAAZALA3az984/IeP4iYzQ3RwAgABAACAAEAAIAAYAAcEwAqH0XQHmj9PsVoCOp3anz1DWpxwgABADRANCXG5Z+LcAtlVXGSO5bteGfAEAAIAAQAAgABAACAAHgeAFAK98m/Y4F6EjqmkO3HDX8EwAIAC4HgPBA5lt8zMs/jEB+7IXhnwBAACAAEAAIAAQAAgAB4HgBIFw+EIksvkb6fQvQUdTu1F9ra1IHCQAEALEAMJCZi/QmL5J+LcDVtX/3EAAIAAQAAgABgABAACAAnCgAVI+pla+Wfu8CdJDKKrUn+Z1jhn8CAAHAxQAQHkjfLP1KgHsigUL0qOGfAEAAIAAQAAgABAACAAFgmQAQ18pflX7vAnQMbU1m4rjDPwGAAOBaAMg+yto//1D7U+cZgdxjBAACAAGAAEAAIAAQAAgA9QSA3eEj+3W9cqr0exig89b+EQAIABIBYCDL2j8fMUZznz5m+CcAEAAIAAQAAgABgABAAFjuEwDVoyzyp6JAq9S16eiywz8BgADgTgD4BWv//CMylL8oMpo/SAAgABAACAAEAAIAAYAA0EgAuE5/bpP0+xjA0yJrkq85Zu0fAYAA4GoAyO7Xh7PvlH4twD1GIPfZ4w7/BAACAAGAAEAAIAAQAAgAJ/oEgHYkIv0+BvA0bU3qkycc/gkABABnA8B92lD6vdKvA7grEig8QAAgABAACAAEAAIAAYAA0GgA2K2Vr5d+HwN4lrImeZG6JjXXHgEg+aS6LvXQ8idd39nQ2NHqPRvb8WSWP70Onb7Wj96Xvl/vy35d78u+P9abfpn06wDuM0byO41A/gdGIPdbI5B/6Kgz6sAZX+4UWjsTy59IK2eTQ2dLvWe+sbO1PU603rOt2VNc/mx36Fzh0Anac6ZffHY6dHY5dK5y6Lz/sP3n6qUzY/e51qHzgeOdxdbPpENnavljtnKUlU6pfY5a59GsJ0QDgP7ch6TfxwAeVVmlrknevuLw73AACK9L366sOfTGYHDvaukrAgAAAGB5s7OVk+NTz73N1EoPyAQAKyp9DQBPUnvSgbqGf8cDQFKRvhYAAAAA6meq1p0SAcDUyjulf3bAc6rftq6uSd/dDgFAXZv6nvT1AAAAAFAfUym9T+5LAP+/S6R/fsBztDUpve7h34XvAFDXp9dJXxMAAAAAK6msmlGt24UCwJyiZM+SvgKAp0xftnCu2pN6uK0CwLrUncFghe8AAAAAANqYqZYCcl8CaPHJYaBRak/y4w0N/25tAVifukr62gAAAAA4PtN8+nRTs34pFQBM7YgpfQ0AT9HXZN9Z19o/gQCgrk3+brJ3/hXS1wgAAADAsWa0Urih4d/mADCtPfd26WsAeIq6JvWNhod/tz4BUPtTgOTfSV8jAAAAAEfbo1bOiWvlfVIBYLd+ZK/0NQA8Re1ODTU1/LsbAJ7SNiTfLH2tAAAAAPyJqR65seHh39YAUA5KXwPAM/RLKqdqa1I/b/cAsBQB0l+Qvl4AAAAAlpj6kbeYmnVALgBYD0xOPnOG9HUAPCO8Jqk0Pfy7HACqJ7Tu2fXS1wwAAABA9W//ra82NfzbFQC0IxHpawB4htpTPEdbk97npQBQXQs421s5RfraAQAAAH5mKot9TQ//tgQA64EPXlM5U/o6AJ6hrknf2NLwLxAAamdt6mrpawcAAAD4VTBYWW2q1k8kA4CplXdKXwfAM9Se9Fu1ntQBLwYAdV3qIdYCAgAAADLMcPnalob/FgPA7nD5p9UIIX0dAM9Q16S+0vLwL/UJgKWtAH8vfQ0BAAAAvzHNytmmZj0oGQBM/Uif9HUAPENfm+2zZfiXDQBPhdanLpC+lgAAAICfmGrp71se/lsJANqRb0pfA8BTa//UNamfeT0ALH0XQPKL0tcTAAAA8IsZ7cibTdV6SjAAzMUj/3OR9HUAPENdkwzZNvxLB4B1qYS+Ls1aQAAAAMAFca38b7YM/80GAL38D9LXAPAM/ZLCy9U1yd91UgBgLSAAAADgvN261W3b8N9UACj9LhotvlL6OgCeofakPmbr8N8GAWDpTwGyrAUEAAAAHBIM7l1tauU7JAOAqS2y9g+oV3R96gJb1v61YQBQ16VZCwgAAAA4pDp82zr8NxoAtPJ/VSOE9HUAPCO8Jv0l24f/NgkA2rp09X/vI9LXGAAAAOg0H7ymcqapWr8RDABzM0bpPdLXAfAMtTt5uSPDfzsFgHXpA1MbM2+TvtYAAABAJzG18vW2D/+NBYCPS18DwDOCwcpqrTv1Yx8EgIS2Pv1V6esNAAAAdApTs15vquXHxQKAVn74ev3wq6SvA+AZ4a70tVqPQ8N/uwWA2p8CZDZIX3MAAACgE8wopc85MvzXHwD4sm+gXmZX7mytO/mgrwLAujRrAQEAAIAW7dZK742r1kGpADATLv24+mlm6esAeIbanbqhNvz7KwAk1PXZa6SvPQAAAOBdlVVxpfQ9U3Fo+K8nAKhWl/RVADwjdGnqArU7+ZQvA8C69EPR9f/3ldL/BgAAAIAXmZq1pTb8iwWAxVukrwHgKVp38osvDP8+CwBLnwJI3SD9bwAAAAB4zeTkM2eYinWvXAAoPRJXF8+Tvg6AZ2hdqZ6jhn8fBgDWAgIAAACNMzVr+oXhXyAAxPUjIelrAHhGMLh3tdaT/BEBoHoyX5P+9wAAAAC8ovrfvJuK9ZhUAIiHrZ/PBiunSV8HwDPUntT7jxn+fRsA0gllQ2aj9L8JAAAA4AUzqvXpo4Z/twOAXl4vfQ0Az1DWZs9Su1O/JQAcdX7KWkAAAADgxHarz73LVKw5sQCglW6VvgaAp2jd6Q8fd/j3dwBIhNenr5X+twEAAADamalY3zpm+HcpAMTD5f17DOt10tcA8IzopfnztZ7UEwSA42wEYC0gAAAAsKzd2pGR4w7/bgUAzYpIXwPAU7Se1G3LDv8+DwBLawEzrAUEAAAAXkTXK6eaivULqQAwo1l3mebTp0tfB8Az9O5k9wmHfwJAdSPAAW195u3S/1YAAABAOzHVkrbs8O/KJwDKvdLXAPDY2r/0HQSAOs4G1gICAAAAf7RHrZwTV8r7xAKAVr5N+hoAnqJ2Z3atOPwTAJbO+uoXAmYojAAAAEDtv/0/cuMJh39nA8ATu40jb5K+BoBnXPPXyTPVntRvCAD1BwB1feoX+iWVU6X/7QAAAABJpn7kLaZqHRALAJplSl8DwFOUrvTf1DX8EwBeCAC1sy79Ael/OwAAAEBSXLG+vOLw71AAiKvWfXv2VF4ifQ0Az5i69A8nXvtHAFg+AKxP72MtIAAAAPxqWl28vK7h36lPACilYelrAHiK2p36fN3DPwHgxQEgoW7I/IP0vyEAAADgtmCwsnpGKf1YMADwxdxAI9SeZFdDwz8B4JgAoK1PH1B702+V/rcEAAAA3GQq5avrHv7tDgCq9VQ0VLxA+hoAnjF7UuVktSf1fQJAywGg+oWAX5f+9wQAAADcYpqVs03VelAsAGjlD0tfA8BTtK5DVzQ8/BMAjhsAahFgXfJy6X9TAAAAwA2mWvr7hoZ/GwNAXC39TtcrL5e+BoCn1v5p3alfEwBsDADrU3cF3z13mvS/LQAAAOCk66fK55uK9aRUANitlndJXwPAU9Se1J6mhn8CwLIBYOkLAdOT0v+2AAAAgJNMtXxbw8O/TQFgRiv9uPrlg9LXAPAMrev/vV7tST1OALA/ALAWEAAAAJ0sFrK6mxr+7foEQLi8VvoaAJ6idB/6XNPDPwFgpQBQ/VOAj0n/GwMAAAB2m52tnGyq5f+SCgBxtfx56WsAeIqy5g/vU3uSBwkAzgUAbX3mgLY+83bpf2sAAADATjNqOdj08N96AHgyppTfKH0NAG+t/etO7lV6ks0P/wSAOgIAawEBAADQWT54TeVMU7V+LRcAytdLXwPAU0I9z26rDv8EAOcDQPXoG7N90v/mAAAAgB3iqrWnpeG/pQBQekBRsmdJXwPAM/RLnn2p2p38FQHAvQDAWkAAAAB0gthk6bUzqrVfKgDMqNZ26WsAeIranYz/cfgnALgTAGpnQ3pK+t8eAAAAaIWplP+55eG/6QBQ+kH1ywelrwHgGWp36jy1+9B+AoD7AUBdn354emDhXOl7AAAAAGjGbq303rhqHZQKANOKdan0NQA8Re1JfubPh38CgIufAKid1Kz0PQAAAAA0rrIqrpS+Z8vw30QAiKvWZ6WvAOApoa70e6pr/wgAkgEgc0BZ+4d3SN8LAAAAQCNM1dpk2/DfYACIa+X9ewzrddLXAPCQyiq1O3n7i4d/AoDbASCdCLMWEAAAAB4yOfnMGaZi3SsWAFRrRvoaAJ6i9iQ3HW/4JwBIBIDqFwJm+6XvCQAAAKAeM4oVs3X4bywA3L9nT+Ul0tcA8IzJ3mfOULoP3UsAaKMAwFpAAAAAeEDkmsXXmIr1mFQAiGvPTUhfA8BTtK7k9HLDPwFAJgBUj74+HZK+NwAAAIATiYesT9o+/NcfAL5b/VNm6WsAeGrtn9KVfIwA0H4BILw+/Yje++yrpO8RAAAA4Hh2q8+9ywxZcxIBIK5ZB+Pq4l9LXwPAU5TLDv2j0rX88E8AEA0AifC69I3S9wgAAABwPPGQ9U0z5MDwX98nAD4l/fMDnhLqOvRupfvQHAGgjQMAawEBAADQhkylNFwb/gUCwIxm7Y/FSq+VvgaAh1RWhboO3V4b/gkAbRwAahGAtYAAAABoG7peOTUesn4uFgDCliF9DQBPUbqS4y8M/wSANg8A1S8ETA1I3zMAAABAlakcUV4Y/l0OAHHVum92snKG9DUAPMN869Onq12H7iEAeCkAZFgLCAAAAHF71OI58VB5n1QA2K0dGZG+BoCnKJcdihw1/BMA2j4ALH0hYEaRvncAAADgbzNKafao4d/dAPBt1v4BDbj2sj+cq3QlHyYAeDAAsBYQAAAAgkz9yFvMkHVAJACo1lxcWbxI+hoAnqJ2J28+ZvgnAHglACTCG7KsBQQAAIAIM1T+0jHDv3ufALhJ+ucHvLv2jwDgzQCwPnMgsjbLWkAAAAC4ardS3njc4d+VAFB6ZHq6cq70NQA8Re1OfvO4wz8BwEMBoPaFgP8hfS8BAADAP4LByuqZUOnHUgEgrh3Rpa8B4CnaZemRZYd/AoCnAsDSSQ1K31MAAADwB1MpX73s8O98ALiftX9AA/RLKqcq3clfEAA6JwCwFhAAAABuMK+unB1XrN+KBQDV2iR9DQBPUbqfDZ9w+CcAeC4AVI+2IaNK31sAAADobPFQ+e9OOPw7GQDU0v+Zna2cLH0NAM9Qe4rnKF2pfQSAzgsA4Q3pR0LrD71a+h4DAABAZ7p+qny+qVhPiAUAzeqRvgaApyhdyZtWHP4JAF4NAAltQ/p/Sd9jAAAA6ExmqHTbisO/QwFgRi39q/TPD3iKcmn2HWpX6gABoHMDQHhjek5bl7xQ+l4DAABAZ4mFrO66hn8nAoBqHTD1I2+RvgaAp6jdh75a1/BPAPBuANiQTugbWQsIAAAA+1T/7j6ulL8vFwBKN0hfA8BTQj2pwbqHfwKApwNA9agbU0PS9xwAAAA6gxmyrqh7+Lc9AJT2RaPFV0pfA8Bba/+6kj8nAPgnAIQ3ZH5pBp4+XfreAwAAgLfpeuWlZsj6tVwAOKJIXwPAU5SupNLQ8E8A6IAAkE7oG1Ka9L0HAAAAbzND1nUNDf92BgDVuts0+S+1gLqpPb+vb+0fAaDjAgBrAQEAANCK2GTptTMha79UAJgJlUalrwHgKUrXodmGh38CQKcEgIS+MX2T9D0IAAAAb4qHrM82PPzbFwD+86STKqukrwHgGfra9FvUrkP1rf0jAHRkAKiuBVR6kxdJ34sAAADwlplQ6T1xxTooFQCu00sXS18DwFPU7tRXmhr+CQCdEwCWvhDwG9L3IgAAALykssoMlb7b1PBvRwBQy7dKXwHAU5SuZF/Twz8BoMMCQPULAdPD0vckAAAAvGG3Ym02Q6WEUAB4MqaU3yh9DQDPmO2tnKJ0JX9KACAAsBYQAAAAjZidrJxhhkr3SgWAuFr+W+lrAHiKetmhyZaGfwJABwaA6v9bqbD0vQkAAID2Fp9a3L00/EsEgNJDuyfnXyF9DQDP0C8pvFztTj5IACAAHOcLAR9lLSAAAACWc51e+ouZ0OJ+qQAwEyp9QPoaAJ6idD37kZaHfwJAZwaA6qcANqQ/IX2PAgAAoD2ZocO3/mn4dz0A/ELXK6dKXwPAMz7Q8/vXqd3JJwgABIATfAqAtYAAAAA4Riy00H308O9uAIiri0PS1wDwFLU7dYstwz8BoHMDwNJGgG9XV7tI368AAABoD8Hg3tVmaPEOwQDwHd6fAg1QLv3DO5TuQ3ME/5YYXwAAIABJREFUAAJAfREgx1pAAAAA1MSVxSuPHf7dCQBx1TpoKqX3SV8DwFPUruSXbBv+CQAdHwC0Den7JnsrZ0jftwAAAJBlXl05O66UfisYAG6RvgaAp4QvPXSZrcM/AaDjA0AtAmxM6dL3LgAAAGSZU6W/P/7w70YAKD++5wPW66SvAeAhlVVq16HvEgAIAI0GANYCAgAA+Nt1oSMXmKHSU4IB4HrpawB4itKV7LN9+CcA+CMA1E7yZul7GAAAADLM0OKXlh/+HQ8ADyhK9izpawB4iiP/7T8BwD8BYGN6TluXvFD6PgYAAIC7zNDh3hMP/84GgBmtfJX0NQA8Rb0k2eXI8E8A8E8AYC0gAACA7+h65VRzavFnYgFALf0oGKyslr4OgKcolyW/SAAgALQaAJ7fCjAifT8DAADAHdOhhZA5tdLw70wAqK79i2vWJdLXAPCUqUv/cL7SdWiOAEAAsCkAsBYQAADAB/aolXPiU6V9UgHADC2y9g9olHLpob9RLnNo+CcA+C4A1P4UYGOWtYAAAAAdzgwtfrw2/AsEgLhiPRpXF8+TvgaAp1T/Xka57NADBAACgJ0BgLWAAAAAnc0MHX63OVWaEwsAoZIqfQ0Az1EuO7SxNvwTAAgAdgaApcNaQAAAgA4Vn1r85gvDv9sBQLXung1WTpO+BoDnhC47dAsBgADgSADYmJ5TepMXSd/jAAAAsNdMqDR61PDvcgCIa89NSF8DwKMf/0/tIwAQABz6BEA1AtzOWkAAAIDOMTtZOcOcLN0rGAB+MjtbOVn6OgCeo/dkLn5h+CcAEACcCAC1CJAZlb7XAQAAYI/4pBU5Zvh3MQDE1SMh6WsAeJJyWdIkABAAnA8A6Xsme59hLSAAAIDH6XrlVHNq8QGxAKCWD5ihw3zRNNAMpSv5ZQIAAcDxALAhndA2pCLS9zsAAABaEw0VLzju8O9aACj9SPoaAB5VWaV2JR8kABAA3AgA4Q2p/bHe9Gul73oAAAA0b+aa+TfLBoDybdLXAPAktef35xw1/BMACACOBoB0QtuY+aT0fQ8AAIDmzc5WTjGnSv8tFQDiavnz0tcA8KRQ16F3EwAIAG4GgOpawEhvnrWAAAAAHhafPKwLfgngd6R/fsCTQpce6iUAEABcDQDV05thLSAAAICHTU4+c4Y5VbpHJgCUH58NVk6TvgaA5yhdzw4TAAgA7geAdELdmBmTvv8BAADQvPhUaUxqDaCpHOmT/vkBz1G7D40RAAgAEgEg3Ju+l7WAAAAAXlZZZYZK3xYJAGrpC9I/PeA5/AkAAUAwACT03nRU+jUAAACA5k1PLf5VfKp00O0AEFetg3Hlf/heKaARyqV/eB8BgAAgFQC03vRjan/qPOnXAQAAAJo3M7n4aff/BKD6KQDru7OzlZOlf37AM65Zk3wNAYAAIBUAap8C2Jj5lPTrAAAAAM2Lq4vnmaHFx1wPAEsrAa+R/vkBT1EuS+0jABAApAJAuDd9UN9Y+Cvp1wEAAACaNzN1OCYRAEzVemK3+ty7pH9+wDPUrtTXCQAEAMEAUP0ugG+zFhAAAMC7ZicrZ8SnSve5HgCWzk9mZyunSF8DwBNClyanCQAEAMkAUIsAG5Lj0q8FAAAANG86tDAhFAASplK+VvrnBzxB70n9FQGAACAdAFgLCMiYPalyshnInd1uR99W+ovolvz5bXXGixfENuUvdPTsaPxMb11YI3KCy5+Z4GL/9PbiSFNnpzMnsqMwEQsWd7bbmdl1WJ3eeVg75ly1EJrZtTBqBp4+Xfr3BNDgWsDvSgSAuFL63e7J+VdIXwHAE5RLkz8nABAAhANAIrwxHZN+LcA/pgcWztUDhU2RkbymD+euM4ZzN0QC+U8aI/nPGyP5r0ZG8t83RnI/N4ZzvzFG8g/VTqDFM5rfbwTyiWPOqANnfLlTaO1MLH8irZxNDp3N9Z75xs4Wh862xk6s3rO92VNc/uxw6Fzh0Anac6aDC0efnQ6dK5dO7MrirPTvS6ARM6HSe+JK6aD7nwCofh9A+Qbpnx/w3p8BEAAIAEIBgLWAcFNkJP8NYySfaOgEHDoEAAIAAYAAsFwA2Fm8Wvr3JdAoM7R4i0wAsA6Y+pG3SP/8QNvTL3n2DeplyYMEAAKA6CcAaifzaenXA/zBCBRuIAAQAAgABIC2DgC7Fn61J1h5ifTvS6BRscnSa2dCi/tdDwBLnwL4kvTPD3iC0pX8NgGAACAfANIH1fWpv5Z+PaDzVT9tYgznHiMAEAAIAASAtg0AV85vk/5dCTTLDFnTIgGgekLlXumfH2h76iXPDhEACABtEAAS2sb0d1kLCDcYgWyMAEAAIAAQANo0APxgdrZysvTvSaBZk5PPnGGGSveKBADF+ilrAYEVVVaplyV/RAAgAEgHgKXvA0hOSL8i0PmqmyeMkfw9BAACAAGAANB+AaB4qfTvSKBVuxVrs1AAYC0gUA+tK7WFAEAAaIcAEN6Yvn9Pz+/5u0c4Th/JjBMACAAEAAJAOwWA2M7irdK/GwF7VFbFQ9btMgGg9FA0Wnyl9BUA2tpsb+UUtSt5NwGAACAeAKqfAtiQnpZ+TcAPKquMkdy3CAAEAAIAAaBNAsCT8WD5DdK/GQHn1gK6FQCsxIxS/qj0zw+0vdBlyZ0EAAJAOwSAcG9qv9q/yFpAOC4ylL/ICOTmCAAEAAIAAUA6AMR2LnxQ+nciYLd4aPEzEgGguhZwj3rkrdI/P9DWgsG9q5Xu5A8JAAQA+QBQ/S6A1D9KvybgD8ZI4VMEAAIAAYAAIBkAYruKDyibs2dJ/z4E7BZXK+f9aS2giwFg6XxN+ucH2l6oO9lNACAAtEMAqK4F1DdkLpZ+TaDzTQ8snGuM5B8mABAACAAEAKkAMLOrGJT+XQg4xVQsUygAsBYQqIfalfwCAYAA0AYBoHr+k7WAcIM+ko8QAAgABAACgEQAiO08/JNgsLJa+vcg4JTZycoZ8VDpPpEAoFi/0PXKqdLXAGhrWlfyzUrXoacIAASANggACa03w1pAOM4MPH26MZy/mwBAACAAEADcDgAzOw+vk/4dCDhtRjm8VSgAJGZCpQ9I//xA21MvO3QDAYAA0A4BgLWAcEtkKD9KACAAEAAIAG4GgNiuhdukf/cB7qisiiul70kEAFMp7WMtILACsyt3ttqdfJAAQAAQDwC96YR+OWsB4Q5jOP9NAgABgABAAHAjAMR2LTxl7Jp/k/TvPcAtuydL740r1kH3A4CViIdK/yD98wNtL9R16AMEAAJAOwSAcG96v7I2+5fSrwl0vuhY7l3HXQtIACAAEAAIAHZ/AmDX4Q9L/84D3BYPWZ+VCACmWj4wrS28XfrnB9rabG/lFLUr+TMCAAGgDQJAIrwxc4v0awL+YAznbyYAEAAIAAQAZwNA8aHdW+ZfIf37DnBbbLL02pmQtd/1AFCLANbXpX9+oO0pXck+AgABoC0CQG+GtYCQWwtIACAAEAAIADYGgNjO4tXSv+sAKfEpa7dIAFCsxLS6eLn0zw+0PbU79RUCAAGgDQJAIrwx+/3ZkyonS78m0PmigbxOACAAEAAIAI4EgF2H76x+ylL69xwgRdcrL40r1q8kAsCMat01G6ycJn0NgLamXJp9h9qVOkAAIACIB4DeTELfmN0k/ZpA5wsG504zRvJ3EQAIAAQAAoDdAWBm1+EN0r/jAGnxkLVNIgDUvhBQLU1K//xA21O6kjcRAAgA7RAAwhszrAWEKyIj+RECAAGAAEAAsDMAxHYd/pr07zagHczOVk42Q6W9EgGAtYBAHdSe4jlKV/JhAgABQDwA1E5uRvo1AX+IjOS/QQAgABAACAC2BIBdhw/Er1p4m/TvNaBdmErpfXWtBVQc+RQAawGBlYS6D+kEAAJAewSALGsB4Qp9OPvO2lpAAgABgABAAGgxAMR2Hv6o9O80oN3MKKXPSQQAU2MtILAi861Pn652Je8mABAA5ANAJqFdnvmM9GsC/hAZyX+CAEAAIAAQAFoJALGdC/ui7+cjx8CLmZr1ejNUftz9AMBaQKAuoe5DowQAAkA7BADWAsIte4aL5xij+YcJAAQAAgABoOkAsGthSvp3GdCuzJB1nUgAqB5lsU/65wfaXqjr0O0EAAJAGwSAhNab+S/WAsINxmg+TAAgABAACABNBoC7gqwdA064FtAMWb+WCACsBQTqoPek/krtTh4kABAApAPA0p8CZLdIvybQ+fRLKqcagdwvCAAEAAIAAaDRADBz5WK/9O8woN3FFWuHyCcAqhFAK/EJHWAloe5DtxAACADtEABYCwi36IHcMAGAAEAAIAA0FgAO8zfGQN1rAct7JQKAqZYfnp6unCt9DYC2pnanzlO7Du0nABAAxANA9VMAfWlT+jUBfzBG818lABAACAAEgDoDwFzsysULpX9vAV4xPVW6+LhrAZ0OALUIUPqY9M8PtD21OxknABAA2iEAhC/P7lcGWQsIt9YCFg4QAAgABAACQB0B4Cbp31mA15ih8q0iAUArH9itLLxD+ucH2pr+/7N3p2FylXXC/xMWjQKiuICOwDyogyIzIgjdXdXQ2buT7uypztJ7nVOn9qoEZNRhtMEZYUQdEHXG9dERxhmDiguoKIoCshMISeqFb7j+82Bq37c4b+p/VQeRSNJd3V11fnfV+X6u67xxmcmpOvct55tT53fFH16vXRX9DQGAACAfABIRoy/xWek1AWtwD6Q/SQAgABAACACzj/0rPBV0FN4qvV8B7eaEYwFNCQCMBQQaol8Z20IAIACoEADqh74ieYX0moA1xgJ6BtJPEAAIAAQAAsBJA4Cj4JLeq4B2FXRWrhUJAPXDqDIWEJhNfQSb1hXdRwAgACgRABgLCJO4B1IaAYAAQAAgAJzw5n9H4RfBgd+/VnqfAtrVdaO1M44bC2hiAGAsINCAye4/XD7rWEACAAHApABw7KcAsc3SawKWGQv4MwIAAYAAQAB49VHql96jgHYXmKw4RJ4A0MsRv1aakj5/QHnaVUfuIAAQAFQIAPryxMO+vviZ0msCnc/bn1pNACAAEAAIAMcdOwrfWbKktlR6fwI6YSxgyFm5WyIA1McCXmsU3iL9GQBKm/zQi+drXdHnCAAEAOkAMPMUwPJESHpNwBqM/vTXCQAEAAIAAeDYzX/+sN9R/FvpfQnoFL6pcpdIAKj/FEAvTUufP6A8/ar49QQAAoAKAcC1PPmse2Xqr6TXBDqfpz9/8aLGAhIACAAEgM4JAMP5W6T3JKDTBKdKX5AIAIwFBBpQf+xauyr6MAGAACAfABIR14rk56TXBKzBvS59IwGAAEAAsHoAKOzfM1J6u/R+BHQa72T6/KBWfs78AFCOhFyMBQTmpF8V20UAIAAoEQAYC4h2GAtIACAAEAA6IgB4h3M+6b0I6FQBZ+l6iQBQP/bo1ZXS5w8ozeHYd6p2VfRHBAACgAoBwLU88X3GAsIMnoGUkwBAACAAWDMA+IYLD+511F4nvQ8BHT0W0Fl+SCIAMBYQaIB+VaybAEAAUCQARPRrYluk1wQsMxbwpwQAAgABwHoBwDuc3yC9BwGdLqxVdkgEgJmfAmhVxgICc9GuOvJVAgABQIkAwFhAmMSzLruSAEAAIABYKwD4duS/Vx9XJr3/AFZ4yjioVe6RCABBvfQUYwGBOUx9KHaR86ojzxMACADSAeClIyy9JmAN7oHU1wgABAACgEUCQH3s33Dpcul9B7CKcH0soEgAKEeCWvlG6fMHlDfVdeTjBAACgBoBgLGAMIcxkHuXeyDV+FhAAgABgADQxgGg8FnpPQewmqBW+pJIAJgZC3iUsYDAbIwrMmc7u448RgAgAMgHgPpPAZL/Kr0mYA2egdQ0AYAAQADo8AAwXHjW7SAsA2a7drLSnLGA8w4AjAUEGjLV9eIUAYAAoEIAqB9GX/JD0msCnU9b+z+NjwUkABAACADtGQAceX5aBggJaZW/lwgAMxHAWV0lff6A8m/GdnZFf0YAIACoEAAYCwizGOtSUwQAAgABoEMDwHD+YZ+Dl8sCUq531s4KOcu/EwkAeoWxgMBcprpjqwkABABFAkBEX5liLCDUGQtIACAAEADaLgAEdhS2Su8xgNUF9MouiQAwc7iqTunzB5SndR35BgGAAKBEAGAsIEziXZ9dQQAgABAAOisA+Bz5H9THkUnvL4DV1ddhyFn5oUgAYCwgMDejJ/leZ/eRQwQAAoB0AJiJAH2JPdJrAtbgGch8lQBAACAAdE4A8DvyPdL7CoAmjAVcVACojwWsMhYQmMtU15FPEQAIACoEANfy5HPG6swF0msCnW/OsYAEAAIAAaB9AsBw4fPSewqA44WclX+TCQDlQz69+H7p8weUNnbli292dkWfJAAQAOQDQP2I3ya9JmAN7oHUJwgABAACQNsHgAO+rZkLpfcTAMcLGZULgs7yAdMDAGMBgcY4u494CAAEADUCQCLiuiZ5pfSaQOczVmfO9gykHiUAEAAIAO0cALLXS+8lAE4spFU+KhEA6kfAVVwtff6A0ib6XlimdR15gABAAFAiACxP/ICxgDCDZyA1QQAgABAA2jYAPFIfOya9jwA4sWCw9oZ5jwVsUgBgLCDQgKmeF4cIAAQARQJAxFiRYpwTWm66r3aaZ13mPgIAAYAA0H4BwOvI7ZDeQwDMLugsjkgEgGMRoKRJnz+guNpSrSt6FwGAAKBCAHD1JR5hLCDM4O5PLicAEAAIAO0VALyO3E8cjhpj/4A2GAsY1Eo/kggA9bGAwanCW6U/A0BpU1fFP6B1Rw8TAAgA4gGgfqxI7JVeE7AGYyB1/FhAAgABgACgdADwOTK90vsGgMYE9XK3TACoPwVQvkn6/AHlObujnyUAEACUCADLEwcYCwgzeAdzF7kHUs8TAAgABIA2CADD+X+X3jMAzE/QWfqyRABgLCDQAK0rdq7eFd1PACAAKBAAInpf/HbpNQFrMPpT/0gAIAAQAJQPAAd9jty7pfcLAPPjncpdFHSWnzc9ABw7viV9/oDy9O7YHgIAAUCFAMBYQJglOJB6w8tjAQkABAACgKoB4B+k9woACxNwlv5BKABEQlpxjfT5A0ozrvjD6/Wu2G8JAAQAJQLA8sQP6i+RkV4X6Hye9ZkxAgABgACgZgDwOnKPhzdl3yi9TwBY+FjAoFZ+VCQAGJX7g8Hfv1b6MwCU5uqKbyMAEAAUCQAR1/L4Nuk1gc5Xf6u4e13qxwQAAgABQMUAkB+V3iMALE5Iq4xKBICgqxwJGiVd+vwBpU0vqZ2idcfuJgAQAJQIAH2JR5y25FnS6wKdz1ifuYYAQAAgAKgVALyO3H3TfbXTpPcHAIsP7QFn6cciAcDFWEBgTlp39CoCAAFAiQBQfyHg8sS10msC1uBel/oKAYAAQABQJwD4t2WXS+8LAJoj7KxcIxMA6k8BlD8pff6A8rSu2BcJAAQAFQKAa3nyucmrXzxfek3AImMB16UOEgAIAAQA+QDgHc59Q3pPANBcQa3yVZEA4KocDBhH3yt9/oDSvB9Kn693x54jABAA5ANAImKsSH5eek3AGtwDqRsIAAQAAoB0AMgf9O/I/430fgCgufZMVU88FrDlAaAcCbnKdy1ZUlsq/RkAStO74h8hABAAVAgAMxFgVbpHek3AImMB16UeJQAQAAgAcgHA68h9QnovANAaAWflHyUCwEsvBFwrff6A0oJXpd6gd0UfJQAQAFQIAK4VjAWEOdyDmRECAAGAACAUAIbzT2iO3DnS+wCA1ghPZN8YdJYelwgA9bGA047aa6Q/A0BpendshABAAFAkAET0lfHt0msCVhkLmP4RAYAAQAAwPwB4t2enpPcAAK0V0koTIk8AMBYQmFv9b1z17uiPCAAEABUCgGsFYwFhDmMo3UMAIAAQAMwOANn7HfztHNDxpqdrpwWd5ftEAgBjAYG56VfFugkABABFAkDEWJm8TnpNwBo861JfJgAQAAgA5gWAgKO4UnrdAzBH0FlcIRMAZo5/kj5/QHl6V/TLBAACgAoBwLUiccC5InOh9JpA5/MOxi5yr089TwAgABAAWh8AvMOFb0qveQBCYwHNDwCHQs7ipdLnDyht6kOxi7Su6PMEAAKAAgEg4lqZuEN6TcAa3OtSHyMAEAAIAK0NAF5H7pDbUbhEer0DMFfQqL4rqJUPCgQAxgICjdC7Y/9AACAAKBEAZo64TXpNwBpjAd3rUr8jABAACACtDAD5G6XXOgAZQa30CYkAcOyFgFXGAgJzjQXUumK/IwAQAFQIAPqKxD2MBYQZPOsyuwkABAACQGsCgNeRf8rYVXiL9DoHIMMwameHtNJjIgHAVf5FMPj710p/BkB7jgUkABAATH8CYCYCDEuvCXS+emjyrEv/kABAACAAtCIAZDXpNQ5All8rTQkFgEhAL7mkzx9Qfj72CccCEgAIAAIBgLGAMItnINVNACAAEACaHQDyjP0DUH8K4PSgVv6pRAAIucpPMxYQmIPTFushABAAFAkAEdeK5Iel1wSswb0+828EAAIAAaB5AcDvyK2RXtcA1LBHr66UCAAzEUAv/7P0+QPK07ujXyEAEADUCACMBYQ5jKHMBZ516ecIAAQAAkATAsBw7lvSaxqAWkJ6+WsSAYCxgMBCxgISAAgAcgGg/i6AL0ivCViDMZj+CAGAAEAAWFwAqI/9821Lv196PQNQcCyg3sSxgI0HgEjQKP8nYwGBOWhdsRsIAAQAFQIAYwFhFufG5FnzGgtIACAAEABeHQCG85+UXssA1BTUyjeKBABXObKHsYDA3GMB9a7oowQAAoAaASDx4/pLKqXXBTqfe316FwGAAEAAWNhRH/sXdPDCLQAntlfLnRPSK09IBIAwYwGBuWldsVECAAFAkQAQ0VekGQsItcYCEgAIAASAv3gCIMvILQCzCrqqTokAEDr2QkBD+vwB9ccCdsV+TAAgAKgQAFwrkowFhCl86/NdBAACAAFg3n/7/4vgAH+7BmDusYAhvfwziQAQdlUYCwjMxdmTuIYAQABQIwDUnwKIXy+9JmANxrrUlwgABAACQOOHfzjXL71uAbSHgKu4WuQJAFeFsYBAI7Tu6FcJAAQAFQJAfSyguy/619JrAp3Puyl9/pxjAQkABAACwEuP/ud5wzaAeQlq5a+LBABX5VDI80fGAgKz8fbGLtJ6os8TAAgACgSA+vFF6TUBa/CsT19PACAAEADmePR/e+6QZ5gZ2wDmJ+w8enFQrxwUCACRsFElWgJz0WyxGwgABABFAkBEWx63S68JdD5fX/xM97rUQwQAAgABYLYAkP2U9FoF0J5CevkmiQAwEwH0Kj9bAuYcC9gdfZQAQABQIQC4ViR/wlhAmMFYl95BACAAEABO9uh/7mnPluLbpNcpgPa0V6stfCzgIgNASC//enqitkz6MwCUpnfHxwkABAA1AkAiYixP7JBeE7DGWED3+vQ9BAACAAHghIdbeo0CaG9BraSLBID6YVQZCwjMORawp4ljAQkABIBFBADGAsIsxvrUiccCEgAIANYOAL+e4G/PAEiNBWxCAKiPBfR4eIoJmJWr+0gfAYAAoEYASESMFUnGAsIU7vWpLxIACAAEgD8fnm35ddLrEkBnCDpLa0WeAJiJAGXeYwKYNhaQAEAAWGQAYCwgzOJde4KxgAQAAoBFA4B3e/47vEEbQDMFtfJ/SAQAxgICZo4FJAAQABYfACL6isSXpNcErMFYnzx+LCABgABgxQDgyB32O4p/K70eAXSWgHH0vfMaC9i8ABAJuapETWAuek/sHwkABAAVAsDMTwH64r3SawKdb3RN9IzjxgISAAgAFgwAXkf+Fum1CKAzBbXyP8kEgEokaFQHpM8fUJpxRebsRY8FJAAQAJoUABgLCLO416eHCQAEAOsGgPx+Y0vp7dLrEEDnjgUMapUnJQIAYwGBBmjdRyYIAAQANQJAIuJamdgpvSbQ+aaX1E7xrE/fTQAgAFgxAHi353zSaxBAZwvpZUMkAMy8ELDKaFNgNtN9tdP0nth9BAACgAoBwFiReMxYnTlbel2g87kHU1cRAAgAVgsA3u25B/c6aq+TXn8AOn8sYFAr/1wmADAWEJiT1hVdTgAgACgSACLGyuRHpNcErMG9Ln0HAYAAYKUA4N+WH5Jed7CWPSOltwdGi98KjBWf9I8VvnC9s3aW9J8J5gjr1X6JADBzGNWbpc8fUJ7WE/s6AYAAoEQAYCwgTOLdlD7fsz79HAGAAGCFAODdlv8v3pANc9WW+kcLdwZGi5E/Hf6x/Kel/1QwS21pUC/fKRMA6mMBi4wFBOYaC6h3xw4SAAgACgSAiLEixVhAmMIzmL6OAEAA6PgAUB/7tyV7ufR6g7UER0sDr7z5nznGioeDY9kPSv/ZYI6wdvR9Qa18SCAA1J8CYCwgMBetJ/ZxAgABQI0AwFhAmDgWcDD1WwIAAaCTA4DXkbtVeq3Ber8BD4wW7n9VABgtRoJjBW7MLCSolT8lEwDq7wM4uk76/AHlxwJqPdHHCAAEACUCwIr4vYwFhBncg6ntBAACQOcGgPx+/87yO6TXGawlMFZwnejmf+YYr/8UoNQv/WeEOfz+2ptPOhawxQEgZJQfZCwgMAe9KzpJACAAqBEAEhH3isQu6TUBC40FJAAQADowAPgdOb/0GoMF58CPFp+YLQAExku/cDhqr5H+s8IcIb3skQkAMz8F8EifP6D8WECtJ/ZTAgABQIUAYKxMPDbRl32j9LpA5zOGEpd7BtOHCQAEgM4KAHnG/sF0gdHiTSe9+X85ANR/ClBySv9ZYY5g8PevDWrlX8oEgMr+D/tq50l/BoDSDFtyBQGAAKBIAKj/FOCj0msC1uBZn76dAEAA6KQA4HHkN0qvK1hLcLz6rsBY4WAjASAwXnzKP5Z/s/SfGeYIaaX1QgGAsYBAI/Se6NdvC+e1AAAgAElEQVQIAAQAJQLAysRBX1/83dJrAp1PH0i90z2YfpYAQADokADwvenp2inS6wrWEhgrfm3Wm//jA0AkMFb4uPSfGeZ51VhAkwJA2Kgc3mv88W+lzx9QmmGLv6uhsYAEAAJA6wNA/fg36TUBa3CvT+0lABAA2j4A1Mf+DZcY+wdTeceLK+a8+f/LADBeOhiazL9H+s8OcwSnCpccNxbQtCcAGAsINETrjn2CAEAAUCQARIzVGcYCouWMoT+8/thYQAIAAaCNA8D23Gek1xKspT61JzBa+Mn8A0D9XQDFL0v/+WGeoF6+RSYAVCIhd2m99PkD7T8WkABAADArAKyM31t/SaX0ukDnM9anthIACADtGwAY+wfzBcdKYw3d/J8gANQP31iByG8RIa14blArPyMSABgLCMxN64lOEQAIAGoEgPq/ltwtvSZgjbGA7sHMPgIAAaAdA4B3ey4ovYZgLcGR2hsCo8VHFxMAAuPFn9SfIpA+F5gj4Cr7ZAJA/X0AZa/0+QNKM66onT7rWEACAAHAzACwMvE4YwFhBs9A4oOewcxhAgABoJ0CgNeRe/i60egZ0usH1hIYKfxDwzf/Jw0ApYhvvDgsfS4wx8TEC8uCevkBiQBQHwu4xyi9XfozAJSm90RXEgAIAIoEgIh7Vfxj0msC1uBen76NAEAAaKcA4Hdkt0ivG1hLYDT7fwKjheebEQD8Y8VHfI74mdLnBHP49dKQUACIhI3qLdLnD7TvWEACAAHA5ADAWECYxbe+dJ57ML2fAEAAaJMA8H3G/sFsgbHiv83r5n+WAPBSBNgjfU4wS21pwFW+SyYAMBYQWPhYQAIAAcD8ABAxViV4YzBMYQym9hAACADtEAD823Ifkl4vsJbwaLlr3jf/cwSAwHj5Wb+Tl1hahU8vvj/oKh8yOwAwFhBokNYTvZEAQABQIgAwFhCmjgXM/oYAQABQOQB4t+f+VXqtwFocjn2nBseK9zQ/AJQiwfHyrdLnB/ME9fKnZQJAJRIwSoPS5w8oTev+n3P0ntgTBAACgBIBgLGAMIl7MLWFAEAAUDgAPOfdUTlfep3AWnwjxeEF3fw3EAAC46XD/pHs5dLnCBPHAurlZyQCQH0s4N69tddJfwaA0rSe+PFjAQkABACxAJCI6KtiI9JrAlYZC5ie31hAAgABwKQA4Nme5TfTMFV90oR/rPhQCwNA/fgvHs+2jqBR9ssEgPp/vuyTPn+gvcYCEgAIAIIBgLGAMIu+PnvZvMYCEgAIACYEgPrYP96aDrMFx4rXLvjmv/EAUD/WSZ8rTBwL6Cr/SiIAhI0qYwGBuTh7YqsIAAQARQJA/fgH6TUBa3APZj5HACAAKBUAthW2Sq8LWEtwJPXOwFjxWTMCQHC89MvgwO9fK33OMEfQKG8QeQKgfrir/yJ9/oDytJ7Y1wkABABFAgBjAaHeWEACAAGgxQHA68j9gLF/MFtgtHDbom7+5/cEQMQ/XtKlzxlmqS0NzTEWsFUBgLGAQAO07vi7Z8YCEgAIAPIBoP5CwG9IrwlYg2d9JkQAIAAoEQCGc1dKrwdYi2936bLAWPGwmQEgMF566tpdhbdInzvMEXCXPhBylQ+b/gTAsZ8C8N4JYC5aT/xGAgABQI0AkIh4Viaull4T6HwTfbVl7sH0rwkABADhAHC79FqA1dSWBsaK+xZ98z//ABAJjpU+IX32ME/IVb5VIgDMHHppSPr8AaVp3blzdFv8CQIAAUCFAOBemWQsIExhrMtuJgAQAMQCwNbcAd/WzIXS6wDWEhwrbGrKzf8CAkBgvHwwNJl/j/RnAHOEtNpJxwK2PAAwFhCYm6sn6iQAEABUCADHjuSo9JqAFdSWegYz3yUAEAAkAoB3a/5a6RUA672h3T9W+JVcAChFAmPFr0h/DjBPyFUOyASASqQ+klD6/AHlxwLqttjPCAAEADUCQOJxb+//9ybpdYHON+dYQAIAAaAFAcC7LfeIc2PyLOnrH9YSHC36m3bzv9AAMF6K+MYKvdKfBWTHApoRABgLCDTA1RtbTQAgACgSACKulYkbpNcErMEzmPkMAYAAYGoA2J5zSF/3sJbQzuK5gbHCMyoEAP9Y8V6Ho3aq9GcCcwT18iaJAPDSUwCflj5/QHmaLfZ1AgABQIUAUB8L6F6d4LeCaLnQhuK57vXpZwgABACTAsA9Dsc+bn5gqsBY8V+aevO/iAAw80LA8cqw9GcCM8cClr4rEQDqYwH3GKXLpT8BQGlOW/Ji3RZvzlhAAgABYHEBgLGAMI17MBMgABAAzAgA3m15m/T1DmvxjhXeFxgtHFIpAPjHio84nfwMxirCeumyV44FNCsAMBYQaJBuj99EACAAqBEAZv7710ivCXS+ib4X6mMBf0UAIAC0NgDk75C+1mE9/tHCnU2/+V9kAHhpKsBe6c8G5gka5c9KBICZw3OUsYCAKWMBCQAEgCYEAMYCwiyewcxGAgABoGUBgLF/EOAfK/W35Oa/GQFgrHTAO1k5X/ozgnljAQOu8n6RAGBUGAsIzEWzxXQCAAFAhQAw80LAFckx6TUBK6gt9azP3kUAIAC0JgBkr5e+wmEthlE7PTBS+LmyAWDmXQClz0p/TjBPwCiHhAJAZI9RZSwg0PKxgAQAAkCTAgBjAWEW92DmA8eNBSQAEACaEwAeuX5jjd87w1T+kYIeGGnRzX+TAkBgvHTYP8lL2qzCMGqvD+nl30gEAMYCAg3Q7LE1BAACgCIBIOJemWIsIEzhHszcSgAgADQzAHgduR3S1zWsZa9WOyc4UnyiDQJAxD9e+m9e0mYdIb28RSIAzByu8q3S5w8oT7fFvkEAIACoEACMlcmD+qrE30ivCXQ+bUPsz2MBCQAEgEUGAO/W3E+YeQ6zBUeKN87c/LdBAKgfvrHSeunPDOaYnq6dEtZL+yQCwLGxgH/kiROgZWMBCQAEgKYGgETEtTLxf6XXBKzBM5TxEwAIAM0IAO6tabv09QxrCY5X3xUYKRxspwAQGCv9enqitkz6s4M5gs7SB8OuymHTnwA49hQAT5wAc9Ft8U8SAAgAKgSAmQiwPNEnvSZgkbGA6zMPEAAIAIsLANkvSV/LsJ7AaPFrL9/8t0sAmIkABZf0ZwfzhFyV20QCwMwLAY9ukD5/QGn+K/Nv1myxJwkABAAVAoCxMnkfYwFhBs+6zBABgACw0ADg3ZZ73r0p+9fS1zGsJThW6Dvu5r+dAsB46cn6uwukP0OYI6iX3xlyVZ+VCAAho/wgT5wArRgLSAAgALQkACQi7lWpcek1ASuoLfUMpe8iABAAFhQAthf+XvoKhrXU3zURGCn+uI0DQCQwXpiW/hxhnrBxdI9IAHBXIns8jAUEmj8WkABAAGhRADBWJh/39uYYC4iW0zek3+8ezBwiABAA5hkAHjMcmbOlr19YS2CkOPqqm/+2CwDlg/6xPC/8tdJYQFf1txIBIOyu7vf7y++Q/gwApTl7YqsIAAQARQJAxFiV+kfpNQFr8AxlPk0AIADMMwDskr5uYS3BkdobAiPFR9s/AJQigYkiL/y1kJCrvE0iABw7qowFBOai26NfIwAQAJQIACtTjAWEeWMBB9PPEAAIAA0e9/KeEpjNv7vwsRPe/LdlAChFApOVq6U/U5g4FtCo7pMIAGEPYwGBORm2+Lt0W6yxsYAEAAJASwNA/SmA5Del1wSswT2U8REACAANHY5Cr/T1CmvxTlbOD4wUDnRSAPCPF++tv9NA+rOFOfYYpctPOBaw5U8AVCIhT/XueoSQ/gwApWm22CcIAAQARQJAxL0quVx6TcAiYwEHjx8LSAAgALzq2Jr/d+lrFdYTHC1+6aQ3/20aAGYiwERxp/RnC/OE9ertIgGg/kJAxgICszOuyJyt90QfJQAQAFQIAMaq5P0Ox6HXSK8LdD5jfWaQAEAAmOU46HPk3i19ncJafKP5rllv/ts4AATHS484ncmzpD9jCI4FNCkAhDyVB/furb1O+jMAlKbb4+MEAAKAIgGg/kLACek1AeuNBSQAEACOH/uX+5j0FQprqT+2HBgpfq9TA8BMBJgsXiv9OcM8Yb1yrUgAOPZCwID0+QNKq/8uS7fFfkwAIACoEQCSTzAWEGZwb0xd8qexgAQAAsDLN/9bc4+HN2XfKH19wloCu4uOOW/+2zwABCZKB+rvOJD+rGGO60ZrZxw3FtDEAMBYQKABTlushwBAAFAkANSfAvi49JqANbgHM7cQAAgAxx3bcyPS1yWs5brR6BmBkeJvLRAA6sfnpD9vmCdsVBwyTwDUpwJUPyN9/oDydFv0KwQAAoAiAYCxgDCFf3P+zZ6hzFMEAAIAY/8gJTBa3NvQzX9nBICIf7LEqDYL/bQl5KreLRMAGAsIzGmqN3aRZos+TwAgAMgHAMYCwjzGUNpDACAA1A/PtgLzymGq4EjqnYHR4rOWCgATpf+uv4dF+rOHOQJa+SqJAHDspwCV7zEWEJiD1hP9KAGAAKBIAKj/6yuk1wQ6X3Dg96/1DmV+SQCwfAD4v9LXIqwnsLtwW8M3/x0SAF46BqU/e5gn5KrcIREAjj0JUN4off6A0py25FmaLfY7AgABQIkAwFhAmMQzlF5HALByAMgfdG/Nv0f6OoS1+HaXLguMFg9bMgCMFx6cnqgtk/4OYI76yx9DRuU5iQDAWECgAa6e6E4CAAFAkQAQ0VemJqXXBKzBM5S+kwBgzQDg3Zq7Qfr6g9XUlgZGC9+d181/JwWAmZ8CFAzpbwHmCborHxYJAO5KJGhUg9LnDyjN4dh3qm6L30MAIACoEACM1akn/avyb5ZeF+h83vWp93kGM4cIANYKAPWxf95BRo/CXP6R/MZ53/x3WAAITBSfDk4V3ir9XcDEsYBG9SGJAMBYQKABU13RLgIAAUCJADATARLT0msC1uAdyn6KAGCxALA9Py593cFaJiZeWOYfKfyKAFCKBCfKN0p/HzDPHvcfhyUCAGMBgQbpttgXCAAEACUCwKrUQc+K5MXSawIWGQs4mHmSAGCNAODdlv25YdROl77uYC3+3UX/gm7+OzAABCbKB/1jecb+Wugp45BRvUcmAFQOh7z/e4X0ZwAobfLqF8/XemLPEgAIAPIBgLGAMI93Q84gAFgjAPi3ZZdLX2+wltDO4rmB0cIzBIBXvAtgvMj/vltI2Ch3SQQAxgICDdJtsWsJAAQARQJAxFiZZSwg1BsLSABoywDg3ZbjpgOm848Wb1nwzX+HBoD64RsvXCP93cA8IVflixIBYOaFgO7yJunzB5Q2+nfRM7Se2EMEAAKACgHAvTr5M+MKHtdF63kGc/0EgE4OAPmD/s08dgxz+XYW3x8YKRwiAJzwhYA/cThqp0p/RzCHz1m5MGxUDkgEgLC7+hvGAgJz0OzxrQQAAoAKAeDYCwHjU9JrAtbgHUx/mwDQmQHAuzX3CenrC9bjHy3cuaib/44OAPX/fHGX9HcE84SNo9dLBIBj7wMoh6TPH1Da9JLaKXpvdB8BgACgQgBwr0o9ZfQV3iK9LtD5Gh4LSABoswCQf7L+skfp6wvWEthdWrfom/8ODwDB8dIjTmfyLOnvCubw+eJnho3ywxIBIOSuPrvXXf4r6c8AUJpui1+m22OHCQAEAOkAUD9cq5KMDYIpPIPpfyYAdFYA8G7J8hQRTH+vSHCk8EsCQEM/BbhO+vuCeUKuyk6ZADDzU4DPSp8/oDzNHv0cAYAAoEIAYCwglBoLSABoowCQvd/hqL1G+rqCtfh3FzxNufm3RAAoHQiNVS6Q/s5g3ljAsFH5oUQAmDkYCwjMTuuKnavZY88QAAgA8gGgfqR5gzdM4R1Mzz4WkADQNgEgsKW4Uvp6grX4x/JvDowWnyQAzOddAKXbpL83mCds/G+XWABwV77PWEBgDpo9HiAAEADUCAD1FwImV0mvCXQ+w6id7h3K/JwA0N4BwLulQDSE6QIjxZubdvNvlQAwUYqEJsr8zayFhI3Kl4QCQCRslDdLnz+gtIm+F5Zp9tivCAAEABUCgHtV+n6H4xCP86LlvEO5tQSAdg4A+YOejfxsCObyjhXet+ixfxYNAIGJ0neXLKktlf4OYY5rvZXzFzwWcLEBwF1+uP5CQunPAFCa3psYIgAQAFQIAMeeAkjxQi+YwjOU/Q8CQHsGAO+WLC8Ohel8zRj7Z90AEPFPlYakv0OYJ2RUPioRAEKMBQQaUVuq2aN3EQAIACoEAMYCwiyBocJ7vUPZgwSA9goA3i35p4wh9giYP/bP3+ybf4sFgMB44cHpidoy6e8S5ggGa28IG9XfSQSAEGMBgblN9R65ROuNHSIAEACkA8BLPwXgb/dgCvdQ9pMEgPYKAL5teaf0dQPrjf3zjxR+SQBYZACoH5Nlt/T3CfME9cqITACoRELu8uekzx9Qnt4bu4UAQABQIQAYq5OH9BXp90uvCXS+vY7cOd6hzBMEgHYJAHnG/kFk7F/95p8A0IQAMFF8OjhVeKv0dwrzxgKGjMqPZAJAJbLHKH9I+jMAlOZflX+zZo89SQAgAIgHAMYCwkSeobROAGiPAODfklsjfb3AemP//LuLTxIAmhUA6v93yjdJf68wT9BT7pYKACHGAgJz03tjBgGAAKBGAEhGXKtSq6XXBKwxFtAzlPkZAUD5APAt6WsF1uMbKd7s333s5p8A0KQAMFE6FJwqXCL93cI8IaPyZaEAEAm5y1ukzx9QmuOSQ6/R7NGfEwAIACoEAMYCwizuDak1BAB1A4B3S/aQbxs/C4L5Y//8uwuHCABNDwAR/3iRp/wsZM9U7qKQUXleIgCEGQsIzM2wxdcSAAgAKgSAmQiwMqVJrwlYg2co83UCgKIBYGv2k9LXB6zHt7tw58zNPwGg6QGgfgSnCn3S3zHMEzIq/yDzBECl/hRAWPr8AeXptti3CAAEACUCwKrUU1MDR3hhEFrOszF/8cxYQAKAUgHAuyX7VNDBS8MgMPbvTzf/BIDWBIDx8r3T07XTpL9rmDcWMOSuPioTAKqMBQTm4rQlL9bt8YMEAAKAdAB46YWAvDAIpvBsyN5EAFArAPg2Z13S1wUsOPZvd+GXBIDWBoCZnwJMFndLf98wT8iojMoEgEok7Kn8q/T5A8rT7fGbCAAEACUCAGMBYeZYwA2ZJwgAagQA79bsL+o3Y9LXBSw49u+VN/8EgJYFgMB46THDyJwt/Z3DHA5H7dSQq/JjiQAQ8jAWEJiT1p07R7fHniAAEADEA8CxCMAbwGEKz8askwCgSADYllsrfT3AomP/CADmBIBjx/XS3zvMEzYq10gFgJCHsYDAnLTe6BQBgACgRAA49kJAZoDDlLGA3g2ZnxIAhAPAlux/LllSWyp9PcCiY/8IAGYGgAM+Z+VC6e8e5gkZla8KBYBIyH2UsYDAbIwraqdrvbGfEgAIAEoEgFXp+3kcGGbwDWVXEQDkAkB97J9nS/FS6esAFh77RwAwMwBEAhOF26W/f5hnj7d68rGALQ4AYQ9jAYE5OW3RFQQAAoAKAeDYTwESuvSagDV4N2S+RgAQCgBbs5+S/v5h8bF/BABzA8BkKRKaKF8hfQ3APGF35QaRJwA8MxFgj/T5A8rT7PGvEgAIACoEAPcaxgLCHMbm3Lu8GzLNGwtIAGgwAOSe9myJvk36+4fFx/4RAEwPAMGJEr/PtpCTjgU0IQCEvJXnQkblAunPAFCatzd3kWaPP08AIABIBwBjzcwLAT8pvSZgDe4N6RsJACYHgC05t/T3Dms54dg/AoDpAWAmAkyWN0hfDzBP2F0ZFwkAnpkIcJv0+QPK03oTNxAACABKBIA1yUOeNVF+H4yW09b+zzmeDenmjAUkAMwdALZkfj0xUVsm/b3DWk449o8AIBIAApOlB6fZA6w9FtCsAOBhLCAwp+BVqTfo9vijBAACgAIBIGKsSd3FG8JhBu9QaooAYE4A8GzLr5P+vmEtJx37RwCQCgAR/0TZI31dwDxhd3W5VAAIMRYQmJtuS44QAAgAagSA+hFnRjjaZywgAWDWAODdmv0OUQ/KjP0jAIgFgMBk8engVIF3/Vh1LKC5ASAS9h7dKn3+gNIcjn2navb4DwkABAAlAsDq5C8YCwgzeDdmVxAAWhoADvsdxb+V/p5hLbOO/SMACAaAUiQ4Vfwn6esD5o4FDBuVgyIBwMNYQGBOuj3WTQAgACgRANYkI/rqhEt6TcAaPBsyXyUAtCgAbMneLP39wnpmHftHABANAIHJ0iHfePH90tcIzBMyKh+XCAChmQhwlLGAwFx0e+JLBAACgAoBgLGAaJuxgASAkwSA3H6fo3Se9PcLa5lz7B8BQDoA1CcCfFP6OoF5PmLUzg4ZlcdkAkDlAGMBgTl4r06fr/cmniMAEACkA8BMBFid5FFBmMI7lPkEAaC5AcC7JeOT/l5hLQ2N/SMAiAeA+uEdL66Qvl5gnrBenZQIACFPJRL0VG6XPn9AeboteT0BgACgQgBgLCDMYjgyZ3uHMo8RAJoTALxbMg/uddReJ/29wloaGvtHAFAiAASmyvdNT9dOk75mYI76dx1yV34qEQBC9cNbvlL6MwCUNromeoZmjz9EACAAKBAA6mMB/5M3iMMMng2ZCQJAcwKAZ3NmSPr7hLU0PPaPAKBGAKj/FMBZGZG+bmCeoLe6QioABD2VH9RfeC79GQBK0+3RYQIAAUCNADATARgLiJab7qud5t2QuY8AsLgA4N2a/S+iHZQd+0cAUCcATBYfN4zM2dLXDswTcle+JvIEgKd+lLdJnz+gtOkltVM0e+JuAgABQIkAwFhAmMQ9mF1OAFhUADjs35K9XPp7hLXMa+wfAUChAFCKhCcq10tfPzBP0Ki+K+yuHBQKAI84ncmzpD8DQGmTV//hct0eP0wAIACIB4D6sTZpSK8JWMO8xwISAP4cALZkPi39/cF65jX2jwCgVAAITpYO+JyVC6WvIZgn5KlMywSASiTkO7pX+vwB5Wm90dsJAAQAFQIAYwFhFt+G3LvnNRaQAPDSkWHsH0znGy0NLPjmnwCgQgCoH5+Xvo5gnr17a+eEPdUnRAKAp/rsHqP0dunPAFCary9+nm6P7ScAEACkA8BLxz9LrwlYg2dj5h8JAPMLAP5tOb/09wZrWdDYPwKAigEg4neWPyR9PcE8IW91SiYAVCJhb/lT0ucPKE+3x/YQAAgAigSAQ+6VqUuk1wQ6X3hT9o2eDZnHCQCNBoAcY/9gOt9Iwb2om38CgDIBIDhZ2jc9XTtF+pqCOQyjdnrIXfm5TACoHtzjzV0k/RkASjOu+MPrtavjvyEAEAAUCACMBYRpPEOZMQJAYwHAuzW/Qfr7grUseOwfAUDVABAJO8sbpa8rmCdkVFdJBIBQ/fBW/0n6/AHlOXtjmwkABAA1AkAy4lmd7pdeE7DGWEDPhuy9BIA5bv63ZL5LlIPZ/LuLn1r0zT8BQKkAEJwsPDg9UVsmfW3BPCFP5ZsyAaDyXDBY4L1SwOxqS7Xe2HcJAAQAFQKAsTrx64k+/iEBrefbmLmGADDrwdg/tNfYPwKAwgGg/q8XfNLXF8wT9hy9OOyuHjQ9AHgqkbC75JI+f0B5ui1+mX51/DABgAAgHgBmxgKmGQsINcYCWjgAeLfkPiv9/cBqakv9uwt3NeXmnwCgXAAITRafDk7xN7NWEvJUb5IIACFP9V7pcwfagtYbu5UAQABQIgCsTj3tWRN9m/SaQOfzDuYu8mzIPE8AeNWL//b7NybfIf39wFoCu0vrmnbzTwBQLgC8FAGY+GMhix4L6Fn4sddXfbf0+QPK07pi52q98WcIAAQA8QCwJhlxr0kyygWmcA9lbiAAvOq3/0Hp7wXW0pSxfwQA5QNAcLJ0yDdefL/09QbzBD1VXSIAhLxVTfrcgbbg6o37CAAEABUCQH0soGdN+lLpNYHOFxxIvcGzIfMoAeBPN//Zh69bEz1D+nuBtfh3FzxNvfknAKgaACLBqfK3pK83mDsWMOyu/Mz8AFD5ivS5A21hou+FZfrV8QcIAAQABQJAfSzgd3gDOczg3ZAZJQC8FAA2ZTdLfx+wlqaN/SMAtEcAqB/O6grp6w7mCRqltWYHgLCn+jvp8wbahnZNYj0BgACgRgCYeSHggPSagFXGAmbutXoA8G7O3T09XTtF+vuAtTRt7B8BoH0CwFT5vunp2mnS1x7ME3JXvm/qEwCeSqT+DgLp8wbaRG2p3hv/bwIAAUCFAOBek3qg/mSK9KpA5/Nsylxt8QBw2Ls5d4X09wBr8QynL/Xvyjdn7B8BoH0CQP2YKPqlrz+YJ+Su3GZ2ANjj430TQMP03sQQAYAAoEIAqB+uNWm39JqANXiHMl+xagDwbs7cJv35w2pqS/0783f5d+Wbf/NPAFA/AEyWDwanKsPSVyFap/5E2UeM2tkhd3VNyF3Zb3oAcFfs0p8B0DYclxx6jdYbf5IAQABQIQAwFhBm8Q7Gjh8LaJEA4N2Seza4JfVO6c8f1uLbmRuYufknAFg0ALw8GvDbgcny1uBY6YP1CQEnOsITpcvCzkrPbEdAq9jDk9X+kx76sSOgVRzBqeLwbId/qjQV1Er6bEdIKweCeuXa2Y6QVvloUKveONsR0sv/HNBKtx13uE5w6OVvnOwIzRyVb4Rc5e+GXNW7T3oY1btD7uq9YXfl/lkPo/qbkFF5fLYjbFSeDhmVyMyx0Lf8tzgAhN3V5dL7HNBW9N7E9wgABAAlAsBMBEjeLL0mYA3eDZmPWS0AeDZl90h/7rDo2D8CgOUDwKvfDzDXUV7Y4WzBobfocM3vCM0clbkPo0WHogFgD08AAPOjXZ24gwBAAFAmAMyMBYwyFhDmjgW0RgB4iLF/MJtvV8H98s0/AYAAQAAgALibHwAC7tIHpPc6oK3ovYlvEQAIAAoFAMYCwjTujZkRqwQA7+bsVunPGxYc+7er8J+iHVkAACAASURBVCQBgABAACAAtDIAhLTiudL7HdBW9KvjDxAACABqBYCZFwKuk14b6HwOR+1U71D6J50fADLfZ+wfRMb+vfLmnwBAACAAEADczQ0AYW/laf7SCJgHp+3Fi5kCQABQMQAYaxIPTvTVGAuIlvNsyHd3egDwbsldKf05w1q8Owrvmxn7RwAgABAACAAtfQKg+h/S+x3QVvTe2DQBgACgZgCYeSGgR3qNwBo8mzL/3qkBwLs5+3npzxcWHvtHACAAEAAIAK18AsBzlJfbAo3S+/7fO7XexLMEAAKAsgFgTXK/b33pPOm1gs5nDGUu8GxMH+i4ALA5e8BwZC6Q/nxhLb5d+fUnvPknABAACAAEAHdzAwAvAATmQeuN33aym38CAAFAkQBQfyHgLdJrBdbg2Zj5aKcFAO/m7LXSnyssPvaPAEAAIAAQAFoWAMq/5vf/QIN0W/wy/er4YQIAAUD9AJA8bKzO/K30mkHnu35j7SzPxszvOiYAbM4+4tyYPEv6c4W1+HcWPCe9+ScAEAAIAAQAd/MCQNhTuV56zwPawvSS2in61Yl9s938EwAIAAoFgIjRn/pPCi/M4NuQ3tUpAcC7JeeQ/jxhLZ7R4tv8O/NPEwAIAAQAAoA5TwD88VLpfQ9oC7o9tmWum38CAAFAqQCwth4BEoPSawedz+HYd6pnY/aHbR8ANmfuqZ+L9OcJa/Htyt88680/AYAAQAAgALibEwDC3so+6T0PaAv1sWpab/zXBAACQNsFgLWJB/c6aq+TXkPofL6N+a52DwDeTWmb9OcIaznp2D8CAAGAAEAAaEEACHpLa6X3PaAt6L3xYCM3/wQAAoB6ASAZca1J+qTXEKzBszH7pbYNAJuzd0h/frAe367cnXPe/BMACAAEAAKAe/EBIOyt/IKn3IAG+Pri5+m98f0EAAJAuwYAY03yGW1l7FzptYTO596U/esTjwVUPAAw9g8CArvz6xq6+ScAEAAIAAQA9+IDQNBdGZHe94C2oPcmPtPozT8BgACgZABYm4y416T+RXotwRq8G7J/324BwLsl+2Hpzw3WMufYPwIAAYAAQABoZgDwVn417ai9RnrvA5Q3ZY9/YK6xfwQAAkA7BABjbfKw0Z+4XHpNofP5HPEzPRszD7dLAPAy9g8qjv0jABAACAAEgGYGAPfRLdL7HtAGaktd9sRd87n5JwAQABQOABFjbeq/GAsIM3g35Xa0SwDwbc4NS39esBb/WP7Nvl2FpwgABAACAAHAjAAQ9lbuczhq/PYfmItmT27Q7fO7+ScAEADUDgDJiL42MSS9tmCVsYCZe1QPAN4t2Z/wD0VQcuwfAYAAQAAgADTrCQB3dY30vgcob6LvhWWaPf4rAgABoNMCAGMBITMWUM0A4N6atkt/TrCWhsf+EQAIAAQAAkATAkDYW+XpT6ARuj3un7n5JwAQADouAMz8e37pNQZr8G5Kf1HZALA5+yXpzwfW0/DYPwIAAYAAQABYZAAIeyuH9xgl3v8EzEXrip2r2ePPEAAIAB0bANam9hv9ibdLrzV0Pu+m9PnejdnnFAwAz9dHFkp/PrAW3678+gXd/BMACAAEAAKAewEBwFP9jPS+B7QFrTfxLy/f/BMACAAdGQBmIsCnpdcarMGzMX29agHAuzX799KfC6xl3mP/CAAEAAIAAWARASDsqRy41ls5X3rvA5Q31XvkEq03fogAQADo/ABQHwuY5bEwtNzomugZ3o3Zh1QJAN7N2ccMR+Zs6c8F1jLvsX8EAAIAAYAAsJgnAHxH90rve0AbqC3V7PG7jrv5JwAQADo3AERca5L/zYthYAb3hvSwKgHAtzm3S/rzgLUsaOwfAYAAQAAgACw0AHirjzidybOk9z5AeZotsf5VN/8EAAJABweA+uFZm2EsIFpuerp2imdT7m7xALA5ey9j/9AWY/8IAAQAAgABYOFPAOyU3veAtvhtntYb/yUBgABgtQBgrE0xFhCmMDamuqQDgG9zplf6c4C1LHjsHwGAAEAAIAAsKABUCd1AI3RbzHPCm38CAAGg4wNAMmL0MxYQ5vBszN4hGAD+Xfr8YT0LHvtHACAAEAAIAAsIAGFf5RrpfQ9Qnn9V/s2aPf4kAYAAYNkAsDa137k6+Q7ptYjO1/BYwCbf/Hs3ZQ/6NuTeLX3+sJZFjf0jABAACAAEgHkHgPI3pfc9oC1o9vinTnrzTwAgAFgiACQjrrWJW6XXIqzBsyF7nekBYHPuY9LnDWtZ9Ng/AgABgABAAJhfADgUdB+9RHrvA5SnXZN636vG/hEACAAWDACMBYSZYwE9m7K/NS0AbM4+Ht6UfaP0ecNaFj32jwBAACAAEADmEQDC7uonpfc9oC3o9ti3Z735JwAQAKwTAOrH3dNLaqdIr0t0Pt/G7HazAoBvS25E+nxhLU0Z+0cAIAAQAAgADQaAsLfydDBYeKv03gcoT7863j/nzT8BgABgrQBQ/+9tkF6b6HxzjgVsXgC4d7qvdpr0+cJamjL2jwBAACAAEAAafQLAW/VI73uA8owraqdr9tjPCQAEAAIAYwEhwxjKXu7dlD3c2gBQuFr6PGEtwZHCJU0Z+0cAIAAQAAgAjQQAb+XBvXv55zZgTnpvzNXQzT8BgABguQCQjLjXpgLSaxTW4NmUu71VAcC7KfMN6fOD9TRt7B8BgABAACAANBAAwp7yRul9D1Ce1p07R7fHnyAAEAAIAIwFhCx9S+qdno25Z5sdAOpj/9xb8++RPj9YS1PH/hEACAAEAALA3AHg+/Wf1EnvfYDydFv8k7o91tjNPwGAAGDJADDzFABjAWEK38bs3mYHAPfGzA3S5wULjv3b2cSxfwQAAgABgAAwxxH0lLul9z5AeU5b8mLdHj9IACAAEAAYCwiFxwIucuyfdzD3JunzggXH/u1s0c0/AYAAQAAgALhfddwhve8BbUGzxb5+7OafAEAAIAA0MBHge4wFhBk8m7LbmhUAvBsz49LnAwuO/dtReIoAQAAgABAATAoAz4fd1b+W3vsA5bl6Y6v/fPNPACAAEAAaOVz9SV4ug5ar/4bRuym3b7EBwLs5+3PDqJ0ufT6wFt+O/M0zN/8EAAIAAYAAYEYA8FQ+Kr3vAW0x9k+3x35GACAAEAAYCwg1eTZmP/jyWMCF/vZ/U3a59HnAgmP/duQPEQAIAAQAAoBJAeDx8ET2jdJ7H6A8rTc+dfzNPwGAAEAAmEcECEqvYViDZ0P22FjABf32P/NN6T8/rMe3I3fnyzf/BAACAAGAANDqAOCpTEjve4DytO7/OUe3x54gABAACACMBYTafI7Sed4Nmf3zH/uXO+jfnPgb6T8/LDj275U3/wQAAgABgADQwgAQdlfun3bUXiO99wHK03uPTL/65p8AQAAgAMzr6E99Vnotwxo8G7J75v8EQObj0n9uWHTsHwGAAEAAIACYFAD2eKurpfc+QHmT1yTeo9tjL439IwAQAAgAixkL6FmV+KD0moaFxgI2fvP/hObInSP954a1+HYV3K+6+ScAEAAIAASAlgWA6rel9z2gLej26NdOfPNPACAAEAAYCwhVuTdmt8zjxX+T0n9eWHjsHwGAAEAAIAC0PgAcCnmKl0rvfYDynLboipPf/BMACAAEgIUc7v7kJum1DauMBczsa+Bv/+938HtISI79IwAQAAgABIAWB4Cwu/op6X0PUN50X+003R67jwBAACAANP14uP6ItvQaR+fzbcpe5t2cPTzry/82ZldI/zlh8bF/BAACAAGAANDCABB2V572eIpvk977AOVp9iMTs9/8EwAIAASARbwQMCS9xmENnk2Zfz3pzf/mHGP/ID/2jwBAACAAEABa+QSAUfVI73uA8oJXpd6g26OPEgAIAASAlgWAZ92Dqb+SXuuwyFjATa8eC1gf++fZmLxY+s8Haznh2D8CAAGAAEAAaFUAMMoPTk/UlknvfYDytN7YDXPf/BMACAAEgIUHgGTEPZD8nPRahzV4N2fCJ3jx343Sfy5Yy8TEC8tOOPaPAEAAIAAQAFoVADylIem9D1Cetzd20cnH/hEACAAEgGYFAE9/8rDRn7hces2j8+111F7n2Zz98Z//9j/zK8b+QZmxfwQAAgABgADQkgBQ/u8lS2pLpfc+QHl6b/Qrjd38EwAIAASART0BMPMUQHofYwFhhvqLJ72bs1u9m3I7vIO5N0n/eWAtntHi2/w7808TAAgABAACgBkBIOypHA56Sh+U3vsA5em2xNWN3/wTAAgABIBFB4D+dMQ9kNoivfYBQGzsHwGAAEAAIAA0PQBUPyO97wHKczhqp+r26I8IAAQAAoDJAaA/9bCvL36m9B4AACJj/wgABAACAAGgqQGg+qzfX36H9N4HKE+3xUbmd/NPACAAEACaEwBmIkBYeg8AAJGxfwQAAgABgADQ1ABQ5p+pgEbG/mm22O8IAAQAAoBUAEgzFhCANcf+EQAIAAQAAkCTAkDYXX7Y5+OpSmBOmj36Md0235t/AgABgADQxAAQ8fSn/1V6LwAA08f+EQAIAAQAAkCzAoBxdKv03gcoz7BnLtBt0QMEAAIAAUA2ANQPY13yQ9J7AgA0g29HwTvvm38CAAGAAEAAWGAACHoqP5ieZrISMCe9J/ZvMzf/BAACAAFAPAC416a/z1hAAO3OP5Z/s29H4SkCAAGAAEAAMCsAhI1Kj/TeByjP6I12vXzzTwAgABAA5APAzFjALGMBAVhn7B8BgABAACAALD4A3CG97wHKczj2nar1xH9IACAAEAAUCwCMBQRgpbF/BAACAAGAALCIABB2Vw74fJULpfc+QHmunujO427+CQAEAAKAIgEgHTHWpvZI7xEAYMrYPwIAAYAAQABYTADwHL1eet8DlFf/20XNFn2YAEAAIACoGQA8/ennjNWZC6T3CgBo+dg/AgABgABAAFh4AHjsI0btbOm9D1Cebotf/6qbfwIAAYAAoEwAeOm4TXqvAICWj/0jABAACAAEgIUGAE9lp/TeByjPe3X6fN0We44AQAAgACgfABgLCKDzx/4RAAgABAACwMICwL0OR+1U6b0PUJ5mi33xhDf/BAACAAFAuQDAWEAAHT/2jwBAACAAEAAWEgB8lV7pvQ9Q3lTXX4z9IwAQAAgAageA+lMA/amt0nsHAMzGvzN/S1Nu/gkABAACAAGgsQDwFel9D1Be/W8RNVvsbgIAAYAA0F4BgLGAADp67B8BgABAACAAzCMAhN2VgyH30fdI732A8vSeI9tnvfknABAACACKBoB0xDOQZSwgAAXVlvp3Fu5q2s0/AYAAQAAgAMwdAG6Q3vkA5Y3+XfQMrSf2EAGAAEAAaM8A4O5PHWAsIICOHPtHACAAEAAIAI0HgMfDE9k3Su99gPJ0W+zaOW/+CQAEAAKAwgEgXf/v3S69lwBA08f+EQAIAAQAAkCjAcBT2S299wHK06/6f+/UemLPEgAIAASA9g4A9cM1kLxSek8BgKaO/SMAEAAIAASABgJA2F35CWP/gAbotvjtDd38EwAIAAQA5QOApz/9A4djH//jB0CUZ0vxbf6d+acJAAQAAgABwKwAsMddsUvvfYDynD0vflC3xQ4TAAgABIDOCAAzEWBtapv03gLA2vzDTRz7RwAgABAACABzHGFP5QvS+x7QFmP/dFtsX8M3/wQAAgABoC0CgNGfesS5MXmW9B4DwJqCjsIl/uEmjv0jABAACAAEgNlu/o3KAZ+vcqH03gcoT7PHt87r5p8AQAAgALRFAJg5BlJ7pfcYANbk25G70z/copt/AgABgABAAHjV4/9H+WceYC7GFX94vW6L/ZYAQAAgAHRoAOhPHfCtz1DDAZjKN5xfP3PzTwAgABAACAAmBICwUX7Y54ufKb33AcrT7bE98775JwAQAAgAbRQA6u8CSDMWEIC5Y/92FH5JACAAEAAIAKY9AeA+ukV67wOU5+uLn6fbovsJAAQAAkBnB4Bj7wNI90jvOQAsNPbvTzf/BAACAAGAANDiABA2Kt+bnq6dIr33AcrTeqKfW9DNPwGAAEAAaLsA4O5P3cNYQACmjP3bkX+aAEAAIAAQAMwIAGGjcjjk/d8rpPc+QHm6LX7ZvMb+EQAIAASANg8AMy8E3C699wCwwNi/V978EwAIAAQAAkArnwBwV2+V3veANlBbqtli313wzT8BgABAAGjLAMBYQACmjP0jABAACAAEABMCQNio7vc7y++Q3vsA5em22KZF3fwTAAgABIC2DAAvvRDwOuk9CECHj/0jABAACAAEADOeAHCVfdL7HqC8ib4Xlmm22K8IAAQAAoA1AwBjAQG0fOwfAYAAQAAgALQ8AJR/PT1RWya99wHK0+zxwKJv/gkABAACQBsHgPq7ANKfl96LAHTY2L/h/AMEAAIAAYAAYFYACBrVAem9D1Ce1hU7V7PFniEAEAAIABYPAP3piHd92ia9JwHo0LF/BAACAAGAANDCABA2qv9Zf6eZ9N4HKE+zH7m1KTf/BAACAAGg7QOAe4CxgABaNPaPAEAAIAAQAFoXAA6FPMVLpfc+QHlab+zvFjX2jwBAACAAdFgASEeMgbRDem8C0IFj/wgABAACAAGgZQGgepP0vge0gdpSlz1+V9Nu/gkABAACQIcEAMYCAmjB2D8CAAGAAEAAaEUAcFeeutYovEV67wOUp/dEh5p6808AIAAQADoiALx0fFh6jwLQYWP/CAAEAAIAAaAlTwCUpqT3PaAtxv7ptugDBAACAAGAAHDCALCOsYAAmjz2jwBAACAAEACaHwDun3bUXiO99wHKc/Uc8TX95p8AQAAgAHROABhIRzwD6S9I71UAOmjsHwGAAEAAIAA0OQCE3dXl0nsf0B5j/3qaNPaPAEAAIAB0bACoH4wFBNC0sX8EAAIAAYAA0NwA8A3pfQ9oC3p37Ba9pwU3/wQAAgABoOMCgHtd6scOR42xgAAWP/aPAEAAIAAQAJoUAMJG5WDIffQ90nsfoDyt68j7tJ7YIQIAAYAAQABoKADUj/70sPTeBaADxv4RAAgABAACQLMCgLvyMel9D2gLek/0zpmbfwIAAYAAQABoMAB4BjKMBQSw+LF/BAACAAGAANCcAPBYeCL7Rum9D1Ceqzu2+uWbfwIAAYAAQABo9AmAgXT9/9/10nsYABXVlvp3FO6a980/AYAAQAAgACwwAITdlV3SOx/QFrTu2N0EAAIAAYAAsJAAUB8L6O7P/rX0Pgagjcf+EQAIAAQAAsAiA0DYqPyEdxMBDdC6osuPu/knABAACAAEgPkEgJkj9UXpvQxAG4/9IwAQAAgABIBFBoA97opdeu8D2oKrJ/5VAgABgABAAFhcAKi/DyDVLb2fAVCD31HwLPjmnwBAACAAEADmGwDclTuk9z2gLUz0Zd+od8cOEgAIAAQAAsBiA4B7IMWjdwCWhHbGzp332D8CAAGAAEAAWGAACBuVAz5n5ULpvQ9oCy5bfNurbv4JAAQAAgABYEEBIB0x1qV3SO9rANpw7B8BgABAACAALDgAlPdI73tA29B6jtxKACAAEAAIAM0KAPWxgBN9tWXSexsAGZ7h9KULGvtHACAAEAAIAAsJAO7qb68brZ0hvfcBbUPrjv2EAEAAIAAQAJoVAGaO/uQm6b0NQJuN/SMAEAAIAASABQSAsFHeLL3zAW2j/rd0enf81b//JwAQAAgABIAFPwGQfsI1kLxSen8DYL7Ajvy6ptz8EwAIAAQAAkADASBsVPZNT9dOkd77gLbh7Dly4Qlv/gkABIDWBIBfGiuT+4zl8W8YKxs7XCvitzV2JGcOY3XyZveq9I0NH6sTnzBWpa+d81jz58O1Ju02Vif0ho81qQl9dWL4hEf/iQ9jbXrA05/ub/Rw9yeXG/3pnkYP3/p8l96ffv+8jjXR/+Ndmz5/tkNbGTtXel8D0KZj/wgABAACAAFgHgEgbFQOh/XSZdJ7H9BWnD3RSwkABIBWBgBjZfJ+fUVil7Y2d4709Q4AUHjsHwGAAEAAIADM5wkAV/lW6X0PaDtOW6yHAEAAaEkAWJk4ZCxPhIwraqdLX+cAgNbybCm+bdFj/wgABAACAAGg8QDwTEir8dQhMF+uniNXEgAIAE0PACsTh/RViSHp6xsAYA7fjvzNTb35JwAQAAgABIBZAkDYKHul9z2gLTltL15MACAAND8AJN3S1zYAwByh4WJzxv4RAAgABAACQGMB4Jf1d45I731AW/JdGT+PAEAAaGYA0Fck7nE4aqdKX9sAgDYb+0cAIAAQAAgADQSAsKfaL73zAW1rekntFL0n9hQBgADQrABgrEr3SF/XAABz+Ibz61ty808AIAAQAAgAJwwA1bvq4VF67wPamt4TvZMAQABoRgDQVyRvl76eAQAmjv1zNHHsHwGAAEAAIADMfhzaoxffL733AW1P64l+lABAAFh0AFiefG7y6hfPl76eAQAmjv1ztOjmnwBAACAAEAD+8tCrN0nve0BH0O2xbgIAAaAJTwDslb6WAQDmCO2Mnesfzj9NACAAEAAIAGYEgLBeffJao/AW6b0P6AgOx75TtZ7owwQAAsAiAsAjTlvyLOlrGQBgDr8jf8vMzT8BgABAACAAmPEEgFGZkN73gI6i2WI3EAAIAAsNAPrK+HbpaxgAYOLYP0f+EAGAAEAAIACYEQDCrsp9hlE7XXrvAzrK5IdePF/vjh0kABAAFhAAflB/ikT6GgYAmKG21O8o3PXyzT8BgABAACAAtDgABF2VPumdD+hIek/sZgIAAWC+AYCxfwBgHV5HfvC4m38CAAGAAEAAaGkAKH9Oet8DOpZhz1yg90QPEAAIAI0GAGNF8vPS1y0AwLyxf15H7gECAAGAAEAAMCMAhPXq7/ZqtXOk9z6go+nd0esJAASABgPAAeeKzIXS1ywAwBw+R87rc+SOv/knABAACAAEgFY9AaCXhqT3PaDj+friZ748EYAAQACYJQAYK5PXSV+vAABzeLYU3+Ybzj1NACAAEAAIAGYEgLBe+ZL0vgdYhssW30YAIADMEQAY+wcAFuJ15G+p3/wTAAgABAACQKsDQNhV+YXXm3uT9L4HWMb0ktopek90HwGAAHDSALA8vk36OgUAmMPtKFzideQOEQAIAAQAAkCrA0BYrz65V6u+W3rfAyxHt8Uv022xwwQAAsAJAgBj/wDAMmpLfcO5O/90808AIAAQAAgArQoAYVf1ICP/AEG6LfYZAgAB4C8DgLYyepX0tQkAMIdnR37dK2/+CQAEAAIAAaBFAeBQ2Di6VXrPAyzN1xc/T7dF9xMACACM/QMA6479IwAQAAgABICWBgC9/Pweo7xBes8DUH8hYM8RHwGAAMDYPwCw7tg/AgABgABAAGhZANBLj4eNcpf0fgfgJRN9LyzTbPFfEgAIAK4Vib3S1yMAwBzazti5fxr7RwAgABAACAAtCQB6+b+u9VbOl97vAPwFrTc+QACwdgDQVyQe9vXFz5S+FgEA5vA58jef6OafAEAAIAAQABYbAEKuyhMhozLKS6UBhem22LcJABYOACvj26WvQQCAOTzDxUtfOfaPAEAAIAAQAJoRAEKu8tNBV+nDe7XaOdL7HIA5GD3J9+q2+EECgCUDAGP/AMAyaku9jvxdJ7v5JwAQAAgABID5BoCQq3J3UC+OXO+snSW9wwGYB60nfiMBwHoBgLF/AGDtsX8EAAIAAYAA0PhRORjSK/eHXOVbw0Zlxx6j9HbpfQ3AAmnd/3OObos9QQCwTgBg7B8AWMfJxv4RAAgA7RYA/BPFJwITxccDE6XfBibK9wcmivcHJkp31w//ROnOwETxG8HJ8lcDk6Xb6od/ovip4FT5xj8dgcnCdHCyeO0rj8BUMRScLOmvPAJTpfHgeHH4lUfYWd4Yniz1H3c4C9eEnZUeM46AVrGH9Wr/K4+AszQYnCoOH3c4iyNBraQfd+hlf1CvXHvcoZVuCGrVG195hLTSx1/x7+shV2VnaKrQ63NWLjSM2unSexmAJtLsRyYIAFYJAMnnJq9+kTezAoBFeB05z1w3/wQAAoBZASA4XnwuOFb8J/9Yfsg/VumpH4Gp0gd848X3e0byF3sn0+fPHLtzbwqO1N4wPVFbJr2GAKDjTPfVTtNtsXsJAJ0fAIzlyeukrzcAgDk8W4pvO9nYPwIAAUAgADwaHClcIr0uAAAzEwESVxMAOjsA6MsZ+wcAVjLb2D8CAAHA7AAQHC+tlV4TAIBX0OzxfycAdG4AcC2Pb5O+xgAA5nA7CpfMNvaPAEAAMDMABMfL35ReEwCAv2DYMxfotthzBICODACM/QMAy6gt9Q3n7mz05p8AQABoaQAYKx3i0X8AUJRui19PAOi8AGBck+6RvrYAAObwOvKD87n5JwAQAFr7BED5Juk1AQA4idG/i56h9cQeIgB0TgDQ+5K3S19XAAC1xv4RAAgAJgWAp4JThbdKrwsAwCz0niPbCQAdEwAOGKszF0hfUwAAc/gcOe98b/4JAASAVgUA/3hJl14TAIA5TC+pnaLbovsIAB0QAFYk9kpfTwAAc2g7Y+d6HblnCAAEAEUCwC+CA79/rfS6AAA0wNnz4gd1W+wwAaCNA0Bf4hGnLXmW9LUEADCH15G/ZSE3/wQAAkArAoB/rNQvvSYAAPOg2+KfJQC0cQBg7B8AWMZ8x/4RAAgArQwAwbHSd+rTKKTXBQBgHrSu2LmaLfYMAaAtAwBj/wDAMuY/9o8AQABoYQA4HBr946XSqwIAsAC6Pe4nALRfAGDsHwBYx0LG/hEACACtCgD+8eIt0msCALBAE30vLNNt0QcIAO0TABj7BwDWsdCxfwQAAkBrAkB5/56R0tul1wUAYBFc9sQ6AkDbBADG/gGAhSx07B8BgADQkgAwVvBJrwkAQBNotth/EADaIAAw9g8ALGMxY/8IAASAFgSAB/c6LcvItwAAIABJREFUaq+TXhcAgCYwepLv1W3xgwQAhQMAY/8AwFIWM/aPAEAAaHYACE6WN0ivCQBAE+n2+E0EAIUDAGP/AMBaY/+2L3zsHwGAANDkAPC96enaKdLrAgDQRFp37hzdFnuCAKBkAGDsHwBYRm2pb3vuTt/25tz8EwAIAIsNAP7J0uXSqwIA0AJaT3SKAKBgALgmeaX0tQEAMHHsX/3mnwBAAFAjAHxOek0AAFpkuq92mm6P3UcAUCcAMPYPACw29m977gECAAFAjQBQftY9Xv4r6XUBAGghV0/cRgBQJgAw9g8ArDb27083/wQAAoBwAPCPFfdIrwkAgAl0W/TLBAAFAgBj/wDAWmP/tueeIQAQAFQIAP6x4iM+R/xM6XUBADCBYc9coNtizxEABAMAY/8AwHpj/155808AIABIBoCJMtOHAMBKNFv87wkAkk8AMPYPACw39o8AQABQIAD4x4r3MH0IACzG1xc/U+uJPUQAEAkAjP0DAMuoLfVuy971qpt/AgABQCwAVHqkVwUAQIBujw4TAAQCAGP/AMCaY/8IAAQA8QBQuEN6TQAAhEwvqZ2i98b2EQDMCwCM/QMAC4/9IwAQACQDwFjhgG935ULpdQEAEOTsefGDuj12mABgSgBg7B8AWHnsHwGAACAaAErXS68JAIACNHv0cwQAEwIAY/8AwNpj/wgABACpADBWfMwwMmdLrwsAgAK0rti5mj32DAGghQGAsX8AYCknHPtHACAAyD0BsEt6TQAAFKLb434CQCufAGDsHwAssfrYPwIAAUAgAPjHCvc6HDWmDwEA/myi74Vluj36AAGgJQGAsX8AYBmzjP0jABAABAJAaKzSK70qAAAKcvZEBwkALQgAjP0DAMuYdewfAYAAYHIACI4Vvyy9JgAACtPtsW8TAJoXABj7BwDWMefYPwIAAcDMADBWOOgbzb1bel0AABSmXXPkfbo9fpAA0JQAwNg/ALCQOcf+EQAIACYGAP9Y6QbpNQEAaAO6Lf5JAkBTAgBj/wDAIhoa+0cAIACYFQDGCo97d+feJL0uAABtQOvOnaPb408QABYRAK5h7B8AWElDY/8IAAQA054AKI1LrwkAQBvReuNTBIBFBADG/gGAZTQ89o8AQAAwJQAU7nc4aq+RXhcAgDZiXFE7XbfH7iMALCgAMPYPACxjHmP/CAAEABMCQHC8uEJ6VQAA2pBmjy4nACwgADD2DwAsY15j/wgABIAWB4DgWPGb0msCANDG9N7oVwgAjQcAxv4BgHXMe+wfAYAA0NIAUDgUHClcIr0uAABtbKo3dpFmjz5PAGgoABww7Iz9AwCr8G7P+RZ8808AIAA0/wmAm6TXBACgA+i98Y8QABoKAIz9AwCLWNDYPwIAAaB1AeCp4FThrdLrAgDQAXx98TM1e+whAsAsAYCxfwBgKQsa+0cAIAC0KAD4Rwq69JoAAHQQ3Z4YJgDMEgAY+wcAlrHgsX8EAAJAKwLAWOkXwYHfv1Z6XQAAOsj0ktopmj12NwHghAGAsX8AYBmLGPtHACAAtCAA+MdK/dKrAgDQgSav/sPluj1+mADwFwdj/wDAMhY19o8AQABocgAIjhW+U49S0usCANChNFv8NgLAnw+9L87YPwCwiEWP/SMAEACaGQDGiodDo8VLpdcFAKCD+fri5+n22H4CwMzB2D8AsJBFj/0jABAAmhsAbpZeEwAAC9Ds8QABYOa3/4z9AwCLaMrYPwIAAaB5AWC/b6J0nvS6AABYwETfC8t0e/wBSweAa2KM/QMAC2nK2D8CAAGgWQFgrOCTXhMAAAvRe6NDlg4AjP0DAMto2tg/AgABoBkBYKzw4F5H7XXS6wIAYCm1pbo9fqdFAwBj//7/9u4/OO76zu+4ze80BJqQ3MHdJLmS3tAAN51C7/LDkhwggLF2JVlmkSzJUNBq9f2uJAfSMplLbuqjCQlpmZYmvbYhc73cxOF6vtxxPziScFAuQ0IgBIeA7T/4p39d7JW13/0hwfS/7UgGjl82trW7n+/uPh4z3z8ykz9ijd6afJ9e67UBoFc0cfZPABAAmhAAFqZeyoa+CgB60PTA0ken+0r7ey4ADPzS7B9Aj4i3NXH2TwAQANYbAHYuf3f37sZpoe8CgB6V31T6Ui8FALN/AL31O2/i0SbO/gkAAsA6A8Dc5MoVoe8CgB42/fHq+/KbSk/3SAAw+wfQa7N/21v08i8ACAAnGQAWplbuDX0TALBhZtPibb0RAMz+AfSK6ezhX423V58VAASAVASAncs/n735pV8PfRcAsKFwZePM6b7Sw10dAMz+AfSU4mj1nrWXfwFAAEhBAJjbWbs99E0AwGtu++Shq7o6AJj9A+it2b/R6n4BQABISQB4opgrnRv6LgDgDaY3le7v0gBg9g+g12b/Xn35FwAEgNABYGd9NPRVAMBbxH3Vi6c3lZ7vugBg9g+gt2b/Xv/yLwAIAAEDwNzO2oP+EgKA1JreVPrdbgoAZv8AenD2TwAQANITAD4R+i4A4JhWf1FeftPij7okAJj9A+jF2T8BQABIRQCofy30TQDAO5r+5OJYdwQAs38APTn7JwAIAMEDQP0XxYmXPxz6LgDgHe3e0Dhtun/xzzo6AJj9A+jd2T8BQAAIHQB2rtwZ+iYA4IQV+hevyPeXDnRsADD7B9C7s38CgAAQNgD8pFBIzg99FwBwUqb7Dt3XoQHA7B9AL8/+CQACQMAAMDe1PB76KgDgpBU3ly7M9x3e13EBwOwfQG/P/gkAAkCgADA3VX8ol2v4SwgAOtN03+KuTgoAZv8AescxZ/8EAAEgUADYtfPlvtB3AQDr+j9X032lxzokAJj9A+ghx5z9EwAEgAABYGFq+X+GvgkAWLd832KmMwKA2T+AXnHc2T8BQABodwDYWX+hOFX956HvAgCaoLEx31/6dqoDgNk/gJ5y3Nk/AUAAaHMAmNu58oXQNwEATXNr3y8vne4v7U9tADD7B9Az3nH2TwAQANoaAOpPxRPV94a+CwBoqun+Q3enNACY/QPoGScw+ycACADtDABTKzeHvgoAaLrC5n94/3Rf6acpDACfDP21AaA9iqO1rSf18i8ACAAtDQD17xUKjTND3wUAtES+f3E6TQEgP7D43dBfEwDat0xT3F59TAAQAFITAKaWrw59FwDQMrlL95813Xf4+2kJAH7zP0DviLdXo5N++RcABIAWBYC5yfofhb4JAGi5wsCRq9ISAPL9pTtDfz0ASNnsnwAgALQ8AKy88JnJ/3dJ6LsAgLbI95W+mYYAMDNQenq6r7Qp9NcDgNaKt9e+ckov/wKAANCKADC1fFfomwCAtil8svSRfF/pheAB4NVPAmwu/X1h8+K38gOLX58ZKP2Xpj2fatFz1ds9R37/ZJ7ZNz/XNPspn/BT+PSRzxWuKX/2pJ5rU/Jct7RQuH4xfyJPtPaUU/PMblmanr2+fNPbPlvT/xS2JoPRYPX6Yz7ZytWzg7XfDP3zjvCim5YvP6nZPwFAAGhtAHhmbmftgtB3AQBtle87/Pm0BICZzet5Fo/9fKpFz1Xrfwpvfq5u9nPk6HNNi55rW/Rc16Ln+iMHZ9eecnOfLS16bmjBM3isJ1nfkzn2E2WSg3Em2RsPHr449M88QmlsLG6vfeeUX/4FAAGg2QFgoj4T+ioAoO0WfmfpvOm+xR8LAAKAACAAtDIArD2DyZOFbSsXhf65R4fM/gkAAkDLAsDKIwtbXjw79F0AQBAzfYvjAoAAIAAIAC0PAGsRoOw3bveYU579EwAEgBYFgIWplS2h7wIAgsnl9p6e7y89KAAIAAKAANDyALD6zwEGq58O/XOP9olvrBbX/fIvAAgATQoAC1P1B1b/SUrouwCAoG7tO/QxAUAAEAAEgHYEgGgw+UEut/+s0D/3SPnsnwAgADQ7AEwtH9g1tXx56LsAgFTI95XuEwAEAAFAAGh5AFj9FEC2Mh36Zx6tVxyt3tOUl38BQABozicAvhz6JgAgNQr9ixfN9B3eJwAIAAKAANDyAJBJnlnYUv9A6J97tM5srn7pumb/BAABoLkBYF/xlpULQ98FAKTKzKbDnxEABAABQABodQBYe7KVu0L/zKNVGhvj7ZU9TXv5FwAEgHUHgHox9FUAQOrcsrlxzkxf6TEBQAAQAASAlgeAwWR/MVu+LPTPPZov3lYbbOrLvwAgAKwnAEzVH78j13hX6LsAgFQqbDqSFQAEAAFAAGh5AFj7pwCVb4X+mUfzZ//i0eqjAoAAkJYAMDexkgl9FwCQYo2NM32lPQKAACAACACtDgCrz2x26drQP/VI4eyfACAANCcAfHf37sZpoe8CAFJttu+Xl870l/YLAAKAACAAtDoArM4CLmx58ezQP/dI2eyfACAArDcATC0fmJtcuSL0XQBAR5jpL90tAAgAAoAA0PIAsPaU86F/5pGy2T8BQABYZwBYmFy5N/RNAEDHmLumdkG+r/RTAUAAEAAEgFYHALOAXTL7t62Js38CgACwngAwtfzz2Ztf+vXQdwEAHSXfd3hGABAABAABoPWfAFj971b+Q+ifeZyqxsZ4tLKnONqil38BQAA4yQAwN1m7PfRVAEDHKVzZODPfV3pYABAABAABoNUBwCxgh8/+rb78CwACQDoCwBPFXOnc0HcBAB0p33/kagFAABAABICWB4Cjs4B7Vv82OfTPPU5h9k8AEADSEgB21kdD3wUAdLSZ/tL9AoAAIAAIAK0OAGYBO0+8rVp87eVfABAAAgeAucnag7nc3tND3wUAdLS4r3pxvq/0vAAgAAgAAkCrA0CcSR4xC9hBs3+j1WcFAAEgNQFgZ+0Toe8CALrCTN/hLwgAAoAAIAC0OgCYBeyw2b/Xv/wLAAJAyAAwVf9a6JsAgK6x8DtL5+X7Fn8sAAgAAoAA0OoAYBawg2b/BAABIBUBoP6L4sTLHw59FwDQVQqbDk8IAAKAACAAtP4TAGYBO2b2TwAQAFIRAGp3hr4KAOg6uVzj9EJ/6d6Z/sWfCwACgAAgALQyAKzOAsZblz4a+uceb1UcrW1925d/AUAACBMAfnznbY33hL4LAOhaU9ceevf0wOLWfP+h+/IDpWcFAAFAABAAmh4AVp9s5Y9D/7zjrbN/xdHqYwKAAJCWADA3tTwe+i4AoKc+FZDfdOiyQv/hfL6/9If5/tLzAoAAIAAIAM0JAKu/D2DputA/5/hH8bbkjbN/AoAAEDQA1P9m9f+HhL4LAOjpTwcUNh/51/n+0r/JDyz+p3x/6eGZ/tILAoAAIAAIAKcSAKJs8oNcbv9ZoX+28ersX/LG2T8BQAAIGAAWJl/6eOi7AADeZPfmxhmzmw/9xkzf4ub8QOnmwuYjdxYGFr8y01/6xszA4p8VBhZ/MDNQejw/UHoqv7n006Mv9Yf3rf3ngdJTM5sXH8kPHH5oZqD07fzA4tdnBkpfzA8sfvaEnk+l9ym8+bmm2U+5tc+1HfZc36Lnhg56Msd6Ksd5kt+bHUweChgAzAKmRLy98pXiaOXYL/8CgADQ1gBQ/2+hbwIAALpQY2OcqdwaKgDE2eSZQqb+/tBfhV4WbVu+vDhaOSAACADpCAD1X+za+fKHQt8FAAB0rWiw/KUgnwBYiwDlL4b+8/euxsbitsp3jr78CwACQAoCwFTt34W+CgAA6GqFTyfnR1uTJ0MEgCiT7I8Gy5eH/hr0omgkyfzjy78AIACEDQDFydqPbrvtiNk/AABotdnB5OYgAWDtUwCVPat/Gx36a9Brs3/xaPVRAUAASE8AqN8Y+i4AAKAnrE5uzW4t/3WIAHB0FrBqFrDts3+vf/kXAASAcAGgOLH8F7ncXrN/AADQLoWtyUCwADCUPLKw5cWzQ38Nemv2TwAQANIRAOLJ6m+HvgsAAOg5s4PJN0IEgNVndqg8E/rP3wuKo9V73vryLwAIAGECQHGifl/omwAAgJ4UDx6+eHYweT5EAIizyc8WttQ/EPpr0M1mc0uXxtsq+wUAASAdAaD+nNk/AAAIaHYw+d0QAcAsYKs1NsajlT1v//IvAAgAAQLAZO320FcBAAA9bWHL0nmzg8mPQwQAs4DtnP0TAASAoAHgiWKudG7ouwAAgJ43u7W8I0gAODoL+B2zgO2Y/RMABIBwAWB+R30k9F0AAABrs4B7T48ylb8MEQDMArZr9k8AEAACBYAdy3++e3fjtNB3AQAAvKI4VPtYsABgFrANs38CgAAQJgDsmnjpytB3AQAAvElhsPwHIQLAK78QsBD6z9/ds38CgAAQIABMrtwb+iYAAIC3EQ+XPxhlKs+FCQBmAVs7+ycACABtDwD75sZf+rXQdwEAABxDIVO+M0QAOPqUvxT6z9+9s38CgADQ3gAwv2N5PvRVAAAAxzF17aF3z2bKPwwSAMwCtnD2TwAQANoXAIoT9cfvyDXeFfouAACAdzA7uHRjmE8AmAVs3eyfACAAtPMTACuZ0HcBAACcgNXJrtlMsjdEAFh7hqvXh/4adN/snwAgALQnABQn6n8i4gEAQAcpZBaviDLJgSABIFv+P7fc0jgn9Negu2b/BAABoC0B4MDcZOWK0HcBAACcpEKmfF+YAGAWsPmzfwKAAND6AFCcWL4n9E0AAACnoLh15cLZwfK+MAHALOA7mR06mdk/AUAAaHkA2Hf75MpFoe8CAAA4RYXBpdtDBIC1CJAp3x36z59ejY3xyMnM/gkAAkBrA0BxRz0OfRUAAMA6FDL/8E+iwcrfhwgAa7OA25bNAh5r9m/bqb78CwACQHMDwOrs326/twMAADpfnKmMBAkAZgGPPfu3rfqoACAApCUAzE+s3BD6LgAAgKZobIwGkz8NEQDMAh5j9m/15V8AEABSEQDqD4h0AADQRWYHk38ZZ5IDQQKAWcA3zv6NJM8KAAJAOgJAff+uKf9MBwAAuk48mPzHMAFg9Z8CVM0Cri4zjFTvee3lXwAQAIIHgJpf1AkAAN36t8/RYPnZMAEg+Vm07dCvbOj12b+Ryn4BQABIRwCo/2whZ6oTAAC6VpRJ5kIEALOAr8z+vf7lXwAQAMIGAJ/KAQCAbv8N9NFg8miIANDLs4Cvzf4JAAJACgJAcWLlkYUtL54d+i4AAIAWi7cmg0ECQI/OAr5h9k8AEABSEADiyep1oe8CAABoi8bGKFP+dogAsPoUs+UtG3p19k8AEACCB4CVPb0W4QAAYEOv/0K6aDDZHyIA9NIs4Ftm/wQAASBoAKjvL44vXxb6LgAAgDaLM5W7wwSA5ODscHl2Qy/O/gkAAkDAAFCcWL4r9E0AAAABzI3ULogGk5+GCADxUPfPAha3ly97y+yfACAABAoAxYnlZwo76u8PfRcAAEAg8WC5ECIAREOrEaByd8/N/gkAAkCoTwBMrdwa+ioAAICACoXGmXEm+X6IABANde8s4DFn/wQAASBMAPhBLtc4K/RdAAAAgcWZpesCBYDV54Fu+43kx539EwAEgAABYH5q+erQdwEAAKREnEn+MFAA6LpZwNnjzf4JAAJAuwPAjvofhb4JAAAgRaKh2iVxpvJCiADQTbOAq7N/0fFm/wQAAaCtAaD+QjRZuyT0XQAAACkTZSt3BQkAQ90zCxiPVO+JTvTlXwAQAFoeAKr/PvRNAAAAKXRHrvq+KFN+OkQA6IZZwNXZv2iksl8AEADSEACK47Wn44nqe0PfBQAAkFJxZunWEAGg82cBGxujkcqe1Zd/AUAASEMAmN9Ruzn0VQAAAGmfBRxMHg4RAFZnAeeGk9/a0KGzf6++/AsAAkDoAFAcr31/9ZZD3wUAAJBy8dYjVwUKAB05C7g6+xdtqz4qAAgAqQkAE/WB0HcBAAB0iCiT3B8oAByMRso3bOiw2b/Xv/wLAAJAyABQHK//r9A3AQAAdJB4sHpxlEmeDxIAOmgW8NXZPwFAAEhJAHhh147ab4a+CwAAoMNEmeT3ggSAtV8IWI42dNDsnwAgAKQjAFS/EPomAACADrSwZem8KJs8GSQAZMv7irmVCzd0yOyfACAAhA8A1ac+c0vln4a+CwAAoEPF2WQqRAA4+pS/vKFDZv8EAAEgdAAo7qhOhr4KAACgg+VyjdPjbPmvQgSAeDg5MDe8/FudMPsnAAgAYQNA9aHdmxtnhL4LAACgw0XZ2sfDfAJg9amkbhbw7Wb/BAABIGQAKO6o94W+CwAAoEtE2eR/BAoAB2eHy1s3pHz2TwAQAIIFgInafw99EwAAQBcpZJIPxdnKcyECQDSUPJ6WWcBjzf4JAAJAiABQ3FF7fj5X+Weh7wIAAOgycbb8uTABoHIwHqpGaZ79EwAEgCCfAJiofy70TQAAAF2omCudG2WTJ4IEgGwSfBbweLN/AoAA0P4AUP9JIZecH/ImAACALhYPV8dCBIBXni+ndfZPABAA2h0A5ieWx8LdAwAA0PVyub2nR9nkwRABIB6uBJsFfKfZPwFAAGhnACjuqP/N6kRniFsAAAB6SGFo6WOBPgEQZBbwRGb/BAABoJ0BYH6ivqmdNwAAAPSwKFP+WqAA0PZZwGgomTuZl38BQABoaQAYr329nd//AABAj4uHyx+MssnPQwSAds4Crs3+Db/z7J8AIAC0KQD8ojiRfLgd3/sAAACviYcqnw0TACoHo2w1btvs3/DJvfwLAAJAqwJAcbz2b9vxfQ8AAPAGU9ceeneULf8wRABYnQUsbFu5qJV/vmK2fFk0XNkvAAgAaQgAxR3VH902dOQ9rfyeBwAAOKY4WxkN8gmAo6sAX2ndn6yxMRqu7Fl7+RcABIA0BIDx+o2t+34HAAB4B7t3N06LM+W9gQJAy2YB12b/Xn35FwAEgMABoLij9herE5yt+F4HAAA4YdHQ4r+Ks8mBdgeAVs0Crs3+jVQfFQAEgLQEgHiy+tvN/B4HAAA4ZVE2+c+BAsDBeCgZbPrs3+tf/gUAASBgACiOV+9r5vc3AADAuhS3rlwYZ8r7QgSAZs4Cvjb7JwAIAOkIAM/t2vnyh5rxvQ0AANA0cTZZCBMAmjcL+NrsnwAgAKQhAIzXbm/G9zUAAMCGZv/b+ThTfixEAIiHq+ueBXzD7J8AIACEDgDjtSeKudK5zbtQAACAJoozSTbIJwDWfhdA9Z6mzf4JAAJA4AAwv6M+0szbBAAAaLLGxjhb2RMkAKxjFvAts38CgAAQNgD8+erEZvPvEwAAoInWPkqfSfa3OwC8EgH+5GRnAd929k8AEAACBoBdEy9d2boLBQAAaKJoKPlqiACw+rJ+srOAbzv7JwAIAMECQP3e1l0mAABAk63N6WXLz4YIANFI8vgduca71jX7JwAIAEECQH3f3PhLv9b6CwUAAGiiKJvEQQLAcOXg7HBSPKH/jSPJV9/x5V8AEADaFADmdyzPt/4yAQAAWjELmE3+LkQAiEfeeRbwuLN/AoAA0OYAUNxRP+FPrgAAAKROMVveEiIAvBIB7jnl2T8BQABo9ycAJmqZdt4mAABAkzU2RtnynjAB4NizgKu/KPCEX/4FAAGg9QHgf5/segUAAEDqxFuXPvqWWcA2BIBXfiHgg7s3N854/f+eO4ca74lHqo8LAAJASgLAgbmbKleEu1AAAIAmirLlLwUJAEf/KcAXXv3b1UKhcWY8knzjpF7+BQABoJUBYKz21dD3CQAA0DSFTP39cTZ5JkQAWIsAw9VvRduqc9Fw9S9P+uVfABAAWhQAiuO1Z3eNL/9q6PsEAABoqihTzocKAOt+BAABoBUBYKweh75LAACAplv9+H00lHxPABAABIC1v/1/fPctjXNC3yUAAEBLxEPVTwsAAoAAUDs4P1a7IfQ9AgAAtFScTb4pAAgAPR0AxuoPmP0DAAC6XmGk+pF4KHlBABAAejIAjNX277pp+fLQdwgAANAW0dDSbgFAAOjJADBeuzv0/QEAALRNIZecHw8lPxEABIAeCwA/W8jVPxD6/gAAANoqyia3CAACQE8FgLFqIfTdAQAAtN3uzY0z4qHkbwUAAaAXAkBxrP7IwpYXzw59dwAAAEHEmWSzACAA9EIAiMeq14W+NwAAgKCibHK/ACAAdHcAqO8x+wcAAPS8eLR6cTSUPC8ACABdGQDGavuL48uXhb4zAACAVIiGk88LAAJANwaA4vjyXaHvCwAAIFWzgNFQ8qQAIAB0VwCoPz23s3ZB6PsCAABIlWg4mRAABIBuCgDFm6qToe8KAAAgdXK5xunRUPmvBQABoBsCwPz48t5cbu/poe8KAAAglYpDtY8JAAJAFwSA56Jc7ZLQ9wQAAJBq0VD5DwQAAaCTA8D8+PJU6DsCAABIvWjboV+JhpOnBAABoCMDwFj9v27Y0NgY+o4AAAA6QnFo6UYBQADotABQHKt9d/ctjXNC3w8AAEAHaWyMsuX7BAABoHMCQP1hk38AAACn4JbN//ecaKjygAAgAKQ/ANT/9vbJlYtC3wwAAEDHiger742HK38lAAgAqQ0AY/UH4onqe0PfCgAAQMebuvbQu+Oh6jcFAAEgdQFgbPn3C4XGmaFvBAAAoGvkco2z4mzliwKAAJCOAFD/u/mxen/ouwAAAOhas8OVT0XDlR8KAAJAmABQfWpurF64I9d4V+hbAAAA6HoLW5bOi7KV2+PhyjMCgADQngBQfWg+tzx129CR94T+/gcAAOg5hVxy/uxwUoyGKt8TAASAZgaA4ljt2bmx+h/Pjy3PfyZXuyT09zoAAACviAbLl0dDya5ouHp/NFx5UgAQAE7gRX//3Fjth3NjtT+du6n29eJY9fNzNy2Pz++o/4tcrnF66O9pAAAATsDcSO2Cwkj1I3PbKlcURmqfaOYTj1auikar1x/vmeuCpziS9M3lap9IyxPnqlcWt5cvO/az/MZn/I3P7FjlN+Kx8gfvyDXetzDZOG/35sYZob9PAQAAAAAAAAAAAAAAAAAAAAAAAAAAAAAAAAChAnfpAAAAl0lEQVQAAAAAAAAAAAAAAAAAAAAAAAAAAAAAAAAAAAAAAAAAAAAAAAAAAAAAAAAAAAAAAAAAAAAAAAAAAAAAAAAAAAAAAAAAAAAAAAAAAAAAAAAAAAAAAAAAAAAAAAAAAAAAAAAAAAAAAAAAAAAAAAAAAAAAAAAAAAAAAAAAAAAAAAAAAAAAAAAAAAAAAAAAAAAANjTd/wf7hWCYCtpCEgAAAABJRU5ErkJggg==;" vertex="1" parent="1">
          <mxGeometry x="215" y="255" width="15" height="15" as="geometry" />
        </mxCell>
        <mxCell id="1n7Qkl_lryp3FuAk-c7w-9" value="" style="triangle;whiteSpace=wrap;html=1;fontFamily=Helvetica;fontSize=11;labelBackgroundColor=default;rotation=180;fillColor=#f8cecc;strokeColor=#b85450;" vertex="1" parent="1">
          <mxGeometry x="334.99829917738646" y="265" width="60" height="10" as="geometry" />
        </mxCell>
        <mxCell id="1n7Qkl_lryp3FuAk-c7w-10" value="" style="rounded=0;whiteSpace=wrap;html=1;fontFamily=Helvetica;fontSize=11;labelBackgroundColor=default;fillColor=#f8cecc;strokeColor=#b85450;" vertex="1" parent="1">
          <mxGeometry x="380" y="230" width="410" height="80" as="geometry" />
        </mxCell>
        <mxCell id="1n7Qkl_lryp3FuAk-c7w-11" value="用户画像&lt;div&gt;描述&lt;/div&gt;" style="rounded=0;whiteSpace=wrap;html=1;fillColor=#f8cecc;strokeColor=#b85450;" vertex="1" parent="1">
          <mxGeometry x="390" y="240" width="30" height="60" as="geometry" />
        </mxCell>
        <mxCell id="1n7Qkl_lryp3FuAk-c7w-23" value="行为趋势分析" style="rounded=0;whiteSpace=wrap;html=1;fillColor=#f8cecc;strokeColor=#b85450;" vertex="1" parent="1">
          <mxGeometry x="430" y="240" width="30" height="60" as="geometry" />
        </mxCell>
        <mxCell id="1n7Qkl_lryp3FuAk-c7w-24" value="&amp;nbsp;· 核心兴趣&lt;div&gt;&amp;nbsp;· 趋势变化&lt;/div&gt;&lt;div&gt;&amp;nbsp;· 稳定性评估&lt;/div&gt;" style="rounded=0;whiteSpace=wrap;html=1;fillColor=#f8cecc;strokeColor=#b85450;align=left;" vertex="1" parent="1">
          <mxGeometry x="460" y="240" width="80" height="60" as="geometry" />
        </mxCell>
        <mxCell id="1n7Qkl_lryp3FuAk-c7w-25" value="消费心理解读" style="rounded=0;whiteSpace=wrap;html=1;fillColor=#f8cecc;strokeColor=#b85450;" vertex="1" parent="1">
          <mxGeometry x="550" y="240" width="30" height="60" as="geometry" />
        </mxCell>
        <mxCell id="1n7Qkl_lryp3FuAk-c7w-26" value="&amp;nbsp;· 购买动因&lt;div&gt;&amp;nbsp;· 消费倾向&lt;/div&gt;&lt;div&gt;&amp;nbsp;· 场景行为特征&lt;/div&gt;" style="rounded=0;whiteSpace=wrap;html=1;fillColor=#f8cecc;strokeColor=#b85450;align=left;" vertex="1" parent="1">
          <mxGeometry x="580" y="240" width="90" height="60" as="geometry" />
        </mxCell>
        <mxCell id="1n7Qkl_lryp3FuAk-c7w-29" value="综合兴趣描述" style="rounded=0;whiteSpace=wrap;html=1;fillColor=#f8cecc;strokeColor=#b85450;" vertex="1" parent="1">
          <mxGeometry x="680" y="240" width="30" height="60" as="geometry" />
        </mxCell>
        <mxCell id="1n7Qkl_lryp3FuAk-c7w-30" value="&amp;nbsp;· 整体描述&lt;div&gt;&amp;nbsp;· 领域方向&lt;/div&gt;&lt;div&gt;&amp;nbsp;· 意向预测&lt;/div&gt;&lt;div&gt;&amp;nbsp;· 兴趣流失&lt;/div&gt;" style="rounded=0;whiteSpace=wrap;html=1;fillColor=#f8cecc;strokeColor=#b85450;align=left;" vertex="1" parent="1">
          <mxGeometry x="710" y="240" width="70" height="60" as="geometry" />
        </mxCell>
        <mxCell id="kayIU9PRfoHvsNL48Lr8-41" value="" style="triangle;whiteSpace=wrap;html=1;fontFamily=Helvetica;fontSize=11;labelBackgroundColor=default;rotation=180;fillColor=#d5e8d4;strokeColor=#82b366;" parent="1" vertex="1">
          <mxGeometry x="499.64" y="170" width="60" height="10" as="geometry" />
        </mxCell>
        <mxCell id="kayIU9PRfoHvsNL48Lr8-40" value="" style="rounded=0;whiteSpace=wrap;html=1;fontFamily=Helvetica;fontSize=11;labelBackgroundColor=default;fillColor=#d5e8d4;strokeColor=#82b366;" parent="1" vertex="1">
          <mxGeometry x="530" y="60" width="280" height="140" as="geometry" />
        </mxCell>
        <mxCell id="kayIU9PRfoHvsNL48Lr8-22" value="细分场景" style="rounded=0;whiteSpace=wrap;html=1;fillColor=#d5e8d4;strokeColor=#82b366;" parent="1" vertex="1">
          <mxGeometry x="540" y="70" width="60" height="60" as="geometry" />
        </mxCell>
        <mxCell id="kayIU9PRfoHvsNL48Lr8-23" value="" style="rounded=0;whiteSpace=wrap;html=1;fillColor=#d5e8d4;strokeColor=#82b366;" parent="1" vertex="1">
          <mxGeometry x="600" y="70" width="200" height="60" as="geometry" />
        </mxCell>
        <mxCell id="kayIU9PRfoHvsNL48Lr8-25" value="关键类目" style="rounded=0;whiteSpace=wrap;html=1;fillColor=#d5e8d4;strokeColor=#82b366;fontColor=#C4C4C4;" parent="1" vertex="1">
          <mxGeometry x="610" y="80" width="60" height="20" as="geometry" />
        </mxCell>
        <mxCell id="kayIU9PRfoHvsNL48Lr8-28" value="用户需求" style="rounded=0;whiteSpace=wrap;html=1;fillColor=#d5e8d4;strokeColor=#82b366;" parent="1" vertex="1">
          <mxGeometry x="670" y="80" width="60" height="20" as="geometry" />
        </mxCell>
        <mxCell id="kayIU9PRfoHvsNL48Lr8-29" value="用户偏好" style="rounded=0;whiteSpace=wrap;html=1;fillColor=#d5e8d4;strokeColor=#82b366;" parent="1" vertex="1">
          <mxGeometry x="730" y="80" width="60" height="20" as="geometry" />
        </mxCell>
        <mxCell id="kayIU9PRfoHvsNL48Lr8-31" value="新兴趣" style="rounded=0;whiteSpace=wrap;html=1;fillColor=#d5e8d4;strokeColor=#82b366;fontColor=#C4C4C4;" parent="1" vertex="1">
          <mxGeometry x="640" y="100" width="60" height="20" as="geometry" />
        </mxCell>
        <mxCell id="kayIU9PRfoHvsNL48Lr8-32" value="持续兴趣" style="rounded=0;whiteSpace=wrap;html=1;fillColor=#d5e8d4;strokeColor=#82b366;fontColor=#C4C4C4;" parent="1" vertex="1">
          <mxGeometry x="700" y="100" width="60" height="20" as="geometry" />
        </mxCell>
        <mxCell id="kayIU9PRfoHvsNL48Lr8-33" value="基本信息" style="rounded=0;whiteSpace=wrap;html=1;fillColor=#d5e8d4;strokeColor=#82b366;fontColor=#C4C4C4;" parent="1" vertex="1">
          <mxGeometry x="565" y="130" width="70" height="30" as="geometry" />
        </mxCell>
        <mxCell id="kayIU9PRfoHvsNL48Lr8-34" value="场景偏好" style="rounded=0;whiteSpace=wrap;html=1;fillColor=#d5e8d4;strokeColor=#82b366;fontColor=#C4C4C4;" parent="1" vertex="1">
          <mxGeometry x="635" y="130" width="70" height="30" as="geometry" />
        </mxCell>
        <mxCell id="kayIU9PRfoHvsNL48Lr8-35" value="生活阶段/职业" style="rounded=0;whiteSpace=wrap;html=1;fillColor=#d5e8d4;strokeColor=#82b366;" parent="1" vertex="1">
          <mxGeometry x="665" y="160" width="100" height="30" as="geometry" />
        </mxCell>
        <mxCell id="kayIU9PRfoHvsNL48Lr8-36" value="爱好/技能" style="rounded=0;whiteSpace=wrap;html=1;fillColor=#d5e8d4;strokeColor=#82b366;" parent="1" vertex="1">
          <mxGeometry x="575" y="160" width="90" height="30" as="geometry" />
        </mxCell>
        <mxCell id="kayIU9PRfoHvsNL48Lr8-38" value="用户画像" style="rounded=0;whiteSpace=wrap;html=1;fillColor=#d5e8d4;strokeColor=#82b366;" parent="1" vertex="1">
          <mxGeometry x="705" y="130" width="70" height="30" as="geometry" />
        </mxCell>
      </root>
    </mxGraphModel>
  </diagram>
  <diagram id="RGbdRLC8bjdXwacu4QoR" name="第 2 页">
    <mxGraphModel grid="1" page="1" gridSize="10" guides="1" tooltips="1" connect="1" arrows="1" fold="1" pageScale="1" pageWidth="827" pageHeight="1169" math="0" shadow="0">
      <root>
        <mxCell id="0" />
        <mxCell id="1" parent="0" />
      </root>
    </mxGraphModel>
  </diagram>
</mxfile>
